<?xml version="1.0" encoding="UTF-8" standalone="no"?>
<!-- Created with Inkscape (http://www.inkscape.org/) -->

<svg
   xmlns:dc="http://purl.org/dc/elements/1.1/"
   xmlns:cc="http://creativecommons.org/ns#"
   xmlns:rdf="http://www.w3.org/1999/02/22-rdf-syntax-ns#"
   xmlns:svg="http://www.w3.org/2000/svg"
   xmlns="http://www.w3.org/2000/svg"
   xmlns:sodipodi="http://sodipodi.sourceforge.net/DTD/sodipodi-0.dtd"
   xmlns:inkscape="http://www.inkscape.org/namespaces/inkscape"
   width="1366"
   height="768"
   id="svg2"
   version="1.1"
   inkscape:version="0.48.5 r10040"
   sodipodi:docname="E_2_2.svg">
  <defs
     id="defs4" />
  <sodipodi:namedview
     id="base"
     pagecolor="#ffffff"
     bordercolor="#666666"
     borderopacity="1.0"
     inkscape:pageopacity="0.0"
     inkscape:pageshadow="2"
     inkscape:zoom="0.7"
     inkscape:cx="1061.5114"
     inkscape:cy="122.77988"
     inkscape:document-units="px"
     inkscape:current-layer="layer1"
     showgrid="false"
     inkscape:window-width="1680"
     inkscape:window-height="1001"
     inkscape:window-x="22"
     inkscape:window-y="0"
     inkscape:window-maximized="0" />
  <metadata
     id="metadata7">
    <rdf:RDF>
      <cc:Work
         rdf:about="">
        <dc:format>image/svg+xml</dc:format>
        <dc:type
           rdf:resource="http://purl.org/dc/dcmitype/StillImage" />
        <dc:title></dc:title>
      </cc:Work>
    </rdf:RDF>
  </metadata>
  <g
     inkscape:label="Layer 1"
     inkscape:groupmode="layer"
     id="layer1"
     transform="translate(0,-284.36218)">
    <g
       id="layer1-5"
       inkscape:label="Layer 1"
       transform="translate(-179.9375,159.9375)">
      <g
         id="g4158">
        <path
           style="fill:#ff80b2;fill-opacity:1;stroke:none"
           d="m 811.61302,359.98148 102.65461,0 c 9.49714,0 17.14286,7.64571 17.14286,17.14286 l 0,102.65461 c 0,9.49715 -7.64572,17.14286 -17.14286,17.14286 l -102.65461,0 c -9.49715,0 -17.14287,-7.64571 -17.14287,-17.14286 l 0,-102.65461 c 0,-9.49715 7.64572,-17.14286 17.14287,-17.14286 z"
           id="rect4153"
           inkscape:connector-curvature="0" />
        <path
           style="font-size:medium;font-style:normal;font-variant:normal;font-weight:normal;font-stretch:normal;text-indent:0;text-align:start;text-decoration:none;line-height:normal;letter-spacing:normal;word-spacing:normal;text-transform:none;direction:ltr;block-progression:tb;writing-mode:lr-tb;text-anchor:start;baseline-shift:baseline;color:#000000;fill:#ffffff;fill-opacity:1;stroke:none;stroke-width:8;marker:none;visibility:visible;display:inline;overflow:visible;enable-background:accumulate;font-family:Sans;-inkscape-font-specification:Sans"
           d="m 811.625,355.96875 c -11.64396,0 -21.15625,9.51229 -21.15625,21.15625 l 0,102.65625 c 0,11.64396 9.51229,21.125 21.15625,21.125 l 102.65625,0 c 11.64396,0 21.125,-9.48104 21.125,-21.125 l 0,-102.65625 c 0,-11.64396 -9.48104,-21.15625 -21.125,-21.15625 l -102.65625,0 z m 0,8 102.65625,0 c 7.35034,0 13.125,5.80591 13.125,13.15625 l 0,102.65625 c 0,7.35034 -5.77466,13.125 -13.125,13.125 l -102.65625,0 c -7.35034,0 -13.15625,-5.77466 -13.15625,-13.125 l 0,-102.65625 c 0,-7.35034 5.80591,-13.15625 13.15625,-13.15625 z"
           id="rect3759-4"
           inkscape:connector-curvature="0" />
      </g>
    </g>
  </g>
</svg>
