<?xml version="1.0" encoding="UTF-8" standalone="no"?>
<!-- Created with Inkscape (http://www.inkscape.org/) -->

<svg
   xmlns:dc="http://purl.org/dc/elements/1.1/"
   xmlns:cc="http://creativecommons.org/ns#"
   xmlns:rdf="http://www.w3.org/1999/02/22-rdf-syntax-ns#"
   xmlns:svg="http://www.w3.org/2000/svg"
   xmlns="http://www.w3.org/2000/svg"
   xmlns:sodipodi="http://sodipodi.sourceforge.net/DTD/sodipodi-0.dtd"
   xmlns:inkscape="http://www.inkscape.org/namespaces/inkscape"
   width="1366"
   height="768"
   id="svg2"
   version="1.1"
   inkscape:version="0.48.5 r10040"
   sodipodi:docname="EVENT2_thekinect.svg">
  <defs
     id="defs4" />
  <sodipodi:namedview
     id="base"
     pagecolor="#ffffff"
     bordercolor="#666666"
     borderopacity="1.0"
     inkscape:pageopacity="0.0"
     inkscape:pageshadow="2"
     inkscape:zoom="0.7"
     inkscape:cx="924.58312"
     inkscape:cy="506.51043"
     inkscape:document-units="px"
     inkscape:current-layer="layer1"
     showgrid="false"
     inkscape:window-width="1680"
     inkscape:window-height="1001"
     inkscape:window-x="25"
     inkscape:window-y="0"
     inkscape:window-maximized="0" />
  <metadata
     id="metadata7">
    <rdf:RDF>
      <cc:Work
         rdf:about="">
        <dc:format>image/svg+xml</dc:format>
        <dc:type
           rdf:resource="http://purl.org/dc/dcmitype/StillImage" />
        <dc:title></dc:title>
      </cc:Work>
    </rdf:RDF>
  </metadata>
  <g
     inkscape:label="Layer 1"
     inkscape:groupmode="layer"
     id="layer1"
     transform="translate(0,-284.36218)">
    <g
       style="font-size:40px;font-style:normal;font-weight:normal;line-height:125%;letter-spacing:0px;word-spacing:0px;fill:#000000;fill-opacity:1;stroke:none;font-family:Sans"
       id="text3114">
      <path
         d="m 478.41594,887.82075 c 0.98666,3e-5 2.02666,0.2267 3.12,0.68 1.09332,0.45336 1.98665,1.01336 2.68,1.68 0.37332,0.34669 0.61332,0.68003 0.72,1 0.13332,0.29336 0.19998,0.61336 0.2,0.96 -2e-5,0.69336 -0.18668,1.25336 -0.56,1.68 -0.37335,0.42669 -0.88001,0.64002 -1.52,0.64 -0.42668,2e-5 -0.78668,-0.0666 -1.08,-0.2 -0.29335,-0.15998 -0.58668,-0.37331 -0.88,-0.64 -0.48001,-0.45331 -0.94668,-0.75998 -1.4,-0.92 -0.45334,-0.18664 -0.98668,-0.27998 -1.6,-0.28 -0.80001,2e-5 -1.53334,0.30669 -2.2,0.92 -0.64001,0.61336 -0.96001,1.46669 -0.96,2.56 -1e-5,0.80002 0.21333,1.44002 0.64,1.92 0.42666,0.45335 1.09333,0.90669 2,1.36 0.90666,0.45335 1.86666,0.85335 2.88,1.2 1.03999,0.34668 1.90665,0.77335 2.6,1.28 1.06665,0.80001 1.87998,1.80001 2.44,3 0.58665,1.20001 0.87998,2.49334 0.88,3.88 -2e-5,1.20001 -0.21335,2.36001 -0.64,3.48 -0.40002,1.12 -1.01335,2.10667 -1.84,2.96 -0.80001,0.85333 -1.80001,1.53333 -3,2.04 -1.17334,0.50667 -2.52001,0.76 -4.04,0.76 -1.38667,0 -2.64,-0.28 -3.76,-0.84 -1.09334,-0.56 -1.98667,-1.18667 -2.68,-1.88 -0.29333,-0.29333 -0.52,-0.61333 -0.68,-0.96 -0.13333,-0.34666 -0.2,-0.66666 -0.2,-0.96 0,-0.69333 0.2,-1.23999 0.6,-1.64 0.4,-0.39999 0.94667,-0.59999 1.64,-0.6 0.26666,10e-6 0.54666,0.0667 0.84,0.2 0.29333,0.10667 0.58666,0.30667 0.88,0.6 0.53333,0.53334 1.09333,0.92 1.68,1.16 0.58666,0.21334 1.30666,0.32 2.16,0.32 1.41332,0 2.50666,-0.42666 3.28,-1.28 0.77332,-0.87999 1.15999,-1.99999 1.16,-3.36 -10e-6,-0.85332 -0.17335,-1.55999 -0.52,-2.12 -0.34668,-0.58666 -0.97334,-1.10665 -1.88,-1.56 -0.77334,-0.39999 -1.66667,-0.77332 -2.68,-1.12 -1.01334,-0.37332 -2.00001,-0.83999 -2.96,-1.4 -0.93334,-0.55998 -1.73334,-1.38665 -2.4,-2.48 -0.66667,-1.11998 -1,-2.43998 -1,-3.96 0,-1.14664 0.2,-2.21331 0.6,-3.2 0.4,-0.98664 0.96,-1.83997 1.68,-2.56 0.72,-0.71997 1.57333,-1.27997 2.56,-1.68 0.98666,-0.42664 2.06666,-0.63997 3.24,-0.64"
         style="font-variant:normal;font-weight:600;font-stretch:normal;font-family:Rimouski;-inkscape-font-specification:Rimouski Semi-Bold"
         id="path3234" />
      <path
         d="m 493.88782,895.46075 1.44,0 c 0.69332,2e-5 1.23999,0.21335 1.64,0.64 0.42665,0.40002 0.63999,0.96002 0.64,1.68 -1e-5,0.64002 -0.21335,1.18668 -0.64,1.64 -0.40001,0.42668 -0.94668,0.64002 -1.64,0.64 l -1.44,0 0,10.64 c -10e-6,0.53334 0.0667,0.96001 0.2,1.28 0.15999,0.32 0.37332,0.57334 0.64,0.76 0.26666,0.18667 0.55999,0.32 0.88,0.4 0.31999,0.08 0.66665,0.13334 1.04,0.16 0.61332,0.0533 1.07999,0.29334 1.4,0.72 0.34665,0.4 0.51998,0.94667 0.52,1.64 -2e-5,0.64 -0.22668,1.16 -0.68,1.56 -0.45335,0.37333 -1.12001,0.56 -2,0.56 -0.93334,0 -1.80001,-0.13333 -2.6,-0.4 -0.80001,-0.26667 -1.50668,-0.68 -2.12,-1.24 -0.58667,-0.58667 -1.05334,-1.32 -1.4,-2.2 -0.32001,-0.90666 -0.48001,-1.97333 -0.48,-3.2 l 0,-10.68 c -0.61334,-0.08 -1.09334,-0.33332 -1.44,-0.76 -0.32,-0.42665 -0.48,-0.93331 -0.48,-1.52 0,-0.63998 0.16,-1.15998 0.48,-1.56 0.34666,-0.42665 0.82666,-0.66665 1.44,-0.72 l 0,-6.76 c -1e-5,-0.71997 0.21333,-1.27997 0.64,-1.68 0.45333,-0.42664 0.99999,-0.63997 1.64,-0.64 0.71999,3e-5 1.27999,0.21336 1.68,0.64 0.42666,0.40003 0.63999,0.96003 0.64,1.68 l 0,6.72"
         style="font-variant:normal;font-weight:600;font-stretch:normal;font-family:Rimouski;-inkscape-font-specification:Rimouski Semi-Bold"
         id="path3236" />
      <path
         d="m 521.99657,915.46075 c -3e-5,0.72 -0.21336,1.29333 -0.64,1.72 -0.40003,0.4 -0.96003,0.6 -1.68,0.6 -0.64003,0 -1.18669,-0.2 -1.64,-0.6 -0.42669,-0.42667 -0.64002,-1 -0.64,-1.72 l 0,-0.12 c -0.37336,0.37333 -0.81336,0.74667 -1.32,1.12 -0.48002,0.34667 -1.02669,0.65333 -1.64,0.92 -0.58669,0.26667 -1.21335,0.48 -1.88,0.64 -0.66668,0.16 -1.33335,0.24 -2,0.24 -1.70668,0 -3.28001,-0.30667 -4.72,-0.92 -1.44001,-0.61333 -2.68001,-1.44 -3.72,-2.48 -1.04001,-1.06666 -1.85334,-2.30666 -2.44,-3.72 -0.58667,-1.43999 -0.88,-2.97332 -0.88,-4.6 0,-1.62665 0.29333,-3.14665 0.88,-4.56 0.58666,-1.43998 1.39999,-2.69332 2.44,-3.76 1.06666,-1.06665 2.31999,-1.90665 3.76,-2.52 1.43999,-0.63998 2.99998,-0.95998 4.68,-0.96 1.49332,2e-5 2.81331,0.25336 3.96,0.76 1.14664,0.50669 2.10664,1.18669 2.88,2.04 -2e-5,-0.69331 0.21331,-1.23998 0.64,-1.64 0.45331,-0.42665 0.99997,-0.63998 1.64,-0.64 0.71997,2e-5 1.27997,0.21335 1.68,0.64 0.42664,0.40002 0.63997,0.94669 0.64,1.64 l 0,17.92 m -11.44,-16.12 c -1.01335,2e-5 -1.96001,0.18668 -2.84,0.56 -0.85335,0.37335 -1.60001,0.89335 -2.24,1.56 -0.64001,0.64001 -1.14668,1.40001 -1.52,2.28 -0.37334,0.88001 -0.56001,1.81334 -0.56,2.8 -10e-6,0.98668 0.18666,1.92001 0.56,2.8 0.37332,0.85334 0.87999,1.60001 1.52,2.24 0.63999,0.64 1.38665,1.14667 2.24,1.52 0.87999,0.37334 1.82665,0.56 2.84,0.56 0.95998,0 1.85331,-0.18666 2.68,-0.56 0.85331,-0.37333 1.57331,-0.88 2.16,-1.52 0.61331,-0.63999 1.09331,-1.38666 1.44,-2.24 0.34664,-0.87999 0.51998,-1.81332 0.52,-2.8 -2e-5,-0.98666 -0.17336,-1.91999 -0.52,-2.8 -0.34669,-0.87999 -0.82669,-1.63999 -1.44,-2.28 -0.58669,-0.66665 -1.30669,-1.18665 -2.16,-1.56 -0.82669,-0.37332 -1.72002,-0.55998 -2.68,-0.56"
         style="font-variant:normal;font-weight:600;font-stretch:normal;font-family:Rimouski;-inkscape-font-specification:Rimouski Semi-Bold"
         id="path3238" />
      <path
         d="m 527.76657,895.26075 c 1.30666,2e-5 2.07999,0.66669 2.32,2 0.69332,-0.77331 1.54666,-1.38665 2.56,-1.84 1.01332,-0.45331 2.14665,-0.67998 3.4,-0.68 1.43998,2e-5 2.74665,0.26669 3.92,0.8 1.17331,0.50669 2.17331,1.21335 3,2.12 0.82664,0.90669 1.45331,1.98668 1.88,3.24 0.45331,1.22668 0.67997,2.56001 0.68,4 l 0,10.6 c -3e-5,0.72 -0.21336,1.28 -0.64,1.68 -0.40002,0.4 -0.94669,0.6 -1.64,0.6 -0.66669,0 -1.21336,-0.2 -1.64,-0.6 -0.42669,-0.4 -0.64002,-0.96 -0.64,-1.68 l 0,-10.6 c -2e-5,-0.77332 -0.12002,-1.49332 -0.36,-2.16 -0.24002,-0.69332 -0.58669,-1.29332 -1.04,-1.8 -0.42669,-0.50665 -0.96002,-0.90665 -1.6,-1.2 -0.64002,-0.29332 -1.36002,-0.43998 -2.16,-0.44 -0.80001,2e-5 -1.53335,0.14668 -2.2,0.44 -0.66668,0.29335 -1.24001,0.69335 -1.72,1.2 -0.48001,0.48002 -0.85334,1.06668 -1.12,1.76 -0.24001,0.66668 -0.36001,1.40001 -0.36,2.2 l 0,10.6 c -10e-6,0.72 -0.21334,1.28 -0.64,1.68 -0.40001,0.4 -0.96001,0.6 -1.68,0.6 -0.64001,0 -1.18667,-0.2 -1.64,-0.6 -0.42667,-0.4 -0.64001,-0.96 -0.64,-1.68 l 0,-18.24 c -10e-6,-0.61331 0.18666,-1.09331 0.56,-1.44 0.39999,-0.37331 0.86666,-0.55998 1.4,-0.56"
         style="font-variant:normal;font-weight:600;font-stretch:normal;font-family:Rimouski;-inkscape-font-specification:Rimouski Semi-Bold"
         id="path3240" />
      <path
         d="m 560.47844,899.34075 c -1.01334,2e-5 -1.96001,0.18668 -2.84,0.56 -0.85334,0.37335 -1.60001,0.89335 -2.24,1.56 -0.64001,0.64001 -1.14667,1.40001 -1.52,2.28 -0.37334,0.88001 -0.56,1.81334 -0.56,2.8 0,0.98668 0.18666,1.92001 0.56,2.8 0.37333,0.85334 0.87999,1.60001 1.52,2.24 0.63999,0.64 1.38666,1.14667 2.24,1.52 0.87999,0.37334 1.82666,0.56 2.84,0.56 0.95999,0 1.85332,-0.18666 2.68,-0.56 0.85332,-0.37333 1.57332,-0.88 2.16,-1.52 0.61332,-0.63999 1.09332,-1.38666 1.44,-2.24 0.34665,-0.87999 0.51998,-1.81332 0.52,-2.8 -2e-5,-0.98666 -0.17335,-1.91999 -0.52,-2.8 -0.34668,-0.87999 -0.82668,-1.63999 -1.44,-2.28 -0.58668,-0.66665 -1.30668,-1.18665 -2.16,-1.56 -0.82668,-0.37332 -1.72001,-0.55998 -2.68,-0.56 m 6.8,-10.64 c -2e-5,-0.6933 0.19998,-1.23997 0.6,-1.64 0.42665,-0.42664 0.99998,-0.63997 1.72,-0.64 0.69331,3e-5 1.25331,0.21336 1.68,0.64 0.42664,0.40003 0.63998,0.9467 0.64,1.64 l 0,27.04 c -2e-5,0.61333 -0.18669,1.10667 -0.56,1.48 -0.34669,0.37333 -0.80002,0.56 -1.36,0.56 -0.66669,0 -1.24002,-0.2 -1.72,-0.6 -0.45335,-0.4 -0.73335,-1.06667 -0.84,-2 -0.34669,0.4 -0.77335,0.78667 -1.28,1.16 -0.50668,0.37333 -1.06668,0.70667 -1.68,1 -0.61335,0.26667 -1.26668,0.48 -1.96,0.64 -0.66668,0.18667 -1.34668,0.28 -2.04,0.28 -1.52001,0 -3.00001,-0.30667 -4.44,-0.92 -1.41334,-0.61333 -2.66667,-1.44 -3.76,-2.48 -1.06667,-1.06666 -1.93333,-2.30666 -2.6,-3.72 -0.64,-1.43999 -0.96,-2.97332 -0.96,-4.6 0,-1.62665 0.32,-3.14665 0.96,-4.56 0.66667,-1.43998 1.53333,-2.69332 2.6,-3.76 1.09333,-1.06665 2.34666,-1.90665 3.76,-2.52 1.43999,-0.63998 2.91999,-0.95998 4.44,-0.96 1.51999,2e-5 2.85332,0.26669 4,0.8 1.14665,0.50669 2.07998,1.20002 2.8,2.08 l 0,-8.92"
         style="font-variant:normal;font-weight:600;font-stretch:normal;font-family:Rimouski;-inkscape-font-specification:Rimouski Semi-Bold"
         id="path3242" />
      <path
         d="m 596.10344,899.34075 c -1.01334,2e-5 -1.96001,0.18668 -2.84,0.56 -0.85334,0.37335 -1.60001,0.89335 -2.24,1.56 -0.64001,0.64001 -1.14667,1.40001 -1.52,2.28 -0.37334,0.88001 -0.56,1.81334 -0.56,2.8 0,0.98668 0.18666,1.92001 0.56,2.8 0.37333,0.85334 0.87999,1.60001 1.52,2.24 0.63999,0.64 1.38666,1.14667 2.24,1.52 0.87999,0.37334 1.82666,0.56 2.84,0.56 0.98665,0 1.90665,-0.18666 2.76,-0.56 0.87998,-0.37333 1.63998,-0.88 2.28,-1.52 0.66665,-0.63999 1.18665,-1.38666 1.56,-2.24 0.37331,-0.87999 0.55998,-1.81332 0.56,-2.8 -2e-5,-0.98666 -0.18669,-1.91999 -0.56,-2.8 -0.37335,-0.87999 -0.89335,-1.63999 -1.56,-2.28 -0.64002,-0.66665 -1.40002,-1.18665 -2.28,-1.56 -0.85335,-0.37332 -1.77335,-0.55998 -2.76,-0.56 m 0,-4.6 c 1.62665,2e-5 3.14665,0.32002 4.56,0.96 1.43998,0.61335 2.69331,1.45335 3.76,2.52 1.06665,1.06668 1.90664,2.32002 2.52,3.76 0.61331,1.41335 0.91998,2.93335 0.92,4.56 -2e-5,1.62668 -0.30669,3.16001 -0.92,4.6 -0.61336,1.41334 -1.45335,2.65334 -2.52,3.72 -1.06669,1.04 -2.32002,1.86667 -3.76,2.48 -1.41335,0.61333 -2.93335,0.92 -4.56,0.92 -1.62668,0 -3.16001,-0.30667 -4.6,-0.92 -1.41334,-0.61333 -2.65334,-1.44 -3.72,-2.48 -1.06667,-1.06666 -1.90667,-2.30666 -2.52,-3.72 -0.61333,-1.43999 -0.92,-2.97332 -0.92,-4.6 0,-1.62665 0.30667,-3.14665 0.92,-4.56 0.61333,-1.43998 1.45333,-2.69332 2.52,-3.76 1.06666,-1.06665 2.30666,-1.90665 3.72,-2.52 1.43999,-0.63998 2.97332,-0.95998 4.6,-0.96"
         style="font-variant:normal;font-weight:600;font-stretch:normal;font-family:Rimouski;-inkscape-font-specification:Rimouski Semi-Bold"
         id="path3244" />
      <path
         d="m 612.92282,895.26075 c 1.30666,2e-5 2.07999,0.66669 2.32,2 0.69332,-0.77331 1.54666,-1.38665 2.56,-1.84 1.01332,-0.45331 2.14665,-0.67998 3.4,-0.68 1.43998,2e-5 2.74665,0.26669 3.92,0.8 1.17331,0.50669 2.17331,1.21335 3,2.12 0.82664,0.90669 1.45331,1.98668 1.88,3.24 0.45331,1.22668 0.67997,2.56001 0.68,4 l 0,10.6 c -3e-5,0.72 -0.21336,1.28 -0.64,1.68 -0.40002,0.4 -0.94669,0.6 -1.64,0.6 -0.66669,0 -1.21336,-0.2 -1.64,-0.6 -0.42669,-0.4 -0.64002,-0.96 -0.64,-1.68 l 0,-10.6 c -2e-5,-0.77332 -0.12002,-1.49332 -0.36,-2.16 -0.24002,-0.69332 -0.58669,-1.29332 -1.04,-1.8 -0.42669,-0.50665 -0.96002,-0.90665 -1.6,-1.2 -0.64002,-0.29332 -1.36002,-0.43998 -2.16,-0.44 -0.80001,2e-5 -1.53335,0.14668 -2.2,0.44 -0.66668,0.29335 -1.24001,0.69335 -1.72,1.2 -0.48001,0.48002 -0.85334,1.06668 -1.12,1.76 -0.24001,0.66668 -0.36001,1.40001 -0.36,2.2 l 0,10.6 c -10e-6,0.72 -0.21334,1.28 -0.64,1.68 -0.40001,0.4 -0.96001,0.6 -1.68,0.6 -0.64001,0 -1.18667,-0.2 -1.64,-0.6 -0.42667,-0.4 -0.64001,-0.96 -0.64,-1.68 l 0,-18.24 c -10e-6,-0.61331 0.18666,-1.09331 0.56,-1.44 0.39999,-0.37331 0.86666,-0.55998 1.4,-0.56"
         style="font-variant:normal;font-weight:600;font-stretch:normal;font-family:Rimouski;-inkscape-font-specification:Rimouski Semi-Bold"
         id="path3246" />
      <path
         d="m 648.80969,895.46075 1.44,0 c 0.69333,2e-5 1.23999,0.21335 1.64,0.64 0.42666,0.40002 0.63999,0.96002 0.64,1.68 -10e-6,0.64002 -0.21334,1.18668 -0.64,1.64 -0.40001,0.42668 -0.94667,0.64002 -1.64,0.64 l -1.44,0 0,10.64 c -1e-5,0.53334 0.0667,0.96001 0.2,1.28 0.15999,0.32 0.37333,0.57334 0.64,0.76 0.26666,0.18667 0.55999,0.32 0.88,0.4 0.31999,0.08 0.66666,0.13334 1.04,0.16 0.61332,0.0533 1.07999,0.29334 1.4,0.72 0.34666,0.4 0.51999,0.94667 0.52,1.64 -10e-6,0.64 -0.22668,1.16 -0.68,1.56 -0.45334,0.37333 -1.12001,0.56 -2,0.56 -0.93334,0 -1.80001,-0.13333 -2.6,-0.4 -0.8,-0.26667 -1.50667,-0.68 -2.12,-1.24 -0.58667,-0.58667 -1.05334,-1.32 -1.4,-2.2 -0.32,-0.90666 -0.48,-1.97333 -0.48,-3.2 l 0,-10.68 c -0.61333,-0.08 -1.09333,-0.33332 -1.44,-0.76 -0.32,-0.42665 -0.48,-0.93331 -0.48,-1.52 0,-0.63998 0.16,-1.15998 0.48,-1.56 0.34667,-0.42665 0.82667,-0.66665 1.44,-0.72 l 0,-6.76 c 0,-0.71997 0.21333,-1.27997 0.64,-1.68 0.45333,-0.42664 1,-0.63997 1.64,-0.64 0.72,3e-5 1.28,0.21336 1.68,0.64 0.42666,0.40003 0.63999,0.96003 0.64,1.68 l 0,6.72"
         style="font-variant:normal;font-weight:600;font-stretch:normal;font-family:Rimouski;-inkscape-font-specification:Rimouski Semi-Bold"
         id="path3248" />
      <path
         d="m 660.56282,897.02075 c 0.66666,-0.69331 1.47999,-1.23998 2.44,-1.64 0.95999,-0.42664 2.02665,-0.63998 3.2,-0.64 1.43998,2e-5 2.74665,0.26669 3.92,0.8 1.17331,0.50669 2.17331,1.21335 3,2.12 0.82664,0.90669 1.45331,1.98668 1.88,3.24 0.45331,1.22668 0.67997,2.56001 0.68,4 l 0,10.56 c -3e-5,0.72 -0.21336,1.29333 -0.64,1.72 -0.40002,0.4 -0.94669,0.6 -1.64,0.6 -0.66669,0 -1.21336,-0.2 -1.64,-0.6 -0.42669,-0.42667 -0.64002,-1 -0.64,-1.72 l 0,-10.56 c -2e-5,-0.79999 -0.12002,-1.53332 -0.36,-2.2 -0.21335,-0.69332 -0.54669,-1.27998 -1,-1.76 -0.42669,-0.50665 -0.96002,-0.90665 -1.6,-1.2 -0.64002,-0.29332 -1.37335,-0.43998 -2.2,-0.44 -0.80001,2e-5 -1.53335,0.14668 -2.2,0.44 -0.66668,0.29335 -1.24001,0.69335 -1.72,1.2 -0.48001,0.48002 -0.85334,1.06668 -1.12,1.76 -0.24001,0.66668 -0.36001,1.40001 -0.36,2.2 l 0,10.56 c -10e-6,0.72 -0.21334,1.29333 -0.64,1.72 -0.40001,0.4 -0.96001,0.6 -1.68,0.6 -0.64001,0 -1.18667,-0.2 -1.64,-0.6 -0.42667,-0.42667 -0.64001,-1 -0.64,-1.72 l 0,-26.76 c -10e-6,-0.6933 0.21333,-1.23997 0.64,-1.64 0.45333,-0.42664 0.99999,-0.63997 1.64,-0.64 0.71999,3e-5 1.27999,0.21336 1.68,0.64 0.42666,0.40003 0.63999,0.9467 0.64,1.64 l 0,8.32"
         style="font-variant:normal;font-weight:600;font-stretch:normal;font-family:Rimouski;-inkscape-font-specification:Rimouski Semi-Bold"
         id="path3250" />
      <path
         d="m 690.63469,894.74075 c 1.59999,2e-5 3.10665,0.30669 4.52,0.92 1.43998,0.61335 2.69331,1.44002 3.76,2.48 1.06665,1.01335 1.90664,2.21335 2.52,3.6 0.63998,1.36001 0.95998,2.80001 0.96,4.32 -2e-5,0.77334 -0.20002,1.36001 -0.6,1.76 -0.40002,0.40001 -0.96002,0.60001 -1.68,0.6 l -16.24,0 c 0.13333,0.74667 0.41333,1.44001 0.84,2.08 0.42666,0.64001 0.94666,1.20001 1.56,1.68 0.63999,0.45334 1.33332,0.81334 2.08,1.08 0.74666,0.26667 1.50666,0.4 2.28,0.4 0.98665,0 1.89332,-0.17333 2.72,-0.52 0.82665,-0.34666 1.55998,-0.84 2.2,-1.48 0.26665,-0.23999 0.55998,-0.42666 0.88,-0.56 0.31998,-0.15999 0.62665,-0.23999 0.92,-0.24 0.61331,10e-6 1.11998,0.22667 1.52,0.68 0.42665,0.45334 0.63998,0.98667 0.64,1.6 -2e-5,0.32 -0.04,0.62667 -0.12,0.92 -0.08,0.29334 -0.24002,0.56 -0.48,0.8 -1.04002,1.14667 -2.26668,2 -3.68,2.56 -1.41335,0.56 -2.94668,0.84 -4.6,0.84 -1.62668,0 -3.16001,-0.30667 -4.6,-0.92 -1.41334,-0.61333 -2.65334,-1.44 -3.72,-2.48 -1.06667,-1.06666 -1.90667,-2.30666 -2.52,-3.72 -0.61333,-1.43999 -0.92,-2.97332 -0.92,-4.6 0,-1.62665 0.30667,-3.14665 0.92,-4.56 0.61333,-1.43998 1.45333,-2.69332 2.52,-3.76 1.06666,-1.06665 2.30666,-1.90665 3.72,-2.52 1.43999,-0.63998 2.97332,-0.95998 4.6,-0.96 m 0,4.6 c -0.77334,2e-5 -1.53334,0.13335 -2.28,0.4 -0.74668,0.26668 -1.42667,0.64002 -2.04,1.12 -0.58667,0.48002 -1.09334,1.04002 -1.52,1.68 -0.42667,0.64001 -0.72001,1.33335 -0.88,2.08 l 13.44,0 c -0.13335,-0.74665 -0.41335,-1.43999 -0.84,-2.08 -0.42668,-0.63998 -0.94668,-1.19998 -1.56,-1.68 -0.61335,-0.47998 -1.29335,-0.85332 -2.04,-1.12 -0.74668,-0.26665 -1.50668,-0.39998 -2.28,-0.4"
         style="font-variant:normal;font-weight:600;font-stretch:normal;font-family:Rimouski;-inkscape-font-specification:Rimouski Semi-Bold"
         id="path3252" />
      <path
         d="m 716.34907,888.26075 c 0.34666,3e-5 0.69333,0.08 1.04,0.24 0.37332,0.16003 0.66666,0.42669 0.88,0.8 l 4.64,8.64 4.76,-8.64 c 0.21331,-0.37331 0.47998,-0.63997 0.8,-0.8 0.31998,-0.15997 0.65331,-0.23997 1,-0.24 0.58665,3e-5 1.11998,0.20003 1.6,0.6 0.47998,0.37336 0.71998,0.90669 0.72,1.6 -2e-5,0.18669 -0.0267,0.38669 -0.08,0.6 -0.0267,0.18669 -0.10669,0.38669 -0.24,0.6 l -6.04,10.64 6.88,12 c 0.13331,0.21334 0.21331,0.41334 0.24,0.6 0.0266,0.18667 0.04,0.38667 0.04,0.6 -2e-5,0.66667 -0.25336,1.21333 -0.76,1.64 -0.48002,0.42667 -1.01336,0.64 -1.6,0.64 -0.37335,0 -0.73335,-0.0933 -1.08,-0.28 -0.34669,-0.18667 -0.64002,-0.50667 -0.88,-0.96 l -5.36,-9.88 -5.36,9.88 c -0.45334,0.82667 -1.10667,1.24 -1.96,1.24 -0.58667,0 -1.13334,-0.21333 -1.64,-0.64 -0.48,-0.42667 -0.72,-0.97333 -0.72,-1.64 0,-0.4 0.10666,-0.8 0.32,-1.2 l 6.8,-11.88 -6,-10.76 c -0.21334,-0.37331 -0.32,-0.74664 -0.32,-1.12 0,-0.69331 0.22666,-1.23997 0.68,-1.64 0.47999,-0.42664 1.02666,-0.63997 1.64,-0.64"
         style="font-variant:normal;font-weight:600;font-stretch:normal;font-family:Rimouski;-inkscape-font-specification:Rimouski Semi-Bold"
         id="path3254" />
      <path
         d="m 748.96594,895.46075 1.44,0 c 0.69333,2e-5 1.23999,0.21335 1.64,0.64 0.42666,0.40002 0.63999,0.96002 0.64,1.68 -10e-6,0.64002 -0.21334,1.18668 -0.64,1.64 -0.40001,0.42668 -0.94667,0.64002 -1.64,0.64 l -1.44,0 0,10.64 c -1e-5,0.53334 0.0667,0.96001 0.2,1.28 0.15999,0.32 0.37333,0.57334 0.64,0.76 0.26666,0.18667 0.55999,0.32 0.88,0.4 0.31999,0.08 0.66666,0.13334 1.04,0.16 0.61332,0.0533 1.07999,0.29334 1.4,0.72 0.34666,0.4 0.51999,0.94667 0.52,1.64 -10e-6,0.64 -0.22668,1.16 -0.68,1.56 -0.45334,0.37333 -1.12001,0.56 -2,0.56 -0.93334,0 -1.80001,-0.13333 -2.6,-0.4 -0.8,-0.26667 -1.50667,-0.68 -2.12,-1.24 -0.58667,-0.58667 -1.05334,-1.32 -1.4,-2.2 -0.32,-0.90666 -0.48,-1.97333 -0.48,-3.2 l 0,-10.68 c -0.61333,-0.08 -1.09333,-0.33332 -1.44,-0.76 -0.32,-0.42665 -0.48,-0.93331 -0.48,-1.52 0,-0.63998 0.16,-1.15998 0.48,-1.56 0.34667,-0.42665 0.82667,-0.66665 1.44,-0.72 l 0,-6.76 c 0,-0.71997 0.21333,-1.27997 0.64,-1.68 0.45333,-0.42664 1,-0.63997 1.64,-0.64 0.72,3e-5 1.28,0.21336 1.68,0.64 0.42666,0.40003 0.63999,0.96003 0.64,1.68 l 0,6.72"
         style="font-variant:normal;font-weight:600;font-stretch:normal;font-family:Rimouski;-inkscape-font-specification:Rimouski Semi-Bold"
         id="path3256" />
      <path
         d="m 765.63469,899.34075 c -1.01334,2e-5 -1.96001,0.18668 -2.84,0.56 -0.85334,0.37335 -1.60001,0.89335 -2.24,1.56 -0.64001,0.64001 -1.14667,1.40001 -1.52,2.28 -0.37334,0.88001 -0.56,1.81334 -0.56,2.8 0,0.98668 0.18666,1.92001 0.56,2.8 0.37333,0.85334 0.87999,1.60001 1.52,2.24 0.63999,0.64 1.38666,1.14667 2.24,1.52 0.87999,0.37334 1.82666,0.56 2.84,0.56 0.98665,0 1.90665,-0.18666 2.76,-0.56 0.87998,-0.37333 1.63998,-0.88 2.28,-1.52 0.66665,-0.63999 1.18665,-1.38666 1.56,-2.24 0.37331,-0.87999 0.55998,-1.81332 0.56,-2.8 -2e-5,-0.98666 -0.18669,-1.91999 -0.56,-2.8 -0.37335,-0.87999 -0.89335,-1.63999 -1.56,-2.28 -0.64002,-0.66665 -1.40002,-1.18665 -2.28,-1.56 -0.85335,-0.37332 -1.77335,-0.55998 -2.76,-0.56 m 0,-4.6 c 1.62665,2e-5 3.14665,0.32002 4.56,0.96 1.43998,0.61335 2.69331,1.45335 3.76,2.52 1.06665,1.06668 1.90664,2.32002 2.52,3.76 0.61331,1.41335 0.91998,2.93335 0.92,4.56 -2e-5,1.62668 -0.30669,3.16001 -0.92,4.6 -0.61336,1.41334 -1.45335,2.65334 -2.52,3.72 -1.06669,1.04 -2.32002,1.86667 -3.76,2.48 -1.41335,0.61333 -2.93335,0.92 -4.56,0.92 -1.62668,0 -3.16001,-0.30667 -4.6,-0.92 -1.41334,-0.61333 -2.65334,-1.44 -3.72,-2.48 -1.06667,-1.06666 -1.90667,-2.30666 -2.52,-3.72 -0.61333,-1.43999 -0.92,-2.97332 -0.92,-4.6 0,-1.62665 0.30667,-3.14665 0.92,-4.56 0.61333,-1.43998 1.45333,-2.69332 2.52,-3.76 1.06666,-1.06665 2.30666,-1.90665 3.72,-2.52 1.43999,-0.63998 2.97332,-0.95998 4.6,-0.96"
         style="font-variant:normal;font-weight:600;font-stretch:normal;font-family:Rimouski;-inkscape-font-specification:Rimouski Semi-Bold"
         id="path3258" />
      <path
         d="m 794.50907,897.62075 c 0.71999,-0.87998 1.65332,-1.57331 2.8,-2.08 1.14665,-0.53331 2.47998,-0.79998 4,-0.8 1.51998,2e-5 2.98665,0.29336 4.4,0.88 1.43998,0.58669 2.70664,1.41335 3.8,2.48 1.09331,1.04002 1.95997,2.28002 2.6,3.72 0.66664,1.44001 0.99997,3.01335 1,4.72 -3e-5,1.68001 -0.33336,3.24001 -1,4.68 -0.64003,1.44 -1.50669,2.68 -2.6,3.72 -1.09336,1.04 -2.36002,1.85333 -3.8,2.44 -1.41335,0.58667 -2.88002,0.88 -4.4,0.88 -0.72002,0 -1.42668,-0.0933 -2.12,-0.28 -0.66668,-0.16 -1.30668,-0.37333 -1.92,-0.64 -0.58668,-0.29333 -1.13335,-0.62667 -1.64,-1 -0.50668,-0.37333 -0.93334,-0.76 -1.28,-1.16 -0.08,0.77333 -0.29334,1.4 -0.64,1.88 -0.32001,0.48 -0.94668,0.72 -1.88,0.72 -0.56001,0 -1.02667,-0.18667 -1.4,-0.56 -0.37334,-0.37333 -0.56001,-0.86667 -0.56,-1.48 l 0,-27.04 c -10e-6,-0.6933 0.21333,-1.23997 0.64,-1.64 0.45333,-0.42664 1.01333,-0.63997 1.68,-0.64 0.71999,3e-5 1.27999,0.21336 1.68,0.64 0.42666,0.40003 0.63999,0.9467 0.64,1.64 l 0,8.92 m 6.8,1.72 c -0.96002,2e-5 -1.85335,0.18668 -2.68,0.56 -0.82668,0.37335 -1.54668,0.89335 -2.16,1.56 -0.61335,0.64001 -1.09334,1.40001 -1.44,2.28 -0.34668,0.88001 -0.52001,1.81334 -0.52,2.8 -10e-6,0.98668 0.17332,1.92001 0.52,2.8 0.34666,0.85334 0.82665,1.60001 1.44,2.24 0.61332,0.64 1.33332,1.14667 2.16,1.52 0.82665,0.37334 1.71998,0.56 2.68,0.56 0.98665,0 1.91998,-0.18666 2.8,-0.56 0.87998,-0.37333 1.63998,-0.88 2.28,-1.52 0.63998,-0.63999 1.14664,-1.38666 1.52,-2.24 0.37331,-0.87999 0.55998,-1.81332 0.56,-2.8 -2e-5,-0.98666 -0.18669,-1.91999 -0.56,-2.8 -0.37336,-0.87999 -0.88002,-1.63999 -1.52,-2.28 -0.64002,-0.66665 -1.40002,-1.18665 -2.28,-1.56 -0.88002,-0.37332 -1.81335,-0.55998 -2.8,-0.56"
         style="font-variant:normal;font-weight:600;font-stretch:normal;font-family:Rimouski;-inkscape-font-specification:Rimouski Semi-Bold"
         id="path3260" />
      <path
         d="m 827.11907,894.74075 c 1.59998,2e-5 3.10665,0.30669 4.52,0.92 1.43998,0.61335 2.69331,1.44002 3.76,2.48 1.06664,1.01335 1.90664,2.21335 2.52,3.6 0.63997,1.36001 0.95997,2.80001 0.96,4.32 -3e-5,0.77334 -0.20003,1.36001 -0.6,1.76 -0.40003,0.40001 -0.96003,0.60001 -1.68,0.6 l -16.24,0 c 0.13332,0.74667 0.41332,1.44001 0.84,2.08 0.42666,0.64001 0.94665,1.20001 1.56,1.68 0.63999,0.45334 1.33332,0.81334 2.08,1.08 0.74665,0.26667 1.50665,0.4 2.28,0.4 0.98665,0 1.89331,-0.17333 2.72,-0.52 0.82665,-0.34666 1.55998,-0.84 2.2,-1.48 0.26664,-0.23999 0.55998,-0.42666 0.88,-0.56 0.31998,-0.15999 0.62664,-0.23999 0.92,-0.24 0.61331,10e-6 1.11998,0.22667 1.52,0.68 0.42664,0.45334 0.63997,0.98667 0.64,1.6 -3e-5,0.32 -0.04,0.62667 -0.12,0.92 -0.08,0.29334 -0.24003,0.56 -0.48,0.8 -1.04002,1.14667 -2.26669,2 -3.68,2.56 -1.41335,0.56 -2.94669,0.84 -4.6,0.84 -1.62668,0 -3.16001,-0.30667 -4.6,-0.92 -1.41334,-0.61333 -2.65334,-1.44 -3.72,-2.48 -1.06667,-1.06666 -1.90667,-2.30666 -2.52,-3.72 -0.61334,-1.43999 -0.92,-2.97332 -0.92,-4.6 0,-1.62665 0.30666,-3.14665 0.92,-4.56 0.61333,-1.43998 1.45333,-2.69332 2.52,-3.76 1.06666,-1.06665 2.30666,-1.90665 3.72,-2.52 1.43999,-0.63998 2.97332,-0.95998 4.6,-0.96 m 0,4.6 c -0.77335,2e-5 -1.53335,0.13335 -2.28,0.4 -0.74668,0.26668 -1.42668,0.64002 -2.04,1.12 -0.58668,0.48002 -1.09334,1.04002 -1.52,1.68 -0.42668,0.64001 -0.72001,1.33335 -0.88,2.08 l 13.44,0 c -0.13336,-0.74665 -0.41336,-1.43999 -0.84,-2.08 -0.42669,-0.63998 -0.94669,-1.19998 -1.56,-1.68 -0.61335,-0.47998 -1.29335,-0.85332 -2.04,-1.12 -0.74668,-0.26665 -1.50668,-0.39998 -2.28,-0.4"
         style="font-variant:normal;font-weight:600;font-stretch:normal;font-family:Rimouski;-inkscape-font-specification:Rimouski Semi-Bold"
         id="path3262" />
      <path
         d="m 852.97844,894.74075 c 0.71999,2e-5 1.41332,0.0934 2.08,0.28 0.69332,0.16002 1.33332,0.38669 1.92,0.68 0.61332,0.29335 1.17332,0.62669 1.68,1 0.50665,0.37335 0.94665,0.76002 1.32,1.16 0.0533,-0.87998 0.26665,-1.53331 0.64,-1.96 0.37331,-0.42665 0.98665,-0.63998 1.84,-0.64 0.55998,2e-5 1.02664,0.18669 1.4,0.56 0.37331,0.34669 0.55998,0.82669 0.56,1.44 l 0,18.84 c -2e-5,1.46667 -0.22669,2.89333 -0.68,4.28 -0.42669,1.41333 -1.12002,2.66666 -2.08,3.76 -0.96002,1.11999 -2.18668,2.01332 -3.68,2.68 -1.46668,0.66666 -3.24001,0.99999 -5.32,1 -0.82668,-10e-6 -1.45334,-0.21334 -1.88,-0.64 -0.40001,-0.40001 -0.60001,-0.96001 -0.6,-1.68 -10e-6,-0.69334 0.19999,-1.25334 0.6,-1.68 0.42666,-0.42667 0.99999,-0.64001 1.72,-0.64 1.38665,-10e-6 2.54665,-0.21334 3.48,-0.64 0.93332,-0.40001 1.67998,-0.94667 2.24,-1.64 0.55998,-0.69334 0.94665,-1.52 1.16,-2.48 0.23998,-0.93333 0.35998,-1.93333 0.36,-3 -0.69335,0.90667 -1.60002,1.61333 -2.72,2.12 -1.12001,0.48 -2.46668,0.72 -4.04,0.72 -1.52001,0 -3.00001,-0.30667 -4.44,-0.92 -1.41334,-0.61333 -2.66667,-1.45333 -3.76,-2.52 -1.06667,-1.06666 -1.93333,-2.30666 -2.6,-3.72 -0.64,-1.43999 -0.96,-2.97332 -0.96,-4.6 0,-1.62665 0.32,-3.14665 0.96,-4.56 0.66667,-1.43998 1.53333,-2.69332 2.6,-3.76 1.09333,-1.06665 2.34666,-1.90665 3.76,-2.52 1.43999,-0.61331 2.91999,-0.91998 4.44,-0.92 m 0,18.92 c 0.95999,0 1.85332,-0.18666 2.68,-0.56 0.85332,-0.37333 1.57332,-0.88 2.16,-1.52 0.61332,-0.66666 1.09332,-1.42666 1.44,-2.28 0.34665,-0.87999 0.51998,-1.81332 0.52,-2.8 -2e-5,-0.98666 -0.17335,-1.90665 -0.52,-2.76 -0.34668,-0.87999 -0.82668,-1.63999 -1.44,-2.28 -0.58668,-0.66665 -1.30668,-1.18665 -2.16,-1.56 -0.82668,-0.37332 -1.72001,-0.55998 -2.68,-0.56 -1.01334,2e-5 -1.96001,0.18668 -2.84,0.56 -0.85334,0.37335 -1.60001,0.89335 -2.24,1.56 -0.64001,0.64001 -1.14667,1.40001 -1.52,2.28 -0.37334,0.85335 -0.56,1.77334 -0.56,2.76 0,0.98668 0.18666,1.92001 0.56,2.8 0.37333,0.85334 0.87999,1.61334 1.52,2.28 0.63999,0.64 1.38666,1.14667 2.24,1.52 0.87999,0.37334 1.82666,0.56 2.84,0.56"
         style="font-variant:normal;font-weight:600;font-stretch:normal;font-family:Rimouski;-inkscape-font-specification:Rimouski Semi-Bold"
         id="path3264" />
      <path
         d="m 872.82844,891.90075 c -10e-6,0.69336 -0.21334,1.25336 -0.64,1.68 -0.4,0.40002 -0.96,0.60002 -1.68,0.6 -0.64,2e-5 -1.18667,-0.19998 -1.64,-0.6 -0.42667,-0.42664 -0.64,-0.98664 -0.64,-1.68 l 0,-3.2 c 0,-0.6933 0.21333,-1.23997 0.64,-1.64 0.45333,-0.42664 1,-0.63997 1.64,-0.64 0.72,3e-5 1.28,0.21336 1.68,0.64 0.42666,0.40003 0.63999,0.9467 0.64,1.64 l 0,3.2 m 0,23.56 c -10e-6,0.72 -0.21334,1.29333 -0.64,1.72 -0.4,0.4 -0.96,0.6 -1.68,0.6 -0.64,0 -1.18667,-0.2 -1.64,-0.6 -0.42667,-0.42667 -0.64,-1 -0.64,-1.72 l 0,-17.12 c 0,-0.66665 0.21333,-1.21331 0.64,-1.64 0.45333,-0.42665 1,-0.63998 1.64,-0.64 0.72,2e-5 1.28,0.21335 1.68,0.64 0.42666,0.42669 0.63999,0.97335 0.64,1.64 l 0,17.12"
         style="font-variant:normal;font-weight:600;font-stretch:normal;font-family:Rimouski;-inkscape-font-specification:Rimouski Semi-Bold"
         id="path3266" />
      <path
         d="m 878.70407,895.26075 c 1.30666,2e-5 2.07999,0.66669 2.32,2 0.69332,-0.77331 1.54666,-1.38665 2.56,-1.84 1.01332,-0.45331 2.14665,-0.67998 3.4,-0.68 1.43998,2e-5 2.74665,0.26669 3.92,0.8 1.17331,0.50669 2.17331,1.21335 3,2.12 0.82664,0.90669 1.45331,1.98668 1.88,3.24 0.45331,1.22668 0.67997,2.56001 0.68,4 l 0,10.6 c -3e-5,0.72 -0.21336,1.28 -0.64,1.68 -0.40002,0.4 -0.94669,0.6 -1.64,0.6 -0.66669,0 -1.21336,-0.2 -1.64,-0.6 -0.42669,-0.4 -0.64002,-0.96 -0.64,-1.68 l 0,-10.6 c -2e-5,-0.77332 -0.12002,-1.49332 -0.36,-2.16 -0.24002,-0.69332 -0.58669,-1.29332 -1.04,-1.8 -0.42669,-0.50665 -0.96002,-0.90665 -1.6,-1.2 -0.64002,-0.29332 -1.36002,-0.43998 -2.16,-0.44 -0.80001,2e-5 -1.53335,0.14668 -2.2,0.44 -0.66668,0.29335 -1.24001,0.69335 -1.72,1.2 -0.48001,0.48002 -0.85334,1.06668 -1.12,1.76 -0.24001,0.66668 -0.36001,1.40001 -0.36,2.2 l 0,10.6 c -10e-6,0.72 -0.21334,1.28 -0.64,1.68 -0.40001,0.4 -0.96001,0.6 -1.68,0.6 -0.64001,0 -1.18667,-0.2 -1.64,-0.6 -0.42667,-0.4 -0.64001,-0.96 -0.64,-1.68 l 0,-18.24 c -10e-6,-0.61331 0.18666,-1.09331 0.56,-1.44 0.39999,-0.37331 0.86666,-0.55998 1.4,-0.56"
         style="font-variant:normal;font-weight:600;font-stretch:normal;font-family:Rimouski;-inkscape-font-specification:Rimouski Semi-Bold"
         id="path3268" />
    </g>
  </g>
</svg>
