<?xml version="1.0" encoding="UTF-8" standalone="no"?>
<!-- Created with Inkscape (http://www.inkscape.org/) -->

<svg
   xmlns:dc="http://purl.org/dc/elements/1.1/"
   xmlns:cc="http://creativecommons.org/ns#"
   xmlns:rdf="http://www.w3.org/1999/02/22-rdf-syntax-ns#"
   xmlns:svg="http://www.w3.org/2000/svg"
   xmlns="http://www.w3.org/2000/svg"
   xmlns:sodipodi="http://sodipodi.sourceforge.net/DTD/sodipodi-0.dtd"
   xmlns:inkscape="http://www.inkscape.org/namespaces/inkscape"
   width="1366"
   height="768"
   id="svg2"
   version="1.1"
   inkscape:version="0.48.5 r10040"
   sodipodi:docname="EVENT3_hello.svg">
  <defs
     id="defs4" />
  <sodipodi:namedview
     id="base"
     pagecolor="#ffffff"
     bordercolor="#666666"
     borderopacity="1.0"
     inkscape:pageopacity="0.0"
     inkscape:pageshadow="2"
     inkscape:zoom="0.49497475"
     inkscape:cx="777.36551"
     inkscape:cy="365.89773"
     inkscape:document-units="px"
     inkscape:current-layer="layer1"
     showgrid="false"
     inkscape:window-width="1680"
     inkscape:window-height="1001"
     inkscape:window-x="25"
     inkscape:window-y="0"
     inkscape:window-maximized="0" />
  <metadata
     id="metadata7">
    <rdf:RDF>
      <cc:Work
         rdf:about="">
        <dc:format>image/svg+xml</dc:format>
        <dc:type
           rdf:resource="http://purl.org/dc/dcmitype/StillImage" />
        <dc:title></dc:title>
      </cc:Work>
    </rdf:RDF>
  </metadata>
  <g
     inkscape:label="Layer 1"
     inkscape:groupmode="layer"
     id="layer1"
     transform="translate(0,-284.36218)">
    <g
       style="font-size:40px;font-style:normal;font-weight:normal;line-height:125%;letter-spacing:0px;word-spacing:0px;fill:#000000;fill-opacity:1;stroke:none;font-family:Sans"
       id="text4326">
      <path
         d="m 486.45049,598.50621 c 2.13331,4e-5 4.09598,0.40538 5.888,1.216 1.83464,0.81071 3.39197,1.89871 4.672,3.264 1.32263,1.3227 2.34663,2.8587 3.072,4.608 0.76796,1.7067 1.15196,3.47736 1.152,5.312 -4e-5,2.94402 -0.83203,5.58936 -2.496,7.936 -1.62136,2.30402 -3.98936,3.92535 -7.104,4.864 l 7.872,14.08 c 0.38397,0.768 0.57597,1.472 0.576,2.112 -3e-5,1.024 -0.38403,1.87733 -1.152,2.56 -0.72537,0.64 -1.55737,0.96 -2.496,0.96 -0.6827,0 -1.30136,-0.14934 -1.856,-0.448 -0.5547,-0.29867 -1.04536,-0.832 -1.472,-1.6 l -8.896,-15.936 -3.968,0 0,14.272 c -10e-6,1.152 -0.34135,2.06933 -1.024,2.752 -0.64001,0.64 -1.53601,0.96 -2.688,0.96 -1.02401,0 -1.89868,-0.32 -2.624,-0.96 -0.68267,-0.68267 -1.02401,-1.6 -1.024,-2.752 l 0,-39.552 c -1e-5,-1.10929 0.34133,-1.98396 1.024,-2.624 0.72532,-0.68262 1.59999,-1.02396 2.624,-1.024 l 9.92,0 m -6.208,21.568 6.208,0 c 1.02398,2e-5 1.98398,-0.19198 2.88,-0.576 0.93864,-0.42665 1.72797,-0.95998 2.368,-1.6 0.68264,-0.68264 1.21597,-1.45064 1.6,-2.304 0.38397,-0.85331 0.57597,-1.74931 0.576,-2.688 -3e-5,-0.89597 -0.19203,-1.77064 -0.576,-2.624 -0.38403,-0.8533 -0.91736,-1.59997 -1.6,-2.24 -0.64003,-0.63997 -1.42936,-1.15197 -2.368,-1.536 -0.89602,-0.42663 -1.85602,-0.63997 -2.88,-0.64 l -6.208,0 0,14.208"
         style="font-size:64px;font-variant:normal;font-weight:600;font-stretch:normal;text-align:center;text-anchor:middle;fill:#000000;font-family:Rimouski;-inkscape-font-specification:Rimouski Semi-Bold"
         id="path3034" />
      <path
         d="m 522.10749,608.55421 c 2.55997,3e-5 4.97064,0.4907 7.232,1.472 2.30397,0.98136 4.3093,2.30403 6.016,3.968 1.70663,1.62136 3.05063,3.54136 4.032,5.76 1.02396,2.17602 1.53596,4.48002 1.536,6.912 -4e-5,1.23735 -0.32004,2.17601 -0.96,2.816 -0.64004,0.64001 -1.53604,0.96001 -2.688,0.96 l -25.984,0 c 0.21332,1.19468 0.66132,2.30401 1.344,3.328 0.68265,1.02401 1.51465,1.92 2.496,2.688 1.02398,0.72534 2.13331,1.30134 3.328,1.728 1.19464,0.42667 2.41064,0.64 3.648,0.64 1.57864,0 3.02931,-0.27733 4.352,-0.832 1.32264,-0.55466 2.49597,-1.344 3.52,-2.368 0.42663,-0.38399 0.89597,-0.68266 1.408,-0.896 0.51197,-0.25599 1.00263,-0.38399 1.472,-0.384 0.9813,10e-6 1.79196,0.36267 2.432,1.088 0.68263,0.72534 1.02396,1.57867 1.024,2.56 -4e-5,0.512 -0.064,1.00267 -0.192,1.472 -0.12804,0.46933 -0.38404,0.896 -0.768,1.28 -1.66404,1.83466 -3.6267,3.2 -5.888,4.096 -2.26136,0.89599 -4.71469,1.34399 -7.36,1.344 -2.60269,-10e-6 -5.05602,-0.49067 -7.36,-1.472 -2.26135,-0.98134 -4.24535,-2.304 -5.952,-3.968 -1.70668,-1.70667 -3.05068,-3.69066 -4.032,-5.952 -0.98134,-2.30399 -1.47201,-4.75732 -1.472,-7.36 -1e-5,-2.60265 0.49066,-5.03465 1.472,-7.296 0.98132,-2.30398 2.32532,-4.30931 4.032,-6.016 1.70665,-1.70664 3.69065,-3.05064 5.952,-4.032 2.30398,-1.02397 4.75731,-1.53597 7.36,-1.536 m 0,7.36 c -1.23736,2e-5 -2.45336,0.21336 -3.648,0.64 -1.19469,0.42669 -2.28269,1.02402 -3.264,1.792 -0.93868,0.76802 -1.74935,1.66402 -2.432,2.688 -0.68268,1.02402 -1.15201,2.13335 -1.408,3.328 l 21.504,0 c -0.21337,-1.19465 -0.66137,-2.30398 -1.344,-3.328 -0.6827,-1.02398 -1.5147,-1.91998 -2.496,-2.688 -0.98136,-0.76798 -2.06936,-1.36531 -3.264,-1.792 -1.19469,-0.42664 -2.41069,-0.63998 -3.648,-0.64"
         style="font-size:64px;font-variant:normal;font-weight:600;font-stretch:normal;text-align:center;text-anchor:middle;fill:#000000;font-family:Rimouski;-inkscape-font-specification:Rimouski Semi-Bold"
         id="path3036" />
      <path
         d="m 581.78649,641.70621 c -4e-5,1.152 -0.34138,2.06933 -1.024,2.752 -0.64004,0.64 -1.53604,0.96 -2.688,0.96 -1.02404,0 -1.8987,-0.32 -2.624,-0.96 -0.6827,-0.68267 -1.02404,-1.6 -1.024,-2.752 l 0,-0.192 c -0.59737,0.59733 -1.30137,1.19466 -2.112,1.792 -0.76803,0.55466 -1.6427,1.04533 -2.624,1.472 -0.9387,0.42666 -1.94136,0.768 -3.008,1.024 -1.06669,0.25599 -2.13336,0.38399 -3.2,0.384 -2.73069,-10e-6 -5.24802,-0.49067 -7.552,-1.472 -2.30401,-0.98134 -4.28801,-2.304 -5.952,-3.968 -1.66401,-1.70667 -2.96534,-3.69066 -3.904,-5.952 -0.93867,-2.30399 -1.40801,-4.75732 -1.408,-7.36 -10e-6,-2.60265 0.46933,-5.03465 1.408,-7.296 0.93866,-2.30398 2.23999,-4.30931 3.904,-6.016 1.70665,-1.70664 3.71198,-3.05064 6.016,-4.032 2.30398,-1.02397 4.79998,-1.53597 7.488,-1.536 2.38931,3e-5 4.5013,0.40537 6.336,1.216 1.83463,0.8107 3.37063,1.8987 4.608,3.264 -4e-5,-1.1093 0.3413,-1.98397 1.024,-2.624 0.7253,-0.68264 1.59996,-1.02397 2.624,-1.024 1.15196,3e-5 2.04796,0.34136 2.688,1.024 0.68262,0.64003 1.02396,1.5147 1.024,2.624 l 0,28.672 m -18.304,-25.792 c -1.62136,2e-5 -3.13602,0.29869 -4.544,0.896 -1.36535,0.59736 -2.56002,1.42936 -3.584,2.496 -1.02402,1.02402 -1.83468,2.24002 -2.432,3.648 -0.59735,1.40802 -0.89601,2.90135 -0.896,4.48 -10e-6,1.57868 0.29865,3.07201 0.896,4.48 0.59732,1.36534 1.40798,2.56001 2.432,3.584 1.02398,1.024 2.21865,1.83467 3.584,2.432 1.40798,0.59734 2.92264,0.896 4.544,0.896 1.53597,0 2.96531,-0.29866 4.288,-0.896 1.3653,-0.59733 2.5173,-1.408 3.456,-2.432 0.9813,-1.02399 1.7493,-2.21866 2.304,-3.584 0.55463,-1.40799 0.83196,-2.90132 0.832,-4.48 -4e-5,-1.57865 -0.27737,-3.07198 -0.832,-4.48 -0.5547,-1.40798 -1.3227,-2.62398 -2.304,-3.648 -0.9387,-1.06664 -2.0907,-1.89864 -3.456,-2.496 -1.32269,-0.59731 -2.75203,-0.89598 -4.288,-0.896"
         style="font-size:64px;font-variant:normal;font-weight:600;font-stretch:normal;text-align:center;text-anchor:middle;fill:#000000;font-family:Rimouski;-inkscape-font-specification:Rimouski Semi-Bold"
         id="path3038" />
      <path
         d="m 605.48249,615.91421 c -1.62136,2e-5 -3.13602,0.29869 -4.544,0.896 -1.36535,0.59736 -2.56002,1.42936 -3.584,2.496 -1.02402,1.02402 -1.83468,2.24002 -2.432,3.648 -0.59735,1.40802 -0.89601,2.90135 -0.896,4.48 -10e-6,1.57868 0.29865,3.07201 0.896,4.48 0.59732,1.36534 1.40798,2.56001 2.432,3.584 1.02398,1.024 2.21865,1.83467 3.584,2.432 1.40798,0.59734 2.92264,0.896 4.544,0.896 1.53597,0 2.96531,-0.29866 4.288,-0.896 1.3653,-0.59733 2.5173,-1.408 3.456,-2.432 0.9813,-1.02399 1.7493,-2.21866 2.304,-3.584 0.55463,-1.40799 0.83196,-2.90132 0.832,-4.48 -4e-5,-1.57865 -0.27737,-3.07198 -0.832,-4.48 -0.5547,-1.40798 -1.3227,-2.62398 -2.304,-3.648 -0.9387,-1.06664 -2.0907,-1.89864 -3.456,-2.496 -1.32269,-0.59731 -2.75203,-0.89598 -4.288,-0.896 m 10.88,-17.024 c -4e-5,-1.10929 0.31996,-1.98396 0.96,-2.624 0.68263,-0.68262 1.59996,-1.02395 2.752,-1.024 1.10929,5e-5 2.00529,0.34138 2.688,1.024 0.68262,0.64004 1.02396,1.51471 1.024,2.624 l 0,43.264 c -4e-5,0.98133 -0.29871,1.77066 -0.896,2.368 -0.55471,0.59733 -1.28004,0.896 -2.176,0.896 -1.06671,0 -1.98404,-0.32 -2.752,-0.96 -0.72537,-0.64 -1.17337,-1.70667 -1.344,-3.2 -0.5547,0.64 -1.23737,1.25866 -2.048,1.856 -0.8107,0.59733 -1.7067,1.13066 -2.688,1.6 -0.98136,0.42666 -2.0267,0.768 -3.136,1.024 -1.06669,0.29866 -2.15469,0.44799 -3.264,0.448 -2.43202,-10e-6 -4.80002,-0.49067 -7.104,-1.472 -2.26135,-0.98134 -4.26668,-2.304 -6.016,-3.968 -1.70668,-1.70667 -3.09334,-3.69066 -4.16,-5.952 -1.02401,-2.30399 -1.53601,-4.75732 -1.536,-7.36 -10e-6,-2.60265 0.51199,-5.03465 1.536,-7.296 1.06666,-2.30398 2.45332,-4.30931 4.16,-6.016 1.74932,-1.70664 3.75465,-3.05064 6.016,-4.032 2.30398,-1.02397 4.67198,-1.53597 7.104,-1.536 2.43197,3e-5 4.5653,0.4267 6.4,1.28 1.83463,0.8107 3.32797,1.92003 4.48,3.328 l 0,-14.272"
         style="font-size:64px;font-variant:normal;font-weight:600;font-stretch:normal;text-align:center;text-anchor:middle;fill:#000000;font-family:Rimouski;-inkscape-font-specification:Rimouski Semi-Bold"
         id="path3040" />
      <path
         d="m 648.44249,611.88221 c 0.29864,-0.8533 0.74664,-1.47197 1.344,-1.856 0.63997,-0.42664 1.34397,-0.63997 2.112,-0.64 1.02397,3e-5 1.89864,0.34136 2.624,1.024 0.7253,0.6827 1.08797,1.5787 1.088,2.688 -3e-5,0.55469 -0.0854,1.06669 -0.256,1.536 l -16.384,44.288 c -0.34135,0.89598 -0.83202,1.53598 -1.472,1.92 -0.59735,0.42665 -1.25868,0.63998 -1.984,0.64 -0.93868,-2e-5 -1.79201,-0.34135 -2.56,-1.024 -0.76801,-0.68269 -1.15201,-1.55735 -1.152,-2.624 -1e-5,-0.42668 0.0853,-0.87468 0.256,-1.344 l 5.504,-14.4 -9.984,-27.392 c -0.0853,-0.29864 -0.17067,-0.55464 -0.256,-0.768 -0.0427,-0.25597 -0.064,-0.53331 -0.064,-0.832 0,-1.1093 0.36266,-2.0053 1.088,-2.688 0.76799,-0.68264 1.66399,-1.02397 2.688,-1.024 0.76799,3e-5 1.45066,0.21336 2.048,0.64 0.63999,0.38403 1.10932,1.0027 1.408,1.856 l 7.04,20.032 6.912,-20.032"
         style="font-size:64px;font-variant:normal;font-weight:600;font-stretch:normal;text-align:center;text-anchor:middle;fill:#000000;font-family:Rimouski;-inkscape-font-specification:Rimouski Semi-Bold"
         id="path3042" />
      <path
         d="m 681.93749,609.70621 2.304,0 c 1.10932,3e-5 1.98398,0.34136 2.624,1.024 0.68265,0.64003 1.02398,1.53603 1.024,2.688 -2e-5,1.02403 -0.34135,1.89869 -1.024,2.624 -0.64002,0.68269 -1.51468,1.02402 -2.624,1.024 l -2.304,0 0,17.024 c -10e-6,0.85334 0.10665,1.53601 0.32,2.048 0.25598,0.512 0.59732,0.91734 1.024,1.216 0.42665,0.29867 0.89598,0.512 1.408,0.64 0.51198,0.128 1.06665,0.21334 1.664,0.256 0.98131,0.0853 1.72798,0.46934 2.24,1.152 0.55464,0.64 0.83198,1.51467 0.832,2.624 -2e-5,1.024 -0.36269,1.856 -1.088,2.496 -0.72535,0.59733 -1.79202,0.896 -3.2,0.896 -1.49335,0 -2.88002,-0.21334 -4.16,-0.64 -1.28001,-0.42667 -2.41068,-1.088 -3.392,-1.984 -0.93868,-0.93867 -1.68534,-2.112 -2.24,-3.52 -0.51201,-1.45066 -0.76801,-3.15733 -0.768,-5.12 l 0,-17.088 c -0.98134,-0.12798 -1.74934,-0.53331 -2.304,-1.216 -0.512,-0.68264 -0.768,-1.49331 -0.768,-2.432 0,-1.02397 0.256,-1.85597 0.768,-2.496 0.55466,-0.68264 1.32266,-1.06664 2.304,-1.152 l 0,-10.816 c -10e-6,-1.15196 0.34133,-2.04796 1.024,-2.688 0.72532,-0.68262 1.59999,-1.02395 2.624,-1.024 1.15199,5e-5 2.04799,0.34138 2.688,1.024 0.68265,0.64004 1.02399,1.53604 1.024,2.688 l 0,10.752"
         style="font-size:64px;font-variant:normal;font-weight:600;font-stretch:normal;text-align:center;text-anchor:middle;fill:#000000;font-family:Rimouski;-inkscape-font-specification:Rimouski Semi-Bold"
         id="path3044" />
      <path
         d="m 708.60749,615.91421 c -1.62136,2e-5 -3.13602,0.29869 -4.544,0.896 -1.36535,0.59736 -2.56002,1.42936 -3.584,2.496 -1.02402,1.02402 -1.83468,2.24002 -2.432,3.648 -0.59735,1.40802 -0.89601,2.90135 -0.896,4.48 -10e-6,1.57868 0.29865,3.07201 0.896,4.48 0.59732,1.36534 1.40798,2.56001 2.432,3.584 1.02398,1.024 2.21865,1.83467 3.584,2.432 1.40798,0.59734 2.92264,0.896 4.544,0.896 1.57864,0 3.05064,-0.29866 4.416,-0.896 1.40797,-0.59733 2.62397,-1.408 3.648,-2.432 1.06663,-1.02399 1.89863,-2.21866 2.496,-3.584 0.5973,-1.40799 0.89596,-2.90132 0.896,-4.48 -4e-5,-1.57865 -0.2987,-3.07198 -0.896,-4.48 -0.59737,-1.40798 -1.42937,-2.62398 -2.496,-3.648 -1.02403,-1.06664 -2.24003,-1.89864 -3.648,-2.496 -1.36536,-0.59731 -2.83736,-0.89598 -4.416,-0.896 m 0,-7.36 c 2.60264,3e-5 5.03464,0.51203 7.296,1.536 2.30397,0.98136 4.3093,2.32536 6.016,4.032 1.70663,1.70669 3.05063,3.71202 4.032,6.016 0.98129,2.26135 1.47196,4.69335 1.472,7.296 -4e-5,2.60268 -0.49071,5.05601 -1.472,7.36 -0.98137,2.26134 -2.32537,4.24533 -4.032,5.952 -1.7067,1.664 -3.71203,2.98666 -6.016,3.968 -2.26136,0.98133 -4.69336,1.47199 -7.296,1.472 -2.60269,-10e-6 -5.05602,-0.49067 -7.36,-1.472 -2.26135,-0.98134 -4.24535,-2.304 -5.952,-3.968 -1.70668,-1.70667 -3.05068,-3.69066 -4.032,-5.952 -0.98134,-2.30399 -1.47201,-4.75732 -1.472,-7.36 -10e-6,-2.60265 0.49066,-5.03465 1.472,-7.296 0.98132,-2.30398 2.32532,-4.30931 4.032,-6.016 1.70665,-1.70664 3.69065,-3.05064 5.952,-4.032 2.30398,-1.02397 4.75731,-1.53597 7.36,-1.536"
         style="font-size:64px;font-variant:normal;font-weight:600;font-stretch:normal;text-align:center;text-anchor:middle;fill:#000000;font-family:Rimouski;-inkscape-font-specification:Rimouski Semi-Bold"
         id="path3046" />
      <path
         d="m 765.94249,611.88221 c 0.55464,-1.66397 1.70664,-2.49597 3.456,-2.496 0.93864,3e-5 1.79197,0.34136 2.56,1.024 0.76797,0.6827 1.15197,1.5787 1.152,2.688 -3e-5,0.51203 -0.0854,1.02403 -0.256,1.536 l -10.432,28.224 c -0.29869,0.81066 -0.76802,1.45066 -1.408,1.92 -0.59735,0.42666 -1.25869,0.64 -1.984,0.64 -0.72535,0 -1.40802,-0.21334 -2.048,-0.64 -0.59735,-0.42667 -1.06668,-1.06667 -1.408,-1.92 l -10.432,-28.096 c -0.256,-0.55464 -0.384,-1.10931 -0.384,-1.664 0,-1.1093 0.384,-2.0053 1.152,-2.688 0.81066,-0.68264 1.68533,-1.02397 2.624,-1.024 0.93866,3e-5 1.66399,0.21336 2.176,0.64 0.51199,0.38403 0.93866,1.0027 1.28,1.856 l 7.04,19.52 6.912,-19.52"
         style="font-size:64px;font-variant:normal;font-weight:600;font-stretch:normal;text-align:center;text-anchor:middle;fill:#000000;font-family:Rimouski;-inkscape-font-specification:Rimouski Semi-Bold"
         id="path3048" />
      <path
         d="m 792.85749,615.91421 c -1.62136,2e-5 -3.13602,0.29869 -4.544,0.896 -1.36535,0.59736 -2.56002,1.42936 -3.584,2.496 -1.02402,1.02402 -1.83468,2.24002 -2.432,3.648 -0.59735,1.40802 -0.89601,2.90135 -0.896,4.48 -10e-6,1.57868 0.29865,3.07201 0.896,4.48 0.59732,1.36534 1.40798,2.56001 2.432,3.584 1.02398,1.024 2.21865,1.83467 3.584,2.432 1.40798,0.59734 2.92264,0.896 4.544,0.896 1.57864,0 3.05064,-0.29866 4.416,-0.896 1.40797,-0.59733 2.62397,-1.408 3.648,-2.432 1.06663,-1.02399 1.89863,-2.21866 2.496,-3.584 0.5973,-1.40799 0.89596,-2.90132 0.896,-4.48 -4e-5,-1.57865 -0.2987,-3.07198 -0.896,-4.48 -0.59737,-1.40798 -1.42937,-2.62398 -2.496,-3.648 -1.02403,-1.06664 -2.24003,-1.89864 -3.648,-2.496 -1.36536,-0.59731 -2.83736,-0.89598 -4.416,-0.896 m 0,-7.36 c 2.60264,3e-5 5.03464,0.51203 7.296,1.536 2.30397,0.98136 4.3093,2.32536 6.016,4.032 1.70663,1.70669 3.05063,3.71202 4.032,6.016 0.98129,2.26135 1.47196,4.69335 1.472,7.296 -4e-5,2.60268 -0.49071,5.05601 -1.472,7.36 -0.98137,2.26134 -2.32537,4.24533 -4.032,5.952 -1.7067,1.664 -3.71203,2.98666 -6.016,3.968 -2.26136,0.98133 -4.69336,1.47199 -7.296,1.472 -2.60269,-10e-6 -5.05602,-0.49067 -7.36,-1.472 -2.26135,-0.98134 -4.24535,-2.304 -5.952,-3.968 -1.70668,-1.70667 -3.05068,-3.69066 -4.032,-5.952 -0.98134,-2.30399 -1.47201,-4.75732 -1.472,-7.36 -10e-6,-2.60265 0.49066,-5.03465 1.472,-7.296 0.98132,-2.30398 2.32532,-4.30931 4.032,-6.016 1.70665,-1.70664 3.69065,-3.05064 5.952,-4.032 2.30398,-1.02397 4.75731,-1.53597 7.36,-1.536"
         style="font-size:64px;font-variant:normal;font-weight:600;font-stretch:normal;text-align:center;text-anchor:middle;fill:#000000;font-family:Rimouski;-inkscape-font-specification:Rimouski Semi-Bold"
         id="path3050" />
      <path
         d="m 824.31249,609.70621 2.304,0 c 1.10932,3e-5 1.98398,0.34136 2.624,1.024 0.68265,0.64003 1.02398,1.53603 1.024,2.688 -2e-5,1.02403 -0.34135,1.89869 -1.024,2.624 -0.64002,0.68269 -1.51468,1.02402 -2.624,1.024 l -2.304,0 0,17.024 c -10e-6,0.85334 0.10665,1.53601 0.32,2.048 0.25598,0.512 0.59732,0.91734 1.024,1.216 0.42665,0.29867 0.89598,0.512 1.408,0.64 0.51198,0.128 1.06665,0.21334 1.664,0.256 0.98131,0.0853 1.72798,0.46934 2.24,1.152 0.55464,0.64 0.83198,1.51467 0.832,2.624 -2e-5,1.024 -0.36269,1.856 -1.088,2.496 -0.72535,0.59733 -1.79202,0.896 -3.2,0.896 -1.49335,0 -2.88002,-0.21334 -4.16,-0.64 -1.28001,-0.42667 -2.41068,-1.088 -3.392,-1.984 -0.93868,-0.93867 -1.68534,-2.112 -2.24,-3.52 -0.51201,-1.45066 -0.76801,-3.15733 -0.768,-5.12 l 0,-17.088 c -0.98134,-0.12798 -1.74934,-0.53331 -2.304,-1.216 -0.512,-0.68264 -0.768,-1.49331 -0.768,-2.432 0,-1.02397 0.256,-1.85597 0.768,-2.496 0.55466,-0.68264 1.32266,-1.06664 2.304,-1.152 l 0,-10.816 c -10e-6,-1.15196 0.34133,-2.04796 1.024,-2.688 0.72532,-0.68262 1.59999,-1.02395 2.624,-1.024 1.15199,5e-5 2.04799,0.34138 2.688,1.024 0.68265,0.64004 1.02399,1.53604 1.024,2.688 l 0,10.752"
         style="font-size:64px;font-variant:normal;font-weight:600;font-stretch:normal;text-align:center;text-anchor:middle;fill:#000000;font-family:Rimouski;-inkscape-font-specification:Rimouski Semi-Bold"
         id="path3052" />
      <path
         d="m 850.98249,608.55421 c 2.55997,3e-5 4.97064,0.4907 7.232,1.472 2.30397,0.98136 4.3093,2.30403 6.016,3.968 1.70663,1.62136 3.05063,3.54136 4.032,5.76 1.02396,2.17602 1.53596,4.48002 1.536,6.912 -4e-5,1.23735 -0.32004,2.17601 -0.96,2.816 -0.64004,0.64001 -1.53604,0.96001 -2.688,0.96 l -25.984,0 c 0.21332,1.19468 0.66132,2.30401 1.344,3.328 0.68265,1.02401 1.51465,1.92 2.496,2.688 1.02398,0.72534 2.13331,1.30134 3.328,1.728 1.19464,0.42667 2.41064,0.64 3.648,0.64 1.57864,0 3.02931,-0.27733 4.352,-0.832 1.32264,-0.55466 2.49597,-1.344 3.52,-2.368 0.42663,-0.38399 0.89597,-0.68266 1.408,-0.896 0.51197,-0.25599 1.00263,-0.38399 1.472,-0.384 0.9813,10e-6 1.79196,0.36267 2.432,1.088 0.68263,0.72534 1.02396,1.57867 1.024,2.56 -4e-5,0.512 -0.064,1.00267 -0.192,1.472 -0.12804,0.46933 -0.38404,0.896 -0.768,1.28 -1.66404,1.83466 -3.6267,3.2 -5.888,4.096 -2.26136,0.89599 -4.71469,1.34399 -7.36,1.344 -2.60269,-10e-6 -5.05602,-0.49067 -7.36,-1.472 -2.26135,-0.98134 -4.24535,-2.304 -5.952,-3.968 -1.70668,-1.70667 -3.05068,-3.69066 -4.032,-5.952 -0.98134,-2.30399 -1.47201,-4.75732 -1.472,-7.36 -10e-6,-2.60265 0.49066,-5.03465 1.472,-7.296 0.98132,-2.30398 2.32532,-4.30931 4.032,-6.016 1.70665,-1.70664 3.69065,-3.05064 5.952,-4.032 2.30398,-1.02397 4.75731,-1.53597 7.36,-1.536 m 0,7.36 c -1.23736,2e-5 -2.45336,0.21336 -3.648,0.64 -1.19469,0.42669 -2.28269,1.02402 -3.264,1.792 -0.93868,0.76802 -1.74935,1.66402 -2.432,2.688 -0.68268,1.02402 -1.15201,2.13335 -1.408,3.328 l 21.504,0 c -0.21337,-1.19465 -0.66137,-2.30398 -1.344,-3.328 -0.6827,-1.02398 -1.5147,-1.91998 -2.496,-2.688 -0.98136,-0.76798 -2.06936,-1.36531 -3.264,-1.792 -1.19469,-0.42664 -2.41069,-0.63998 -3.648,-0.64"
         style="font-size:64px;font-variant:normal;font-weight:600;font-stretch:normal;text-align:center;text-anchor:middle;fill:#000000;font-family:Rimouski;-inkscape-font-specification:Rimouski Semi-Bold"
         id="path3054" />
      <path
         d="m 875.36249,637.80221 c -10e-6,-1.10933 0.34132,-1.984 1.024,-2.624 0.68265,-0.68266 1.57865,-1.02399 2.688,-1.024 1.06665,10e-6 1.91998,0.34134 2.56,1.024 0.68265,0.64 1.02398,1.51467 1.024,2.624 l 0,3.904 c -2e-5,1.152 -0.29869,2.06933 -0.896,2.752 -0.55468,0.64 -1.45068,0.96 -2.688,0.96 -1.10935,0 -2.00535,-0.32 -2.688,-0.96 -0.68268,-0.68267 -1.02401,-1.6 -1.024,-2.752 l 0,-3.904 m 0,-11.008 c -10e-6,-1.02399 0.0853,-1.96265 0.256,-2.816 0.21332,-0.89598 0.55465,-1.72798 1.024,-2.496 0.51199,-0.76798 1.15199,-1.51465 1.92,-2.24 0.81065,-0.72531 1.81332,-1.45064 3.008,-2.176 0.93865,-0.59731 1.77065,-1.13064 2.496,-1.6 0.72531,-0.51197 1.30131,-1.02397 1.728,-1.536 0.46931,-0.51197 0.81064,-1.06664 1.024,-1.664 0.25598,-0.63997 0.38398,-1.3653 0.384,-2.176 -2e-5,-1.70663 -0.57602,-3.0293 -1.728,-3.968 -1.10935,-0.9813 -2.47469,-1.47196 -4.096,-1.472 -1.32268,4e-5 -2.41068,0.19204 -3.264,0.576 -0.85335,0.34137 -1.62135,0.8107 -2.304,1.408 -1.02401,0.9387 -2.15468,1.40803 -3.392,1.408 -0.81067,3e-5 -1.53601,-0.31997 -2.176,-0.96 -0.59734,-0.63997 -0.89601,-1.4293 -0.896,-2.368 -10e-6,-1.19463 0.44799,-2.30396 1.344,-3.328 1.06666,-1.19463 2.43199,-2.15463 4.096,-2.88 1.66399,-0.76796 3.71199,-1.15196 6.144,-1.152 2.00531,4e-5 3.83998,0.27738 5.504,0.832 1.66398,0.55471 3.07197,1.36537 4.224,2.432 1.19464,1.06671 2.11197,2.3467 2.752,3.84 0.68264,1.49337 1.02397,3.20003 1.024,5.12 -3e-5,2.30403 -0.4907,4.39469 -1.472,6.272 -0.98136,1.87736 -2.79469,3.64802 -5.44,5.312 -0.98136,0.59735 -1.77069,1.15202 -2.368,1.664 -0.59735,0.46935 -1.08802,0.93868 -1.472,1.408 -0.34135,0.42668 -0.59735,0.89602 -0.768,1.408 -0.12802,0.46935 -0.21335,1.00268 -0.256,1.6 -0.0854,1.10935 -0.49069,1.96268 -1.216,2.56 -0.68268,0.55468 -1.47202,0.83201 -2.368,0.832 -1.10935,10e-6 -2.00535,-0.34132 -2.688,-1.024 -0.68268,-0.72532 -1.02401,-1.66399 -1.024,-2.816"
         style="font-size:64px;font-variant:normal;font-weight:600;font-stretch:normal;text-align:center;text-anchor:middle;fill:#000000;font-family:Rimouski;-inkscape-font-specification:Rimouski Semi-Bold"
         id="path3056" />
      <path
         d="m 259.18249,678.50621 c 2.21864,4e-5 4.30931,0.36271 6.272,1.088 2.00531,0.72537 3.7333,1.77071 5.184,3.136 1.45063,1.3227 2.60263,2.94403 3.456,4.864 0.8533,1.92003 1.27996,4.0747 1.28,6.464 -4e-5,2.38936 -0.4267,4.54402 -1.28,6.464 -0.85337,1.87735 -2.00537,3.49868 -3.456,4.864 -1.4507,1.32268 -3.17869,2.34668 -5.184,3.072 -1.96269,0.72534 -4.05336,1.08801 -6.272,1.088 l -5.44,0 0,12.16 c -1e-5,1.152 -0.34135,2.06933 -1.024,2.752 -0.64001,0.64 -1.53601,0.96 -2.688,0.96 -1.02401,0 -1.89868,-0.32 -2.624,-0.96 -0.68267,-0.68267 -1.02401,-1.6 -1.024,-2.752 l 0,-39.552 c -1e-5,-1.10929 0.34133,-1.98396 1.024,-2.624 0.72532,-0.68262 1.59999,-1.02396 2.624,-1.024 l 9.152,0 m -5.44,23.68 5.44,0 c 1.19465,2e-5 2.32531,-0.17065 3.392,-0.512 1.10931,-0.38398 2.04797,-0.91731 2.816,-1.6 0.81064,-0.72531 1.45064,-1.57864 1.92,-2.56 0.4693,-1.02398 0.70397,-2.17597 0.704,-3.456 -3e-5,-1.27997 -0.2347,-2.41064 -0.704,-3.392 -0.46936,-1.02397 -1.10936,-1.8773 -1.92,-2.56 -0.76803,-0.7253 -1.70669,-1.27997 -2.816,-1.664 -1.06669,-0.38397 -2.19735,-0.57597 -3.392,-0.576 l -5.44,0 0,16.32"
         style="font-size:64px;font-variant:normal;font-weight:600;font-stretch:normal;text-align:center;text-anchor:middle;fill:#000000;font-family:Rimouski;-inkscape-font-specification:Rimouski Semi-Bold"
         id="path3058" />
      <path
         d="m 295.73249,695.91421 c -1.62136,2e-5 -3.13602,0.29869 -4.544,0.896 -1.36535,0.59736 -2.56002,1.42936 -3.584,2.496 -1.02402,1.02402 -1.83468,2.24002 -2.432,3.648 -0.59735,1.40802 -0.89601,2.90135 -0.896,4.48 -1e-5,1.57868 0.29865,3.07201 0.896,4.48 0.59732,1.36534 1.40798,2.56001 2.432,3.584 1.02398,1.024 2.21865,1.83467 3.584,2.432 1.40798,0.59734 2.92264,0.896 4.544,0.896 1.57864,0 3.05064,-0.29866 4.416,-0.896 1.40797,-0.59733 2.62397,-1.408 3.648,-2.432 1.06663,-1.02399 1.89863,-2.21866 2.496,-3.584 0.5973,-1.40799 0.89596,-2.90132 0.896,-4.48 -4e-5,-1.57865 -0.2987,-3.07198 -0.896,-4.48 -0.59737,-1.40798 -1.42937,-2.62398 -2.496,-3.648 -1.02403,-1.06664 -2.24003,-1.89864 -3.648,-2.496 -1.36536,-0.59731 -2.83736,-0.89598 -4.416,-0.896 m 0,-7.36 c 2.60264,3e-5 5.03464,0.51203 7.296,1.536 2.30397,0.98136 4.3093,2.32536 6.016,4.032 1.70663,1.70669 3.05063,3.71202 4.032,6.016 0.98129,2.26135 1.47196,4.69335 1.472,7.296 -4e-5,2.60268 -0.49071,5.05601 -1.472,7.36 -0.98137,2.26134 -2.32537,4.24533 -4.032,5.952 -1.7067,1.664 -3.71203,2.98666 -6.016,3.968 -2.26136,0.98133 -4.69336,1.47199 -7.296,1.472 -2.60269,-10e-6 -5.05602,-0.49067 -7.36,-1.472 -2.26135,-0.98134 -4.24535,-2.304 -5.952,-3.968 -1.70668,-1.70667 -3.05068,-3.69066 -4.032,-5.952 -0.98134,-2.30399 -1.47201,-4.75732 -1.472,-7.36 -1e-5,-2.60265 0.49066,-5.03465 1.472,-7.296 0.98132,-2.30398 2.32532,-4.30931 4.032,-6.016 1.70665,-1.70664 3.69065,-3.05064 5.952,-4.032 2.30398,-1.02397 4.75731,-1.53597 7.36,-1.536"
         style="font-size:64px;font-variant:normal;font-weight:600;font-stretch:normal;text-align:center;text-anchor:middle;fill:#000000;font-family:Rimouski;-inkscape-font-specification:Rimouski Semi-Bold"
         id="path3060" />
      <path
         d="m 326.86749,684.01021 c -10e-6,1.10937 -0.34135,2.00537 -1.024,2.688 -0.64001,0.64003 -1.53601,0.96003 -2.688,0.96 -1.02401,3e-5 -1.89868,-0.31997 -2.624,-0.96 -0.68267,-0.68263 -1.02401,-1.57863 -1.024,-2.688 l 0,-5.12 c -1e-5,-1.10929 0.34133,-1.98396 1.024,-2.624 0.72532,-0.68262 1.59999,-1.02395 2.624,-1.024 1.15199,5e-5 2.04799,0.34138 2.688,1.024 0.68265,0.64004 1.02399,1.51471 1.024,2.624 l 0,5.12 m 0,37.696 c -10e-6,1.152 -0.34135,2.06933 -1.024,2.752 -0.64001,0.64 -1.53601,0.96 -2.688,0.96 -1.02401,0 -1.89868,-0.32 -2.624,-0.96 -0.68267,-0.68267 -1.02401,-1.6 -1.024,-2.752 l 0,-27.392 c -1e-5,-1.06664 0.34133,-1.94131 1.024,-2.624 0.72532,-0.68264 1.59999,-1.02397 2.624,-1.024 1.15199,3e-5 2.04799,0.34136 2.688,1.024 0.68265,0.68269 1.02399,1.55736 1.024,2.624 l 0,27.392"
         style="font-size:64px;font-variant:normal;font-weight:600;font-stretch:normal;text-align:center;text-anchor:middle;fill:#000000;font-family:Rimouski;-inkscape-font-specification:Rimouski Semi-Bold"
         id="path3062" />
      <path
         d="m 336.26849,689.38621 c 2.09065,3e-5 3.32799,1.0667 3.712,3.2 1.10932,-1.2373 2.47465,-2.21864 4.096,-2.944 1.62131,-0.7253 3.43465,-1.08797 5.44,-1.088 2.30397,3e-5 4.39464,0.4267 6.272,1.28 1.8773,0.8107 3.4773,1.94136 4.8,3.392 1.32263,1.45069 2.3253,3.17869 3.008,5.184 0.72529,1.96269 1.08796,4.09602 1.088,6.4 l 0,16.96 c -4e-5,1.152 -0.34137,2.048 -1.024,2.688 -0.64004,0.64 -1.5147,0.96 -2.624,0.96 -1.0667,0 -1.94137,-0.32 -2.624,-0.96 -0.6827,-0.64 -1.02403,-1.536 -1.024,-2.688 l 0,-16.96 c -3e-5,-1.23732 -0.19203,-2.38932 -0.576,-3.456 -0.38403,-1.10931 -0.9387,-2.06931 -1.664,-2.88 -0.6827,-0.81064 -1.53603,-1.45064 -2.56,-1.92 -1.02403,-0.46931 -2.17602,-0.70398 -3.456,-0.704 -1.28002,2e-5 -2.45335,0.23469 -3.52,0.704 -1.06669,0.46936 -1.98402,1.10936 -2.752,1.92 -0.76802,0.76802 -1.36535,1.70669 -1.792,2.816 -0.38401,1.06668 -0.57601,2.24002 -0.576,3.52 l 0,16.96 c -10e-6,1.152 -0.34135,2.048 -1.024,2.688 -0.64001,0.64 -1.53601,0.96 -2.688,0.96 -1.02401,0 -1.89868,-0.32 -2.624,-0.96 -0.68267,-0.64 -1.02401,-1.536 -1.024,-2.688 l 0,-29.184 c -1e-5,-0.9813 0.29866,-1.7493 0.896,-2.304 0.63999,-0.5973 1.38666,-0.89597 2.24,-0.896"
         style="font-size:64px;font-variant:normal;font-weight:600;font-stretch:normal;text-align:center;text-anchor:middle;fill:#000000;font-family:Rimouski;-inkscape-font-specification:Rimouski Semi-Bold"
         id="path3064" />
      <path
         d="m 378.68749,689.70621 2.304,0 c 1.10932,3e-5 1.98398,0.34136 2.624,1.024 0.68265,0.64003 1.02398,1.53603 1.024,2.688 -2e-5,1.02403 -0.34135,1.89869 -1.024,2.624 -0.64002,0.68269 -1.51468,1.02402 -2.624,1.024 l -2.304,0 0,17.024 c -1e-5,0.85334 0.10665,1.53601 0.32,2.048 0.25598,0.512 0.59732,0.91734 1.024,1.216 0.42665,0.29867 0.89598,0.512 1.408,0.64 0.51198,0.128 1.06665,0.21334 1.664,0.256 0.98131,0.0853 1.72798,0.46934 2.24,1.152 0.55464,0.64 0.83198,1.51467 0.832,2.624 -2e-5,1.024 -0.36269,1.856 -1.088,2.496 -0.72535,0.59733 -1.79202,0.896 -3.2,0.896 -1.49335,0 -2.88002,-0.21334 -4.16,-0.64 -1.28001,-0.42667 -2.41068,-1.088 -3.392,-1.984 -0.93868,-0.93867 -1.68534,-2.112 -2.24,-3.52 -0.51201,-1.45066 -0.76801,-3.15733 -0.768,-5.12 l 0,-17.088 c -0.98134,-0.12798 -1.74934,-0.53331 -2.304,-1.216 -0.512,-0.68264 -0.768,-1.49331 -0.768,-2.432 0,-1.02397 0.256,-1.85597 0.768,-2.496 0.55466,-0.68264 1.32266,-1.06664 2.304,-1.152 l 0,-10.816 c -1e-5,-1.15196 0.34133,-2.04796 1.024,-2.688 0.72532,-0.68262 1.59999,-1.02395 2.624,-1.024 1.15199,5e-5 2.04799,0.34138 2.688,1.024 0.68265,0.64004 1.02399,1.53604 1.024,2.688 l 0,10.752"
         style="font-size:64px;font-variant:normal;font-weight:600;font-stretch:normal;text-align:center;text-anchor:middle;fill:#000000;font-family:Rimouski;-inkscape-font-specification:Rimouski Semi-Bold"
         id="path3066" />
      <path
         d="m 412.81249,689.70621 2.304,0 c 1.10932,3e-5 1.98398,0.34136 2.624,1.024 0.68265,0.64003 1.02398,1.53603 1.024,2.688 -2e-5,1.02403 -0.34135,1.89869 -1.024,2.624 -0.64002,0.68269 -1.51468,1.02402 -2.624,1.024 l -2.304,0 0,17.024 c -1e-5,0.85334 0.10665,1.53601 0.32,2.048 0.25598,0.512 0.59732,0.91734 1.024,1.216 0.42665,0.29867 0.89598,0.512 1.408,0.64 0.51198,0.128 1.06665,0.21334 1.664,0.256 0.98131,0.0853 1.72798,0.46934 2.24,1.152 0.55464,0.64 0.83198,1.51467 0.832,2.624 -2e-5,1.024 -0.36269,1.856 -1.088,2.496 -0.72535,0.59733 -1.79202,0.896 -3.2,0.896 -1.49335,0 -2.88002,-0.21334 -4.16,-0.64 -1.28001,-0.42667 -2.41068,-1.088 -3.392,-1.984 -0.93868,-0.93867 -1.68534,-2.112 -2.24,-3.52 -0.51201,-1.45066 -0.76801,-3.15733 -0.768,-5.12 l 0,-17.088 c -0.98134,-0.12798 -1.74934,-0.53331 -2.304,-1.216 -0.512,-0.68264 -0.768,-1.49331 -0.768,-2.432 0,-1.02397 0.256,-1.85597 0.768,-2.496 0.55466,-0.68264 1.32266,-1.06664 2.304,-1.152 l 0,-10.816 c -1e-5,-1.15196 0.34133,-2.04796 1.024,-2.688 0.72532,-0.68262 1.59999,-1.02395 2.624,-1.024 1.15199,5e-5 2.04799,0.34138 2.688,1.024 0.68265,0.64004 1.02399,1.53604 1.024,2.688 l 0,10.752"
         style="font-size:64px;font-variant:normal;font-weight:600;font-stretch:normal;text-align:center;text-anchor:middle;fill:#000000;font-family:Rimouski;-inkscape-font-specification:Rimouski Semi-Bold"
         id="path3068" />
      <path
         d="m 439.48249,695.91421 c -1.62136,2e-5 -3.13602,0.29869 -4.544,0.896 -1.36535,0.59736 -2.56002,1.42936 -3.584,2.496 -1.02402,1.02402 -1.83468,2.24002 -2.432,3.648 -0.59735,1.40802 -0.89601,2.90135 -0.896,4.48 -1e-5,1.57868 0.29865,3.07201 0.896,4.48 0.59732,1.36534 1.40798,2.56001 2.432,3.584 1.02398,1.024 2.21865,1.83467 3.584,2.432 1.40798,0.59734 2.92264,0.896 4.544,0.896 1.57864,0 3.05064,-0.29866 4.416,-0.896 1.40797,-0.59733 2.62397,-1.408 3.648,-2.432 1.06663,-1.02399 1.89863,-2.21866 2.496,-3.584 0.5973,-1.40799 0.89596,-2.90132 0.896,-4.48 -4e-5,-1.57865 -0.2987,-3.07198 -0.896,-4.48 -0.59737,-1.40798 -1.42937,-2.62398 -2.496,-3.648 -1.02403,-1.06664 -2.24003,-1.89864 -3.648,-2.496 -1.36536,-0.59731 -2.83736,-0.89598 -4.416,-0.896 m 0,-7.36 c 2.60264,3e-5 5.03464,0.51203 7.296,1.536 2.30397,0.98136 4.3093,2.32536 6.016,4.032 1.70663,1.70669 3.05063,3.71202 4.032,6.016 0.98129,2.26135 1.47196,4.69335 1.472,7.296 -4e-5,2.60268 -0.49071,5.05601 -1.472,7.36 -0.98137,2.26134 -2.32537,4.24533 -4.032,5.952 -1.7067,1.664 -3.71203,2.98666 -6.016,3.968 -2.26136,0.98133 -4.69336,1.47199 -7.296,1.472 -2.60269,-10e-6 -5.05602,-0.49067 -7.36,-1.472 -2.26135,-0.98134 -4.24535,-2.304 -5.952,-3.968 -1.70668,-1.70667 -3.05068,-3.69066 -4.032,-5.952 -0.98134,-2.30399 -1.47201,-4.75732 -1.472,-7.36 -1e-5,-2.60265 0.49066,-5.03465 1.472,-7.296 0.98132,-2.30398 2.32532,-4.30931 4.032,-6.016 1.70665,-1.70664 3.69065,-3.05064 5.952,-4.032 2.30398,-1.02397 4.75731,-1.53597 7.36,-1.536"
         style="font-size:64px;font-variant:normal;font-weight:600;font-stretch:normal;text-align:center;text-anchor:middle;fill:#000000;font-family:Rimouski;-inkscape-font-specification:Rimouski Semi-Bold"
         id="path3070" />
      <path
         d="m 485.93749,689.70621 2.304,0 c 1.10932,3e-5 1.98398,0.34136 2.624,1.024 0.68265,0.64003 1.02398,1.53603 1.024,2.688 -2e-5,1.02403 -0.34135,1.89869 -1.024,2.624 -0.64002,0.68269 -1.51468,1.02402 -2.624,1.024 l -2.304,0 0,17.024 c -1e-5,0.85334 0.10665,1.53601 0.32,2.048 0.25598,0.512 0.59732,0.91734 1.024,1.216 0.42665,0.29867 0.89598,0.512 1.408,0.64 0.51198,0.128 1.06665,0.21334 1.664,0.256 0.98131,0.0853 1.72798,0.46934 2.24,1.152 0.55464,0.64 0.83198,1.51467 0.832,2.624 -2e-5,1.024 -0.36269,1.856 -1.088,2.496 -0.72535,0.59733 -1.79202,0.896 -3.2,0.896 -1.49335,0 -2.88002,-0.21334 -4.16,-0.64 -1.28001,-0.42667 -2.41068,-1.088 -3.392,-1.984 -0.93868,-0.93867 -1.68534,-2.112 -2.24,-3.52 -0.51201,-1.45066 -0.76801,-3.15733 -0.768,-5.12 l 0,-17.088 c -0.98134,-0.12798 -1.74934,-0.53331 -2.304,-1.216 -0.512,-0.68264 -0.768,-1.49331 -0.768,-2.432 0,-1.02397 0.256,-1.85597 0.768,-2.496 0.55466,-0.68264 1.32266,-1.06664 2.304,-1.152 l 0,-10.816 c -1e-5,-1.15196 0.34133,-2.04796 1.024,-2.688 0.72532,-0.68262 1.59999,-1.02395 2.624,-1.024 1.15199,5e-5 2.04799,0.34138 2.688,1.024 0.68265,0.64004 1.02399,1.53604 1.024,2.688 l 0,10.752"
         style="font-size:64px;font-variant:normal;font-weight:600;font-stretch:normal;text-align:center;text-anchor:middle;fill:#000000;font-family:Rimouski;-inkscape-font-specification:Rimouski Semi-Bold"
         id="path3072" />
      <path
         d="m 504.74249,692.20221 c 1.06665,-1.1093 2.36798,-1.98397 3.904,-2.624 1.53598,-0.68263 3.24264,-1.02397 5.12,-1.024 2.30397,3e-5 4.39464,0.4267 6.272,1.28 1.8773,0.8107 3.4773,1.94136 4.8,3.392 1.32263,1.45069 2.3253,3.17869 3.008,5.184 0.72529,1.96269 1.08796,4.09602 1.088,6.4 l 0,16.896 c -4e-5,1.152 -0.34137,2.06933 -1.024,2.752 -0.64004,0.64 -1.5147,0.96 -2.624,0.96 -1.0667,0 -1.94137,-0.32 -2.624,-0.96 -0.6827,-0.68267 -1.02403,-1.6 -1.024,-2.752 l 0,-16.896 c -3e-5,-1.27998 -0.19203,-2.45332 -0.576,-3.52 -0.34136,-1.10931 -0.8747,-2.04798 -1.6,-2.816 -0.6827,-0.81064 -1.53603,-1.45064 -2.56,-1.92 -1.02403,-0.46931 -2.19736,-0.70398 -3.52,-0.704 -1.28002,2e-5 -2.45335,0.23469 -3.52,0.704 -1.06669,0.46936 -1.98402,1.10936 -2.752,1.92 -0.76802,0.76802 -1.36535,1.70669 -1.792,2.816 -0.38401,1.06668 -0.57601,2.24002 -0.576,3.52 l 0,16.896 c -10e-6,1.152 -0.34135,2.06933 -1.024,2.752 -0.64001,0.64 -1.53601,0.96 -2.688,0.96 -1.02401,0 -1.89868,-0.32 -2.624,-0.96 -0.68267,-0.68267 -1.02401,-1.6 -1.024,-2.752 l 0,-42.816 c -1e-5,-1.10929 0.34133,-1.98396 1.024,-2.624 0.72532,-0.68262 1.59999,-1.02395 2.624,-1.024 1.15199,5e-5 2.04799,0.34138 2.688,1.024 0.68265,0.64004 1.02399,1.51471 1.024,2.624 l 0,13.312"
         style="font-size:64px;font-variant:normal;font-weight:600;font-stretch:normal;text-align:center;text-anchor:middle;fill:#000000;font-family:Rimouski;-inkscape-font-specification:Rimouski Semi-Bold"
         id="path3074" />
      <path
         d="m 552.85749,688.55421 c 2.55997,3e-5 4.97064,0.4907 7.232,1.472 2.30397,0.98136 4.3093,2.30403 6.016,3.968 1.70663,1.62136 3.05063,3.54136 4.032,5.76 1.02396,2.17602 1.53596,4.48002 1.536,6.912 -4e-5,1.23735 -0.32004,2.17601 -0.96,2.816 -0.64004,0.64001 -1.53604,0.96001 -2.688,0.96 l -25.984,0 c 0.21332,1.19468 0.66132,2.30401 1.344,3.328 0.68265,1.02401 1.51465,1.92 2.496,2.688 1.02398,0.72534 2.13331,1.30134 3.328,1.728 1.19464,0.42667 2.41064,0.64 3.648,0.64 1.57864,0 3.02931,-0.27733 4.352,-0.832 1.32264,-0.55466 2.49597,-1.344 3.52,-2.368 0.42663,-0.38399 0.89597,-0.68266 1.408,-0.896 0.51197,-0.25599 1.00263,-0.38399 1.472,-0.384 0.9813,10e-6 1.79196,0.36267 2.432,1.088 0.68263,0.72534 1.02396,1.57867 1.024,2.56 -4e-5,0.512 -0.064,1.00267 -0.192,1.472 -0.12804,0.46933 -0.38404,0.896 -0.768,1.28 -1.66404,1.83466 -3.6267,3.2 -5.888,4.096 -2.26136,0.89599 -4.71469,1.34399 -7.36,1.344 -2.60269,-10e-6 -5.05602,-0.49067 -7.36,-1.472 -2.26135,-0.98134 -4.24535,-2.304 -5.952,-3.968 -1.70668,-1.70667 -3.05068,-3.69066 -4.032,-5.952 -0.98134,-2.30399 -1.47201,-4.75732 -1.472,-7.36 -10e-6,-2.60265 0.49066,-5.03465 1.472,-7.296 0.98132,-2.30398 2.32532,-4.30931 4.032,-6.016 1.70665,-1.70664 3.69065,-3.05064 5.952,-4.032 2.30398,-1.02397 4.75731,-1.53597 7.36,-1.536 m 0,7.36 c -1.23736,2e-5 -2.45336,0.21336 -3.648,0.64 -1.19469,0.42669 -2.28269,1.02402 -3.264,1.792 -0.93868,0.76802 -1.74935,1.66402 -2.432,2.688 -0.68268,1.02402 -1.15201,2.13335 -1.408,3.328 l 21.504,0 c -0.21337,-1.19465 -0.66137,-2.30398 -1.344,-3.328 -0.6827,-1.02398 -1.5147,-1.91998 -2.496,-2.688 -0.98136,-0.76798 -2.06936,-1.36531 -3.264,-1.792 -1.19469,-0.42664 -2.41069,-0.63998 -3.648,-0.64"
         style="font-size:64px;font-variant:normal;font-weight:600;font-stretch:normal;text-align:center;text-anchor:middle;fill:#000000;font-family:Rimouski;-inkscape-font-specification:Rimouski Semi-Bold"
         id="path3076" />
      <path
         d="m 599.05649,693.16221 c 1.15198,-1.40797 2.64532,-2.5173 4.48,-3.328 1.83465,-0.8533 3.96798,-1.27997 6.4,-1.28 2.43197,3e-5 4.77864,0.46936 7.04,1.408 2.30397,0.9387 4.33063,2.26136 6.08,3.968 1.74929,1.66403 3.13596,3.64802 4.16,5.952 1.06662,2.30402 1.59996,4.82135 1.6,7.552 -4e-5,2.68801 -0.53338,5.18401 -1.6,7.488 -1.02404,2.304 -2.41071,4.288 -4.16,5.952 -1.74937,1.664 -3.77603,2.96533 -6.08,3.904 -2.26136,0.93866 -4.60803,1.40799 -7.04,1.408 -1.15202,-10e-6 -2.28269,-0.14934 -3.392,-0.448 -1.06669,-0.256 -2.09069,-0.59734 -3.072,-1.024 -0.93868,-0.46934 -1.81335,-1.00267 -2.624,-1.6 -0.81068,-0.59734 -1.49335,-1.216 -2.048,-1.856 -0.12801,1.23733 -0.46935,2.24 -1.024,3.008 -0.51201,0.768 -1.51468,1.152 -3.008,1.152 -0.89601,0 -1.64268,-0.29867 -2.24,-0.896 -0.59734,-0.59734 -0.89601,-1.38667 -0.896,-2.368 l 0,-43.264 c -10e-6,-1.10929 0.34133,-1.98396 1.024,-2.624 0.72532,-0.68262 1.62132,-1.02395 2.688,-1.024 1.15199,5e-5 2.04799,0.34138 2.688,1.024 0.68265,0.64004 1.02399,1.51471 1.024,2.624 l 0,14.272 m 10.88,2.752 c -1.53602,2e-5 -2.96536,0.29869 -4.288,0.896 -1.32269,0.59736 -2.47469,1.42936 -3.456,2.496 -0.98135,1.02402 -1.74935,2.24002 -2.304,3.648 -0.55468,1.40802 -0.83201,2.90135 -0.832,4.48 -1e-5,1.57868 0.27732,3.07201 0.832,4.48 0.55465,1.36534 1.32265,2.56001 2.304,3.584 0.98131,1.024 2.13331,1.83467 3.456,2.432 1.32264,0.59734 2.75198,0.896 4.288,0.896 1.57864,0 3.07197,-0.29866 4.48,-0.896 1.40797,-0.59733 2.62397,-1.408 3.648,-2.432 1.02397,-1.02399 1.83463,-2.21866 2.432,-3.584 0.5973,-1.40799 0.89596,-2.90132 0.896,-4.48 -4e-5,-1.57865 -0.2987,-3.07198 -0.896,-4.48 -0.59737,-1.40798 -1.40803,-2.62398 -2.432,-3.648 -1.02403,-1.06664 -2.24003,-1.89864 -3.648,-2.496 -1.40803,-0.59731 -2.90136,-0.89598 -4.48,-0.896"
         style="font-size:64px;font-variant:normal;font-weight:600;font-stretch:normal;text-align:center;text-anchor:middle;fill:#000000;font-family:Rimouski;-inkscape-font-specification:Rimouski Semi-Bold"
         id="path3078" />
      <path
         d="m 651.23249,688.55421 c 2.55997,3e-5 4.97064,0.4907 7.232,1.472 2.30397,0.98136 4.3093,2.30403 6.016,3.968 1.70663,1.62136 3.05063,3.54136 4.032,5.76 1.02396,2.17602 1.53596,4.48002 1.536,6.912 -4e-5,1.23735 -0.32004,2.17601 -0.96,2.816 -0.64004,0.64001 -1.53604,0.96001 -2.688,0.96 l -25.984,0 c 0.21332,1.19468 0.66132,2.30401 1.344,3.328 0.68265,1.02401 1.51465,1.92 2.496,2.688 1.02398,0.72534 2.13331,1.30134 3.328,1.728 1.19464,0.42667 2.41064,0.64 3.648,0.64 1.57864,0 3.02931,-0.27733 4.352,-0.832 1.32264,-0.55466 2.49597,-1.344 3.52,-2.368 0.42663,-0.38399 0.89597,-0.68266 1.408,-0.896 0.51197,-0.25599 1.00263,-0.38399 1.472,-0.384 0.9813,10e-6 1.79196,0.36267 2.432,1.088 0.68263,0.72534 1.02396,1.57867 1.024,2.56 -4e-5,0.512 -0.064,1.00267 -0.192,1.472 -0.12804,0.46933 -0.38404,0.896 -0.768,1.28 -1.66404,1.83466 -3.6267,3.2 -5.888,4.096 -2.26136,0.89599 -4.71469,1.34399 -7.36,1.344 -2.60269,-10e-6 -5.05602,-0.49067 -7.36,-1.472 -2.26135,-0.98134 -4.24535,-2.304 -5.952,-3.968 -1.70668,-1.70667 -3.05068,-3.69066 -4.032,-5.952 -0.98134,-2.30399 -1.47201,-4.75732 -1.472,-7.36 -10e-6,-2.60265 0.49066,-5.03465 1.472,-7.296 0.98132,-2.30398 2.32532,-4.30931 4.032,-6.016 1.70665,-1.70664 3.69065,-3.05064 5.952,-4.032 2.30398,-1.02397 4.75731,-1.53597 7.36,-1.536 m 0,7.36 c -1.23736,2e-5 -2.45336,0.21336 -3.648,0.64 -1.19469,0.42669 -2.28269,1.02402 -3.264,1.792 -0.93868,0.76802 -1.74935,1.66402 -2.432,2.688 -0.68268,1.02402 -1.15201,2.13335 -1.408,3.328 l 21.504,0 c -0.21337,-1.19465 -0.66137,-2.30398 -1.344,-3.328 -0.6827,-1.02398 -1.5147,-1.91998 -2.496,-2.688 -0.98136,-0.76798 -2.06936,-1.36531 -3.264,-1.792 -1.19469,-0.42664 -2.41069,-0.63998 -3.648,-0.64"
         style="font-size:64px;font-variant:normal;font-weight:600;font-stretch:normal;text-align:center;text-anchor:middle;fill:#000000;font-family:Rimouski;-inkscape-font-specification:Rimouski Semi-Bold"
         id="path3080" />
      <path
         d="m 710.91149,721.70621 c -4e-5,1.152 -0.34138,2.06933 -1.024,2.752 -0.64004,0.64 -1.53604,0.96 -2.688,0.96 -1.02404,0 -1.8987,-0.32 -2.624,-0.96 -0.6827,-0.68267 -1.02404,-1.6 -1.024,-2.752 l 0,-0.192 c -0.59737,0.59733 -1.30137,1.19466 -2.112,1.792 -0.76803,0.55466 -1.6427,1.04533 -2.624,1.472 -0.9387,0.42666 -1.94136,0.768 -3.008,1.024 -1.06669,0.25599 -2.13336,0.38399 -3.2,0.384 -2.73069,-10e-6 -5.24802,-0.49067 -7.552,-1.472 -2.30401,-0.98134 -4.28801,-2.304 -5.952,-3.968 -1.66401,-1.70667 -2.96534,-3.69066 -3.904,-5.952 -0.93867,-2.30399 -1.40801,-4.75732 -1.408,-7.36 -10e-6,-2.60265 0.46933,-5.03465 1.408,-7.296 0.93866,-2.30398 2.23999,-4.30931 3.904,-6.016 1.70665,-1.70664 3.71198,-3.05064 6.016,-4.032 2.30398,-1.02397 4.79998,-1.53597 7.488,-1.536 2.38931,3e-5 4.5013,0.40537 6.336,1.216 1.83463,0.8107 3.37063,1.8987 4.608,3.264 -4e-5,-1.1093 0.3413,-1.98397 1.024,-2.624 0.7253,-0.68264 1.59996,-1.02397 2.624,-1.024 1.15196,3e-5 2.04796,0.34136 2.688,1.024 0.68262,0.64003 1.02396,1.5147 1.024,2.624 l 0,28.672 m -18.304,-25.792 c -1.62136,2e-5 -3.13602,0.29869 -4.544,0.896 -1.36535,0.59736 -2.56002,1.42936 -3.584,2.496 -1.02402,1.02402 -1.83468,2.24002 -2.432,3.648 -0.59735,1.40802 -0.89601,2.90135 -0.896,4.48 -10e-6,1.57868 0.29865,3.07201 0.896,4.48 0.59732,1.36534 1.40798,2.56001 2.432,3.584 1.02398,1.024 2.21865,1.83467 3.584,2.432 1.40798,0.59734 2.92264,0.896 4.544,0.896 1.53597,0 2.96531,-0.29866 4.288,-0.896 1.3653,-0.59733 2.5173,-1.408 3.456,-2.432 0.9813,-1.02399 1.7493,-2.21866 2.304,-3.584 0.55463,-1.40799 0.83196,-2.90132 0.832,-4.48 -4e-5,-1.57865 -0.27737,-3.07198 -0.832,-4.48 -0.5547,-1.40798 -1.3227,-2.62398 -2.304,-3.648 -0.9387,-1.06664 -2.0907,-1.89864 -3.456,-2.496 -1.32269,-0.59731 -2.75203,-0.89598 -4.288,-0.896"
         style="font-size:64px;font-variant:normal;font-weight:600;font-stretch:normal;text-align:center;text-anchor:middle;fill:#000000;font-family:Rimouski;-inkscape-font-specification:Rimouski Semi-Bold"
         id="path3082" />
      <path
         d="m 720.65549,689.38621 c 1.06665,3e-5 1.85599,0.34136 2.368,1.024 0.51199,0.64003 0.81065,1.53603 0.896,2.688 1.23732,-1.3653 2.58132,-2.34664 4.032,-2.944 1.45065,-0.5973 3.13598,-0.89597 5.056,-0.896 1.06664,3e-5 1.94131,0.2987 2.624,0.896 0.72531,0.5547 1.08797,1.47203 1.088,2.752 -3e-5,1.02403 -0.25603,1.85603 -0.768,2.496 -0.51203,0.59736 -1.32269,0.93869 -2.432,1.024 -1.83469,0.12802 -3.34935,0.40536 -4.544,0.832 -1.19468,0.42669 -2.13335,1.02402 -2.816,1.792 -0.68268,0.72535 -1.15202,1.62135 -1.408,2.688 -0.25601,1.02402 -0.38401,2.17602 -0.384,3.456 l 0,16.832 c -10e-6,0.93866 -0.34135,1.74933 -1.024,2.432 -0.64001,0.64 -1.51468,0.96 -2.624,0.96 -1.10934,0 -2.00534,-0.32 -2.688,-0.96 -0.68267,-0.68267 -1.02401,-1.51467 -1.024,-2.496 l 0,-28.544 c -10e-6,-1.1093 0.25599,-2.04797 0.768,-2.816 0.55466,-0.81064 1.51466,-1.21597 2.88,-1.216"
         style="font-size:64px;font-variant:normal;font-weight:600;font-stretch:normal;text-align:center;text-anchor:middle;fill:#000000;font-family:Rimouski;-inkscape-font-specification:Rimouski Semi-Bold"
         id="path3084" />
      <path
         d="m 773.69249,691.88221 c 0.29864,-0.8533 0.74664,-1.47197 1.344,-1.856 0.63997,-0.42664 1.34397,-0.63997 2.112,-0.64 1.02397,3e-5 1.89864,0.34136 2.624,1.024 0.7253,0.6827 1.08797,1.5787 1.088,2.688 -3e-5,0.55469 -0.0854,1.06669 -0.256,1.536 l -16.384,44.288 c -0.34135,0.89598 -0.83202,1.53598 -1.472,1.92 -0.59735,0.42665 -1.25868,0.63998 -1.984,0.64 -0.93868,-2e-5 -1.79201,-0.34135 -2.56,-1.024 -0.76801,-0.68269 -1.15201,-1.55735 -1.152,-2.624 -1e-5,-0.42668 0.0853,-0.87468 0.256,-1.344 l 5.504,-14.4 -9.984,-27.392 c -0.0853,-0.29864 -0.17067,-0.55464 -0.256,-0.768 -0.0427,-0.25597 -0.064,-0.53331 -0.064,-0.832 0,-1.1093 0.36266,-2.0053 1.088,-2.688 0.76799,-0.68264 1.66399,-1.02397 2.688,-1.024 0.76799,3e-5 1.45066,0.21336 2.048,0.64 0.63999,0.38403 1.10932,1.0027 1.408,1.856 l 7.04,20.032 6.912,-20.032"
         style="font-size:64px;font-variant:normal;font-weight:600;font-stretch:normal;text-align:center;text-anchor:middle;fill:#000000;font-family:Rimouski;-inkscape-font-specification:Rimouski Semi-Bold"
         id="path3086" />
      <path
         d="m 800.60749,695.91421 c -1.62136,2e-5 -3.13602,0.29869 -4.544,0.896 -1.36535,0.59736 -2.56002,1.42936 -3.584,2.496 -1.02402,1.02402 -1.83468,2.24002 -2.432,3.648 -0.59735,1.40802 -0.89601,2.90135 -0.896,4.48 -10e-6,1.57868 0.29865,3.07201 0.896,4.48 0.59732,1.36534 1.40798,2.56001 2.432,3.584 1.02398,1.024 2.21865,1.83467 3.584,2.432 1.40798,0.59734 2.92264,0.896 4.544,0.896 1.57864,0 3.05064,-0.29866 4.416,-0.896 1.40797,-0.59733 2.62397,-1.408 3.648,-2.432 1.06663,-1.02399 1.89863,-2.21866 2.496,-3.584 0.5973,-1.40799 0.89596,-2.90132 0.896,-4.48 -4e-5,-1.57865 -0.2987,-3.07198 -0.896,-4.48 -0.59737,-1.40798 -1.42937,-2.62398 -2.496,-3.648 -1.02403,-1.06664 -2.24003,-1.89864 -3.648,-2.496 -1.36536,-0.59731 -2.83736,-0.89598 -4.416,-0.896 m 0,-7.36 c 2.60264,3e-5 5.03464,0.51203 7.296,1.536 2.30397,0.98136 4.3093,2.32536 6.016,4.032 1.70663,1.70669 3.05063,3.71202 4.032,6.016 0.98129,2.26135 1.47196,4.69335 1.472,7.296 -4e-5,2.60268 -0.49071,5.05601 -1.472,7.36 -0.98137,2.26134 -2.32537,4.24533 -4.032,5.952 -1.7067,1.664 -3.71203,2.98666 -6.016,3.968 -2.26136,0.98133 -4.69336,1.47199 -7.296,1.472 -2.60269,-10e-6 -5.05602,-0.49067 -7.36,-1.472 -2.26135,-0.98134 -4.24535,-2.304 -5.952,-3.968 -1.70668,-1.70667 -3.05068,-3.69066 -4.032,-5.952 -0.98134,-2.30399 -1.47201,-4.75732 -1.472,-7.36 -10e-6,-2.60265 0.49066,-5.03465 1.472,-7.296 0.98132,-2.30398 2.32532,-4.30931 4.032,-6.016 1.70665,-1.70664 3.69065,-3.05064 5.952,-4.032 2.30398,-1.02397 4.75731,-1.53597 7.36,-1.536"
         style="font-size:64px;font-variant:normal;font-weight:600;font-stretch:normal;text-align:center;text-anchor:middle;fill:#000000;font-family:Rimouski;-inkscape-font-specification:Rimouski Semi-Bold"
         id="path3088" />
      <path
         d="m 851.58249,725.41821 c -2.0907,0 -3.32803,-1.06667 -3.712,-3.2 -0.85336,1.23733 -2.00536,2.21866 -3.456,2.944 -1.45069,0.72533 -3.17869,1.08799 -5.184,1.088 -2.30402,-1e-5 -4.37335,-0.38401 -6.208,-1.152 -1.83468,-0.768 -3.39201,-1.83467 -4.672,-3.2 -1.28001,-1.36533 -2.26134,-3.008 -2.944,-4.928 -0.68267,-1.91999 -1.02401,-4.03199 -1.024,-6.336 l 0,-17.6 c -10e-6,-1.15197 0.31999,-2.04797 0.96,-2.688 0.68266,-0.63997 1.57866,-0.95997 2.688,-0.96 1.06665,3e-5 1.94132,0.32003 2.624,0.96 0.68265,0.64003 1.02399,1.53603 1.024,2.688 l 0,17.6 c -10e-6,2.51734 0.66132,4.54401 1.984,6.08 1.36532,1.49334 3.34931,2.24 5.952,2.24 2.60264,0 4.54397,-0.74666 5.824,-2.24 1.27997,-1.49333 1.91997,-3.51999 1.92,-6.08 l 0,-17.6 c -3e-5,-1.15197 0.31997,-2.04797 0.96,-2.688 0.68263,-0.63997 1.59997,-0.95997 2.752,-0.96 1.02397,3e-5 1.8773,0.32003 2.56,0.96 0.7253,0.64003 1.08796,1.53603 1.088,2.688 l 0,29.184 c -4e-5,0.98133 -0.32004,1.77066 -0.96,2.368 -0.59737,0.55466 -1.3227,0.832 -2.176,0.832"
         style="font-size:64px;font-variant:normal;font-weight:600;font-stretch:normal;text-align:center;text-anchor:middle;fill:#000000;font-family:Rimouski;-inkscape-font-specification:Rimouski Semi-Bold"
         id="path3090" />
      <path
         d="m 883.24249,721.70621 c -10e-6,1.152 -0.34135,2.06933 -1.024,2.752 -0.64001,0.64 -1.53601,0.96 -2.688,0.96 -1.02401,0 -1.89868,-0.32 -2.624,-0.96 -0.68267,-0.68267 -1.02401,-1.6 -1.024,-2.752 l 0,-42.816 c -10e-6,-1.10929 0.34133,-1.98396 1.024,-2.624 0.72532,-0.68262 1.59999,-1.02395 2.624,-1.024 1.15199,5e-5 2.04799,0.34138 2.688,1.024 0.68265,0.64004 1.02399,1.51471 1.024,2.624 l 0,42.816"
         style="font-size:64px;font-variant:normal;font-weight:600;font-stretch:normal;text-align:center;text-anchor:middle;fill:#000000;font-family:Rimouski;-inkscape-font-specification:Rimouski Semi-Bold"
         id="path3092" />
      <path
         d="m 896.86749,684.01021 c -10e-6,1.10937 -0.34135,2.00537 -1.024,2.688 -0.64001,0.64003 -1.53601,0.96003 -2.688,0.96 -1.02401,3e-5 -1.89868,-0.31997 -2.624,-0.96 -0.68267,-0.68263 -1.02401,-1.57863 -1.024,-2.688 l 0,-5.12 c -10e-6,-1.10929 0.34133,-1.98396 1.024,-2.624 0.72532,-0.68262 1.59999,-1.02395 2.624,-1.024 1.15199,5e-5 2.04799,0.34138 2.688,1.024 0.68265,0.64004 1.02399,1.51471 1.024,2.624 l 0,5.12 m 0,37.696 c -10e-6,1.152 -0.34135,2.06933 -1.024,2.752 -0.64001,0.64 -1.53601,0.96 -2.688,0.96 -1.02401,0 -1.89868,-0.32 -2.624,-0.96 -0.68267,-0.68267 -1.02401,-1.6 -1.024,-2.752 l 0,-27.392 c -10e-6,-1.06664 0.34133,-1.94131 1.024,-2.624 0.72532,-0.68264 1.59999,-1.02397 2.624,-1.024 1.15199,3e-5 2.04799,0.34136 2.688,1.024 0.68265,0.68269 1.02399,1.55736 1.024,2.624 l 0,27.392"
         style="font-size:64px;font-variant:normal;font-weight:600;font-stretch:normal;text-align:center;text-anchor:middle;fill:#000000;font-family:Rimouski;-inkscape-font-specification:Rimouski Semi-Bold"
         id="path3094" />
      <path
         d="m 910.49249,702.76221 2.752,0 6.016,-11.328 c 0.38398,-0.7253 0.87464,-1.2373 1.472,-1.536 0.59731,-0.3413 1.21597,-0.51197 1.856,-0.512 0.93864,3e-5 1.79197,0.34136 2.56,1.024 0.81064,0.64003 1.21597,1.47203 1.216,2.496 -3e-5,0.68269 -0.19203,1.36536 -0.576,2.048 l -6.592,11.392 6.848,13.44 c 0.29864,0.64 0.44797,1.30133 0.448,1.984 -3e-5,1.10933 -0.38403,2.00533 -1.152,2.688 -0.76803,0.64 -1.62136,0.96 -2.56,0.96 -0.68269,0 -1.32269,-0.17067 -1.92,-0.512 -0.55469,-0.34134 -1.00269,-0.896 -1.344,-1.664 l -6.528,-13.76 -2.496,0 0,12.224 c -10e-6,1.152 -0.34135,2.06933 -1.024,2.752 -0.64001,0.64 -1.53601,0.96 -2.688,0.96 -1.02401,0 -1.89868,-0.32 -2.624,-0.96 -0.68267,-0.68267 -1.02401,-1.6 -1.024,-2.752 l 0,-42.816 c -10e-6,-1.10929 0.34133,-1.98396 1.024,-2.624 0.72532,-0.68262 1.59999,-1.02395 2.624,-1.024 1.15199,5e-5 2.04799,0.34138 2.688,1.024 0.68265,0.64004 1.02399,1.51471 1.024,2.624 l 0,23.872"
         style="font-size:64px;font-variant:normal;font-weight:600;font-stretch:normal;text-align:center;text-anchor:middle;fill:#000000;font-family:Rimouski;-inkscape-font-specification:Rimouski Semi-Bold"
         id="path3096" />
      <path
         d="m 946.85749,688.55421 c 2.55997,3e-5 4.97064,0.4907 7.232,1.472 2.30397,0.98136 4.3093,2.30403 6.016,3.968 1.70663,1.62136 3.05063,3.54136 4.032,5.76 1.02396,2.17602 1.53596,4.48002 1.536,6.912 -4e-5,1.23735 -0.32004,2.17601 -0.96,2.816 -0.64004,0.64001 -1.53604,0.96001 -2.688,0.96 l -25.984,0 c 0.21332,1.19468 0.66132,2.30401 1.344,3.328 0.68265,1.02401 1.51465,1.92 2.496,2.688 1.02398,0.72534 2.13331,1.30134 3.328,1.728 1.19464,0.42667 2.41064,0.64 3.648,0.64 1.57864,0 3.02931,-0.27733 4.352,-0.832 1.32264,-0.55466 2.49597,-1.344 3.52,-2.368 0.42663,-0.38399 0.89597,-0.68266 1.408,-0.896 0.51197,-0.25599 1.00263,-0.38399 1.472,-0.384 0.9813,10e-6 1.79196,0.36267 2.432,1.088 0.68263,0.72534 1.02396,1.57867 1.024,2.56 -4e-5,0.512 -0.064,1.00267 -0.192,1.472 -0.12804,0.46933 -0.38404,0.896 -0.768,1.28 -1.66404,1.83466 -3.6267,3.2 -5.888,4.096 -2.26136,0.89599 -4.71469,1.34399 -7.36,1.344 -2.60269,-10e-6 -5.05602,-0.49067 -7.36,-1.472 -2.26135,-0.98134 -4.24535,-2.304 -5.952,-3.968 -1.70668,-1.70667 -3.05068,-3.69066 -4.032,-5.952 -0.98134,-2.30399 -1.47201,-4.75732 -1.472,-7.36 -10e-6,-2.60265 0.49066,-5.03465 1.472,-7.296 0.98132,-2.30398 2.32532,-4.30931 4.032,-6.016 1.70665,-1.70664 3.69065,-3.05064 5.952,-4.032 2.30398,-1.02397 4.75731,-1.53597 7.36,-1.536 m 0,7.36 c -1.23736,2e-5 -2.45336,0.21336 -3.648,0.64 -1.19469,0.42669 -2.28269,1.02402 -3.264,1.792 -0.93868,0.76802 -1.74935,1.66402 -2.432,2.688 -0.68268,1.02402 -1.15201,2.13335 -1.408,3.328 l 21.504,0 c -0.21337,-1.19465 -0.66137,-2.30398 -1.344,-3.328 -0.6827,-1.02398 -1.5147,-1.91998 -2.496,-2.688 -0.98136,-0.76798 -2.06936,-1.36531 -3.264,-1.792 -1.19469,-0.42664 -2.41069,-0.63998 -3.648,-0.64"
         style="font-size:64px;font-variant:normal;font-weight:600;font-stretch:normal;text-align:center;text-anchor:middle;fill:#000000;font-family:Rimouski;-inkscape-font-specification:Rimouski Semi-Bold"
         id="path3098" />
      <path
         d="m 993.05649,693.16221 c 1.15198,-1.40797 2.64532,-2.5173 4.48,-3.328 1.83465,-0.8533 3.96801,-1.27997 6.40001,-1.28 2.432,3e-5 4.7786,0.46936 7.04,1.408 2.304,0.9387 4.3306,2.26136 6.08,3.968 1.7493,1.66403 3.1359,3.64802 4.16,5.952 1.0666,2.30402 1.5999,4.82135 1.6,7.552 -10e-5,2.68801 -0.5334,5.18401 -1.6,7.488 -1.0241,2.304 -2.4107,4.288 -4.16,5.952 -1.7494,1.664 -3.776,2.96533 -6.08,3.904 -2.2614,0.93866 -4.608,1.40799 -7.04,1.408 -1.152,-10e-6 -2.2827,-0.14934 -3.392,-0.448 -1.0667,-0.256 -2.0907,-0.59734 -3.07201,-1.024 -0.93868,-0.46934 -1.81335,-1.00267 -2.624,-1.6 -0.81068,-0.59734 -1.49335,-1.216 -2.048,-1.856 -0.12801,1.23733 -0.46935,2.24 -1.024,3.008 -0.51201,0.768 -1.51468,1.152 -3.008,1.152 -0.89601,0 -1.64268,-0.29867 -2.24,-0.896 -0.59734,-0.59734 -0.89601,-1.38667 -0.896,-2.368 l 0,-43.264 c -10e-6,-1.10929 0.34133,-1.98396 1.024,-2.624 0.72532,-0.68262 1.62132,-1.02395 2.688,-1.024 1.15199,5e-5 2.04799,0.34138 2.688,1.024 0.68265,0.64004 1.02399,1.51471 1.024,2.624 l 0,14.272 m 10.88001,2.752 c -1.536,2e-5 -2.9654,0.29869 -4.28801,0.896 -1.32269,0.59736 -2.47469,1.42936 -3.456,2.496 -0.98135,1.02402 -1.74935,2.24002 -2.304,3.648 -0.55468,1.40802 -0.83201,2.90135 -0.832,4.48 -1e-5,1.57868 0.27732,3.07201 0.832,4.48 0.55465,1.36534 1.32265,2.56001 2.304,3.584 0.98131,1.024 2.13331,1.83467 3.456,2.432 1.32261,0.59734 2.75201,0.896 4.28801,0.896 1.5786,0 3.072,-0.29866 4.48,-0.896 1.408,-0.59733 2.624,-1.408 3.648,-2.432 1.024,-1.02399 1.8346,-2.21866 2.432,-3.584 0.5973,-1.40799 0.896,-2.90132 0.896,-4.48 0,-1.57865 -0.2987,-3.07198 -0.896,-4.48 -0.5974,-1.40798 -1.408,-2.62398 -2.432,-3.648 -1.024,-1.06664 -2.24,-1.89864 -3.648,-2.496 -1.408,-0.59731 -2.9014,-0.89598 -4.48,-0.896"
         style="font-size:64px;font-variant:normal;font-weight:600;font-stretch:normal;text-align:center;text-anchor:middle;fill:#000000;font-family:Rimouski;-inkscape-font-specification:Rimouski Semi-Bold"
         id="path3100" />
      <path
         d="m 1045.2325,688.55421 c 2.56,3e-5 4.9706,0.4907 7.232,1.472 2.304,0.98136 4.3093,2.30403 6.016,3.968 1.7066,1.62136 3.0506,3.54136 4.032,5.76 1.0239,2.17602 1.5359,4.48002 1.536,6.912 -1e-4,1.23735 -0.3201,2.17601 -0.96,2.816 -0.6401,0.64001 -1.5361,0.96001 -2.688,0.96 l -25.984,0 c 0.2133,1.19468 0.6613,2.30401 1.344,3.328 0.6826,1.02401 1.5146,1.92 2.496,2.688 1.024,0.72534 2.1333,1.30134 3.328,1.728 1.1946,0.42667 2.4106,0.64 3.648,0.64 1.5786,0 3.0293,-0.27733 4.352,-0.832 1.3226,-0.55466 2.496,-1.344 3.52,-2.368 0.4266,-0.38399 0.896,-0.68266 1.408,-0.896 0.512,-0.25599 1.0026,-0.38399 1.472,-0.384 0.9813,10e-6 1.792,0.36267 2.432,1.088 0.6826,0.72534 1.024,1.57867 1.024,2.56 0,0.512 -0.064,1.00267 -0.192,1.472 -0.128,0.46933 -0.384,0.896 -0.768,1.28 -1.664,1.83466 -3.6267,3.2 -5.888,4.096 -2.2614,0.89599 -4.7147,1.34399 -7.36,1.344 -2.6027,-10e-6 -5.056,-0.49067 -7.36,-1.472 -2.2614,-0.98134 -4.2454,-2.304 -5.952,-3.968 -1.7067,-1.70667 -3.0507,-3.69066 -4.032,-5.952 -0.9813,-2.30399 -1.472,-4.75732 -1.472,-7.36 0,-2.60265 0.4907,-5.03465 1.472,-7.296 0.9813,-2.30398 2.3253,-4.30931 4.032,-6.016 1.7066,-1.70664 3.6906,-3.05064 5.952,-4.032 2.304,-1.02397 4.7573,-1.53597 7.36,-1.536 m 0,7.36 c -1.2374,2e-5 -2.4534,0.21336 -3.648,0.64 -1.1947,0.42669 -2.2827,1.02402 -3.264,1.792 -0.9387,0.76802 -1.7494,1.66402 -2.432,2.688 -0.6827,1.02402 -1.152,2.13335 -1.408,3.328 l 21.504,0 c -0.2134,-1.19465 -0.6614,-2.30398 -1.344,-3.328 -0.6827,-1.02398 -1.5147,-1.91998 -2.496,-2.688 -0.9814,-0.76798 -2.0694,-1.36531 -3.264,-1.792 -1.1947,-0.42664 -2.4107,-0.63998 -3.648,-0.64"
         style="font-size:64px;font-variant:normal;font-weight:600;font-stretch:normal;text-align:center;text-anchor:middle;fill:#000000;font-family:Rimouski;-inkscape-font-specification:Rimouski Semi-Bold"
         id="path3102" />
      <path
         d="m 1078.9275,702.89021 c 1.6213,0.64002 2.9866,1.28002 4.096,1.92 1.152,0.64002 2.112,1.32268 2.88,2.048 0.9813,0.98135 1.6853,2.11201 2.112,3.392 0.4266,1.23734 0.64,2.77334 0.64,4.608 0,1.36534 -0.256,2.688 -0.768,3.968 -0.512,1.28 -1.2587,2.432 -2.24,3.456 -0.9387,0.98133 -2.0907,1.792 -3.456,2.432 -1.3227,0.59733 -2.8374,0.896 -4.544,0.896 -1.4934,0 -2.9654,-0.23467 -4.416,-0.704 -1.408,-0.512 -2.6027,-1.152 -3.584,-1.92 -0.5974,-0.46934 -1.1094,-1.00267 -1.536,-1.6 -0.384,-0.59733 -0.576,-1.28 -0.576,-2.048 0,-0.85333 0.2987,-1.64266 0.896,-2.368 0.64,-0.768 1.408,-1.152 2.304,-1.152 0.768,0 1.5786,0.256 2.432,0.768 0.64,0.384 1.3226,0.704 2.048,0.96 0.7253,0.256 1.536,0.384 2.432,0.384 1.28,0 2.2186,-0.32 2.816,-0.96 0.5973,-0.68266 0.896,-1.51466 0.896,-2.496 0,-0.93866 -0.1707,-1.64266 -0.512,-2.112 -0.2987,-0.51199 -0.6827,-0.93866 -1.152,-1.28 -0.9814,-0.72532 -2.0694,-1.27999 -3.264,-1.664 -1.152,-0.38399 -2.2827,-0.89599 -3.392,-1.536 -1.4934,-0.85332 -2.6667,-1.94132 -3.52,-3.264 -0.8534,-1.32265 -1.28,-3.02931 -1.28,-5.12 0,-1.53598 0.256,-2.92264 0.768,-4.16 0.512,-1.27997 1.216,-2.36797 2.112,-3.264 0.9386,-0.89597 2.0266,-1.57864 3.264,-2.048 1.2373,-0.51197 2.6026,-0.76797 4.096,-0.768 1.4933,3e-5 2.9653,0.27736 4.416,0.832 1.4506,0.5547 2.56,1.3867 3.328,2.496 0.512,0.72536 0.768,1.64269 0.768,2.752 0,0.89602 -0.2774,1.68536 -0.832,2.368 -0.512,0.64002 -1.3227,0.96002 -2.432,0.96 -0.4267,2e-5 -0.896,-0.0853 -1.408,-0.256 -0.4694,-0.21331 -0.832,-0.49064 -1.088,-0.832 -0.7254,-0.93864 -1.7707,-1.40798 -3.136,-1.408 -0.6827,2e-5 -1.3014,0.25602 -1.856,0.768 -0.512,0.51202 -0.768,1.25869 -0.768,2.24 0,0.89602 0.192,1.60002 0.576,2.112 0.4266,0.46935 1.3866,1.00269 2.88,1.6"
         style="font-size:64px;font-variant:normal;font-weight:600;font-stretch:normal;text-align:center;text-anchor:middle;fill:#000000;font-family:Rimouski;-inkscape-font-specification:Rimouski Semi-Bold"
         id="path3104" />
      <path
         d="m 1100.8125,689.70621 2.304,0 c 1.1093,3e-5 1.984,0.34136 2.624,1.024 0.6826,0.64003 1.024,1.53603 1.024,2.688 0,1.02403 -0.3414,1.89869 -1.024,2.624 -0.64,0.68269 -1.5147,1.02402 -2.624,1.024 l -2.304,0 0,17.024 c 0,0.85334 0.1066,1.53601 0.32,2.048 0.256,0.512 0.5973,0.91734 1.024,1.216 0.4266,0.29867 0.896,0.512 1.408,0.64 0.512,0.128 1.0666,0.21334 1.664,0.256 0.9813,0.0853 1.728,0.46934 2.24,1.152 0.5546,0.64 0.832,1.51467 0.832,2.624 0,1.024 -0.3627,1.856 -1.088,2.496 -0.7254,0.59733 -1.792,0.896 -3.2,0.896 -1.4934,0 -2.88,-0.21334 -4.16,-0.64 -1.28,-0.42667 -2.4107,-1.088 -3.392,-1.984 -0.9387,-0.93867 -1.6854,-2.112 -2.24,-3.52 -0.512,-1.45066 -0.768,-3.15733 -0.768,-5.12 l 0,-17.088 c -0.9813,-0.12798 -1.7493,-0.53331 -2.304,-1.216 -0.512,-0.68264 -0.768,-1.49331 -0.768,-2.432 0,-1.02397 0.256,-1.85597 0.768,-2.496 0.5547,-0.68264 1.3227,-1.06664 2.304,-1.152 l 0,-10.816 c 0,-1.15196 0.3413,-2.04796 1.024,-2.688 0.7253,-0.68262 1.6,-1.02395 2.624,-1.024 1.152,5e-5 2.048,0.34138 2.688,1.024 0.6826,0.64004 1.024,1.53604 1.024,2.688 l 0,10.752"
         style="font-size:64px;font-variant:normal;font-weight:600;font-stretch:normal;text-align:center;text-anchor:middle;fill:#000000;font-family:Rimouski;-inkscape-font-specification:Rimouski Semi-Bold"
         id="path3106" />
      <path
         d="m 1119.6175,706.85821 c 0,1.06668 -0.3414,1.94135 -1.024,2.624 -0.64,0.68268 -1.536,1.02401 -2.688,1.024 -1.024,10e-6 -1.8987,-0.34132 -2.624,-1.024 -0.6827,-0.68265 -1.024,-1.55732 -1.024,-2.624 l 0,-25.024 c 0,-1.10929 0.3413,-1.98396 1.024,-2.624 0.7253,-0.68262 1.6,-1.02396 2.624,-1.024 1.152,4e-5 2.048,0.34138 2.688,1.024 0.6826,0.64004 1.024,1.51471 1.024,2.624 l 0,25.024 m 0,14.848 c 0,1.152 -0.3414,2.06933 -1.024,2.752 -0.64,0.64 -1.536,0.96 -2.688,0.96 -1.024,0 -1.8987,-0.32 -2.624,-0.96 -0.6827,-0.68267 -1.024,-1.6 -1.024,-2.752 l 0,-3.904 c 0,-1.06666 0.3413,-1.94133 1.024,-2.624 0.7253,-0.68266 1.6,-1.02399 2.624,-1.024 1.152,10e-6 2.048,0.34134 2.688,1.024 0.6826,0.68267 1.024,1.55734 1.024,2.624 l 0,3.904"
         style="font-size:64px;font-variant:normal;font-weight:600;font-stretch:normal;text-align:center;text-anchor:middle;fill:#000000;font-family:Rimouski;-inkscape-font-specification:Rimouski Semi-Bold"
         id="path3108" />
    </g>
  </g>
</svg>
