<?xml version="1.0" encoding="UTF-8" standalone="no"?>
<!-- Created with Inkscape (http://www.inkscape.org/) -->

<svg
   xmlns:dc="http://purl.org/dc/elements/1.1/"
   xmlns:cc="http://creativecommons.org/ns#"
   xmlns:rdf="http://www.w3.org/1999/02/22-rdf-syntax-ns#"
   xmlns:svg="http://www.w3.org/2000/svg"
   xmlns="http://www.w3.org/2000/svg"
   xmlns:sodipodi="http://sodipodi.sourceforge.net/DTD/sodipodi-0.dtd"
   xmlns:inkscape="http://www.inkscape.org/namespaces/inkscape"
   width="1366"
   height="768"
   id="svg2"
   version="1.1"
   inkscape:version="0.48.5 r10040"
   sodipodi:docname="EVENT1_your.svg">
  <defs
     id="defs4" />
  <sodipodi:namedview
     id="base"
     pagecolor="#ffffff"
     bordercolor="#666666"
     borderopacity="1.0"
     inkscape:pageopacity="0.0"
     inkscape:pageshadow="2"
     inkscape:zoom="0.49497475"
     inkscape:cx="909.88427"
     inkscape:cy="351.2186"
     inkscape:document-units="px"
     inkscape:current-layer="layer1"
     showgrid="false"
     inkscape:window-width="1680"
     inkscape:window-height="1001"
     inkscape:window-x="25"
     inkscape:window-y="0"
     inkscape:window-maximized="0" />
  <metadata
     id="metadata7">
    <rdf:RDF>
      <cc:Work
         rdf:about="">
        <dc:format>image/svg+xml</dc:format>
        <dc:type
           rdf:resource="http://purl.org/dc/dcmitype/StillImage" />
        <dc:title></dc:title>
      </cc:Work>
    </rdf:RDF>
  </metadata>
  <g
     inkscape:label="Layer 1"
     inkscape:groupmode="layer"
     id="layer1"
     transform="translate(0,-284.36218)">
    <g
       id="g3089"
       transform="translate(-9.2914314,150.98061)">
      <path
         d="m 91.33486,774.433 0,55.44 c -2.4e-5,2.59201 -0.768023,4.65601 -2.304,6.192 -1.44002,1.44 -3.456018,2.16 -6.048,2.16 -2.304013,0 -4.272011,-0.72 -5.904,-2.16 -1.536008,-1.53599 -2.304007,-3.59999 -2.304,-6.192 l 0,-55.44 c -2.208005,-0.28793 -3.936003,-1.15193 -5.184,-2.592 -1.152001,-1.43993 -1.728,-3.35993 -1.728,-5.76 0,-2.11192 0.575999,-3.88792 1.728,-5.328 1.247997,-1.53592 2.975995,-2.44792 5.184,-2.736 l 0,-7.344 c -7e-6,-4.4159 0.575992,-8.2079 1.728,-11.376 1.24799,-3.26389 2.927988,-5.90389 5.04,-7.92 2.207984,-2.11189 4.751981,-3.64789 7.632,-4.608 2.879976,-0.95988 5.999972,-1.43988 9.36,-1.44 3.16797,1.2e-4 5.56796,0.72012 7.2,2.16 1.63196,1.34411 2.44796,3.16811 2.448,5.472 -4e-5,2.49611 -0.62404,4.5121 -1.872,6.048 -1.15204,1.4401 -2.83204,2.2561 -5.04,2.448 -1.344032,0.0961 -2.592031,0.2881 -3.744,0.576 -1.152029,0.2881 -2.208028,0.7681 -3.168,1.44 -0.960026,0.6721 -1.728025,1.5841 -2.304,2.736 -0.480024,1.1521 -0.720024,2.68809 -0.72,4.608 l 0,7.056 5.184,0 c 2.495969,8e-5 4.46397,0.81608 5.904,2.448 1.53596,1.53608 2.30396,3.45608 2.304,5.76 -4e-5,2.59207 -0.76804,4.65607 -2.304,6.192 -1.44003,1.44007 -3.408031,2.16007 -5.904,2.16 l -5.184,0"
         style="font-size:144px;font-style:normal;font-variant:normal;font-weight:600;font-stretch:normal;text-align:start;line-height:100%;letter-spacing:0px;word-spacing:0px;writing-mode:lr-tb;text-anchor:start;fill:#000000;fill-opacity:1;stroke:none;font-family:Rimouski;-inkscape-font-specification:Rimouski Semi-Bold"
         id="path3014"
         inkscape:connector-curvature="0" />
      <path
         d="m 188.58886,829.873 c -9e-5,2.59201 -0.76809,4.65601 -2.304,6.192 -1.44008,1.44 -3.45608,2.16 -6.048,2.16 -2.30408,0 -4.27207,-0.72 -5.904,-2.16 -1.53607,-1.53599 -2.30407,-3.59999 -2.304,-6.192 l 0,-0.432 c -1.34407,1.34401 -2.92807,2.68801 -4.752,4.032 -1.72806,1.24801 -3.69606,2.35201 -5.904,3.312 -2.11206,0.96 -4.36806,1.728 -6.768,2.304 -2.40005,0.576 -4.80005,0.864 -7.2,0.864 -6.14404,0 -11.80803,-1.104 -16.992,-3.312 -5.18402,-2.20799 -9.64802,-5.18399 -13.392,-8.928 -3.74401,-3.83998 -6.67201,-8.30398 -8.784,-13.392 -2.112,-5.18397 -3.168,-10.70396 -3.168,-16.56 0,-5.85595 1.056,-11.32794 3.168,-16.416 2.11199,-5.18393 5.03999,-9.69593 8.784,-13.536 3.83998,-3.83992 8.35198,-6.86392 13.536,-9.072 5.18397,-2.30391 10.79996,-3.45591 16.848,-3.456 5.37595,9e-5 10.12794,0.91209 14.256,2.736 4.12794,1.82408 7.58393,4.27208 10.368,7.344 -7e-5,-2.49592 0.76793,-4.46392 2.304,-5.904 1.63193,-1.53592 3.59992,-2.30391 5.904,-2.304 2.59192,9e-5 4.60792,0.76808 6.048,2.304 1.53591,1.44008 2.30391,3.40808 2.304,5.904 l 0,64.512 m -41.184,-58.032 c -3.64804,7e-5 -7.05604,0.67207 -10.224,2.016 -3.07203,1.34407 -5.76003,3.21607 -8.064,5.616 -2.30403,2.30406 -4.12802,5.04006 -5.472,8.208 -1.34402,3.16805 -2.01602,6.52805 -2.016,10.08 -2e-5,3.55204 0.67198,6.91204 2.016,10.08 1.34398,3.07203 3.16797,5.76003 5.472,8.064 2.30397,2.30402 4.99197,4.12802 8.064,5.472 3.16796,1.34402 6.57596,2.01602 10.224,2.016 3.45595,2e-5 6.67195,-0.67198 9.648,-2.016 3.07194,-1.34398 5.66394,-3.16798 7.776,-5.472 2.20793,-2.30397 3.93593,-4.99197 5.184,-8.064 1.24793,-3.16796 1.87193,-6.52796 1.872,-10.08 -7e-5,-3.55195 -0.62407,-6.91195 -1.872,-10.08 -1.24807,-3.16794 -2.97607,-5.90394 -5.184,-8.208 -2.11206,-2.39993 -4.70406,-4.27193 -7.776,-5.616 -2.97605,-1.34393 -6.19205,-2.01593 -9.648,-2.016"
         style="font-size:144px;font-style:normal;font-variant:normal;font-weight:600;font-stretch:normal;text-align:start;line-height:100%;letter-spacing:0px;word-spacing:0px;writing-mode:lr-tb;text-anchor:start;fill:#000000;fill-opacity:1;stroke:none;font-family:Rimouski;-inkscape-font-specification:Rimouski Semi-Bold"
         id="path3016"
         inkscape:connector-curvature="0" />
      <path
         d="m 244.06486,762.769 c 1.24795,-3.74392 3.83995,-5.61591 7.776,-5.616 2.11194,9e-5 4.03194,0.76808 5.76,2.304 1.72794,1.53608 2.59194,3.55208 2.592,6.048 -6e-5,1.15208 -0.19206,2.30407 -0.576,3.456 l -23.472,63.504 c -0.67204,1.82401 -1.72804,3.26401 -3.168,4.32 -1.34404,0.96 -2.83203,1.44 -4.464,1.44 -1.63203,0 -3.16803,-0.48 -4.608,-1.44 -1.34403,-0.95999 -2.40003,-2.39999 -3.168,-4.32 l -23.472,-63.216 c -0.576,-1.24793 -0.864,-2.49592 -0.864,-3.744 0,-2.49592 0.864,-4.51192 2.592,-6.048 1.82399,-1.53592 3.79199,-2.30391 5.904,-2.304 2.11199,9e-5 3.74399,0.48008 4.896,1.44 1.15198,0.86408 2.11198,2.25608 2.88,4.176 l 15.84,43.92 15.552,-43.92"
         style="font-size:144px;font-style:normal;font-variant:normal;font-weight:600;font-stretch:normal;text-align:start;line-height:100%;letter-spacing:0px;word-spacing:0px;writing-mode:lr-tb;text-anchor:start;fill:#000000;fill-opacity:1;stroke:none;font-family:Rimouski;-inkscape-font-specification:Rimouski Semi-Bold"
         id="path3018"
         inkscape:connector-curvature="0" />
      <path
         d="m 304.62361,771.841 c -3.64804,7e-5 -7.05604,0.67207 -10.224,2.016 -3.07203,1.34407 -5.76003,3.21607 -8.064,5.616 -2.30403,2.30406 -4.12802,5.04006 -5.472,8.208 -1.34402,3.16805 -2.01602,6.52805 -2.016,10.08 -2e-5,3.55204 0.67198,6.91204 2.016,10.08 1.34398,3.07203 3.16797,5.76003 5.472,8.064 2.30397,2.30402 4.99197,4.12802 8.064,5.472 3.16796,1.34402 6.57596,2.01602 10.224,2.016 3.55195,2e-5 6.86395,-0.67198 9.936,-2.016 3.16794,-1.34398 5.90394,-3.16798 8.208,-5.472 2.39993,-2.30397 4.27193,-4.99197 5.616,-8.064 1.34393,-3.16796 2.01593,-6.52796 2.016,-10.08 -7e-5,-3.55195 -0.67207,-6.91195 -2.016,-10.08 -1.34407,-3.16794 -3.21607,-5.90394 -5.616,-8.208 -2.30406,-2.39993 -5.04006,-4.27193 -8.208,-5.616 -3.07205,-1.34393 -6.38405,-2.01593 -9.936,-2.016 m 0,-16.56 c 5.85595,9e-5 11.32794,1.15209 16.416,3.456 5.18393,2.20808 9.69593,5.23208 13.536,9.072 3.83992,3.84007 6.86392,8.35207 9.072,13.536 2.20791,5.08806 3.31191,10.56005 3.312,16.416 -9e-5,5.85604 -1.10409,11.37603 -3.312,16.56 -2.20808,5.08802 -5.23208,9.55202 -9.072,13.392 -3.84007,3.74401 -8.35207,6.72001 -13.536,8.928 -5.08806,2.208 -10.56005,3.312 -16.416,3.312 -5.85604,0 -11.37603,-1.104 -16.56,-3.312 -5.08802,-2.20799 -9.55202,-5.18399 -13.392,-8.928 -3.84001,-3.83998 -6.86401,-8.30398 -9.072,-13.392 -2.208,-5.18397 -3.312,-10.70396 -3.312,-16.56 0,-5.85595 1.104,-11.32794 3.312,-16.416 2.20799,-5.18393 5.23199,-9.69593 9.072,-13.536 3.83998,-3.83992 8.30398,-6.86392 13.392,-9.072 5.18397,-2.30391 10.70396,-3.45591 16.56,-3.456"
         style="font-size:144px;font-style:normal;font-variant:normal;font-weight:600;font-stretch:normal;text-align:start;line-height:100%;letter-spacing:0px;word-spacing:0px;writing-mode:lr-tb;text-anchor:start;fill:#000000;fill-opacity:1;stroke:none;font-family:Rimouski;-inkscape-font-specification:Rimouski Semi-Bold"
         id="path3020"
         inkscape:connector-curvature="0" />
      <path
         d="m 366.32536,757.153 c 2.39998,9e-5 4.17598,0.76808 5.328,2.304 1.15198,1.44008 1.82398,3.45608 2.016,6.048 2.78398,-3.07192 5.80797,-5.27992 9.072,-6.624 3.26397,-1.34392 7.05596,-2.01591 11.376,-2.016 2.39996,9e-5 4.36795,0.67208 5.904,2.016 1.63195,1.24808 2.44795,3.31208 2.448,6.192 -5e-5,2.30408 -0.57605,4.17607 -1.728,5.616 -1.15205,1.34407 -2.97605,2.11207 -5.472,2.304 -4.12804,0.28807 -7.53604,0.91207 -10.224,1.872 -2.68803,0.96007 -4.80003,2.30407 -6.336,4.032 -1.53603,1.63206 -2.59202,3.64806 -3.168,6.048 -0.57602,2.30406 -0.86402,4.89605 -0.864,7.776 l 0,37.872 c -2e-5,2.11201 -0.76802,3.93601 -2.304,5.472 -1.44002,1.44 -3.40802,2.16 -5.904,2.16 -2.49601,0 -4.51201,-0.72 -6.048,-2.16 -1.53601,-1.53599 -2.30401,-3.40799 -2.304,-5.616 l 0,-64.224 c -1e-5,-2.49592 0.57599,-4.60792 1.728,-6.336 1.24799,-1.82392 3.40799,-2.73591 6.48,-2.736"
         style="font-size:144px;font-style:normal;font-variant:normal;font-weight:600;font-stretch:normal;text-align:start;line-height:100%;letter-spacing:0px;word-spacing:0px;writing-mode:lr-tb;text-anchor:start;fill:#000000;fill-opacity:1;stroke:none;font-family:Rimouski;-inkscape-font-specification:Rimouski Semi-Bold"
         id="path3022"
         inkscape:connector-curvature="0" />
      <path
         d="m 426.70861,745.057 c -2e-5,2.49609 -0.76802,4.51209 -2.304,6.048 -1.44002,1.44009 -3.45602,2.16009 -6.048,2.16 -2.30401,9e-5 -4.27201,-0.71991 -5.904,-2.16 -1.53601,-1.53591 -2.30401,-3.55191 -2.304,-6.048 l 0,-11.52 c -1e-5,-2.49589 0.76799,-4.46389 2.304,-5.904 1.63199,-1.53588 3.59999,-2.30388 5.904,-2.304 2.59198,1.2e-4 4.60798,0.76812 6.048,2.304 1.53598,1.44011 2.30398,3.40811 2.304,5.904 l 0,11.52 m 0,84.816 c -2e-5,2.59201 -0.76802,4.65601 -2.304,6.192 -1.44002,1.44 -3.45602,2.16 -6.048,2.16 -2.30401,0 -4.27201,-0.72 -5.904,-2.16 -1.53601,-1.53599 -2.30401,-3.59999 -2.304,-6.192 l 0,-61.632 c -1e-5,-2.39992 0.76799,-4.36792 2.304,-5.904 1.63199,-1.53592 3.59999,-2.30392 5.904,-2.304 2.59198,8e-5 4.60798,0.76808 6.048,2.304 1.53598,1.53608 2.30398,3.50408 2.304,5.904 l 0,61.632"
         style="font-size:144px;font-style:normal;font-variant:normal;font-weight:600;font-stretch:normal;text-align:start;line-height:100%;letter-spacing:0px;word-spacing:0px;writing-mode:lr-tb;text-anchor:start;fill:#000000;fill-opacity:1;stroke:none;font-family:Rimouski;-inkscape-font-specification:Rimouski Semi-Bold"
         id="path3024"
         inkscape:connector-curvature="0" />
      <path
         d="m 458.08486,757.873 5.184,0 c 2.49597,8e-5 4.46397,0.76808 5.904,2.304 1.53596,1.44008 2.30396,3.45608 2.304,6.048 -4e-5,2.30407 -0.76804,4.27207 -2.304,5.904 -1.44003,1.53607 -3.40803,2.30407 -5.904,2.304 l -5.184,0 0,38.304 c -2e-5,1.92003 0.23998,3.45603 0.72,4.608 0.57597,1.15202 1.34397,2.06402 2.304,2.736 0.95997,0.67202 2.01597,1.15202 3.168,1.44 1.15197,0.28802 2.39997,0.48002 3.744,0.576 2.20796,0.19202 3.88796,1.05602 5.04,2.592 1.24796,1.44002 1.87196,3.40801 1.872,5.904 -4e-5,2.30401 -0.81604,4.17601 -2.448,5.616 -1.63204,1.344 -4.03203,2.016 -7.2,2.016 -3.36003,0 -6.48002,-0.48 -9.36,-1.44 -2.88002,-0.95999 -5.42402,-2.44799 -7.632,-4.464 -2.11201,-2.11199 -3.79201,-4.75199 -5.04,-7.92 -1.15201,-3.26398 -1.72801,-7.10397 -1.728,-11.52 l 0,-38.448 c -2.20801,-0.28793 -3.936,-1.19993 -5.184,-2.736 -1.152,-1.53593 -1.728,-3.35993 -1.728,-5.472 0,-2.30392 0.576,-4.17592 1.728,-5.616 1.248,-1.53592 2.97599,-2.39992 5.184,-2.592 l 0,-24.336 c -10e-6,-2.59189 0.76799,-4.60789 2.304,-6.048 1.63199,-1.53588 3.59999,-2.30388 5.904,-2.304 2.59198,1.2e-4 4.60798,0.76812 6.048,2.304 1.53598,1.44011 2.30398,3.45611 2.304,6.048 l 0,24.192"
         style="font-size:144px;font-style:normal;font-variant:normal;font-weight:600;font-stretch:normal;text-align:start;line-height:100%;letter-spacing:0px;word-spacing:0px;writing-mode:lr-tb;text-anchor:start;fill:#000000;fill-opacity:1;stroke:none;font-family:Rimouski;-inkscape-font-specification:Rimouski Semi-Bold"
         id="path3026"
         inkscape:connector-curvature="0" />
      <path
         d="m 518.09236,755.281 c 5.75995,9e-5 11.18394,1.10409 16.272,3.312 5.18393,2.20808 9.69593,5.18408 13.536,8.928 3.83992,3.64807 6.86392,7.96807 9.072,12.96 2.30391,4.89606 3.45591,10.08005 3.456,15.552 -9e-5,2.78404 -0.72009,4.89604 -2.16,6.336 -1.44008,1.44004 -3.45608,2.16004 -6.048,2.16 l -58.464,0 c 0.47998,2.68804 1.48798,5.18403 3.024,7.488 1.53597,2.30403 3.40797,4.32003 5.616,6.048 2.30397,1.63202 4.79996,2.92802 7.488,3.888 2.68796,0.96002 5.42396,1.44002 8.208,1.44 3.55195,2e-5 6.81595,-0.62398 9.792,-1.872 2.97594,-1.24798 5.61594,-3.02398 7.92,-5.328 0.95994,-0.86397 2.01593,-1.53597 3.168,-2.016 1.15193,-0.57597 2.25593,-0.86397 3.312,-0.864 2.20793,3e-5 4.03193,0.81603 5.472,2.448 1.53592,1.63202 2.30392,3.55202 2.304,5.76 -8e-5,1.15202 -0.14408,2.25602 -0.432,3.312 -0.28808,1.05602 -0.86408,2.01602 -1.728,2.88 -3.74407,4.12801 -8.16007,7.20001 -13.248,9.216 -5.08806,2.016 -10.60805,3.024 -16.56,3.024 -5.85604,0 -11.37603,-1.104 -16.56,-3.312 -5.08802,-2.20799 -9.55202,-5.18399 -13.392,-8.928 -3.84001,-3.83998 -6.86401,-8.30398 -9.072,-13.392 -2.208,-5.18397 -3.312,-10.70396 -3.312,-16.56 0,-5.85595 1.104,-11.32794 3.312,-16.416 2.20799,-5.18393 5.23199,-9.69593 9.072,-13.536 3.83998,-3.83992 8.30398,-6.86392 13.392,-9.072 5.18397,-2.30391 10.70396,-3.45591 16.56,-3.456 m 0,16.56 c -2.78404,7e-5 -5.52004,0.48007 -8.208,1.44 -2.68804,0.96007 -5.13603,2.30407 -7.344,4.032 -2.11203,1.72806 -3.93603,3.74406 -5.472,6.048 -1.53602,2.30406 -2.59202,4.80005 -3.168,7.488 l 48.384,0 c -0.48007,-2.68795 -1.48807,-5.18394 -3.024,-7.488 -1.53607,-2.30394 -3.40806,-4.31994 -5.616,-6.048 -2.20806,-1.72793 -4.65606,-3.07193 -7.344,-4.032 -2.68805,-0.95993 -5.42405,-1.43993 -8.208,-1.44"
         style="font-size:144px;font-style:normal;font-variant:normal;font-weight:600;font-stretch:normal;text-align:start;line-height:100%;letter-spacing:0px;word-spacing:0px;writing-mode:lr-tb;text-anchor:start;fill:#000000;fill-opacity:1;stroke:none;font-family:Rimouski;-inkscape-font-specification:Rimouski Semi-Bold"
         id="path3028"
         inkscape:connector-curvature="0" />
      <path
         d="m 588.14611,796.465 c -2e-5,2.40004 -0.76802,4.36804 -2.304,5.904 -1.44002,1.53604 -3.45602,2.30404 -6.048,2.304 -2.30401,4e-5 -4.27201,-0.76796 -5.904,-2.304 -1.53601,-1.53596 -2.30401,-3.50396 -2.304,-5.904 l 0,-56.304 c -10e-6,-2.4959 0.76799,-4.46389 2.304,-5.904 1.63199,-1.53589 3.59999,-2.30389 5.904,-2.304 2.59198,1.1e-4 4.60798,0.76811 6.048,2.304 1.53598,1.44011 2.30398,3.4081 2.304,5.904 l 0,56.304 m 0,33.408 c -2e-5,2.59201 -0.76802,4.65601 -2.304,6.192 -1.44002,1.44 -3.45602,2.16 -6.048,2.16 -2.30401,0 -4.27201,-0.72 -5.904,-2.16 -1.53601,-1.53599 -2.30401,-3.59999 -2.304,-6.192 l 0,-8.784 c -10e-6,-2.39998 0.76799,-4.36797 2.304,-5.904 1.63199,-1.53597 3.59999,-2.30397 5.904,-2.304 2.59198,3e-5 4.60798,0.76803 6.048,2.304 1.53598,1.53603 2.30398,3.50402 2.304,5.904 l 0,8.784"
         style="font-size:144px;font-style:normal;font-variant:normal;font-weight:600;font-stretch:normal;text-align:start;line-height:100%;letter-spacing:0px;word-spacing:0px;writing-mode:lr-tb;text-anchor:start;fill:#000000;fill-opacity:1;stroke:none;font-family:Rimouski;-inkscape-font-specification:Rimouski Semi-Bold"
         id="path3030"
         inkscape:connector-curvature="0" />
    </g>
  </g>
</svg>
