<?xml version="1.0" encoding="UTF-8" standalone="no"?>
<!-- Created with Inkscape (http://www.inkscape.org/) -->

<svg
   xmlns:dc="http://purl.org/dc/elements/1.1/"
   xmlns:cc="http://creativecommons.org/ns#"
   xmlns:rdf="http://www.w3.org/1999/02/22-rdf-syntax-ns#"
   xmlns:svg="http://www.w3.org/2000/svg"
   xmlns="http://www.w3.org/2000/svg"
   xmlns:sodipodi="http://sodipodi.sourceforge.net/DTD/sodipodi-0.dtd"
   xmlns:inkscape="http://www.inkscape.org/namespaces/inkscape"
   width="1366"
   height="768"
   id="svg2"
   version="1.1"
   inkscape:version="0.48.5 r10040"
   sodipodi:docname="EVENT2.svg">
  <defs
     id="defs4" />
  <sodipodi:namedview
     id="base"
     pagecolor="#ffffff"
     bordercolor="#666666"
     borderopacity="1.0"
     inkscape:pageopacity="0.0"
     inkscape:pageshadow="2"
     inkscape:zoom="0.7"
     inkscape:cx="810.29741"
     inkscape:cy="163.65329"
     inkscape:document-units="px"
     inkscape:current-layer="layer1"
     showgrid="false"
     inkscape:window-width="1680"
     inkscape:window-height="1001"
     inkscape:window-x="25"
     inkscape:window-y="0"
     inkscape:window-maximized="0" />
  <metadata
     id="metadata7">
    <rdf:RDF>
      <cc:Work
         rdf:about="">
        <dc:format>image/svg+xml</dc:format>
        <dc:type
           rdf:resource="http://purl.org/dc/dcmitype/StillImage" />
        <dc:title></dc:title>
      </cc:Work>
    </rdf:RDF>
  </metadata>
  <g
     inkscape:label="Layer 1"
     inkscape:groupmode="layer"
     id="layer1"
     transform="translate(0,-284.36218)">
    <g
       style="font-size:40px;font-style:normal;font-weight:normal;line-height:125%;letter-spacing:0px;word-spacing:0px;fill:#000000;fill-opacity:1;stroke:none;font-family:Sans"
       id="text3118">
      <path
         d="m 354.77657,410.94363 c 0.66665,3e-5 1.21331,0.21336 1.64,0.64 0.42664,0.40003 0.63998,0.94669 0.64,1.64 -2e-5,0.69336 -0.21336,1.25336 -0.64,1.68 -0.42669,0.42669 -0.97335,0.64002 -1.64,0.64 l -4.72,0 0,22.4 c -2e-5,0.72 -0.21335,1.29333 -0.64,1.72 -0.42668,0.4 -0.98668,0.6 -1.68,0.6 -0.66668,0 -1.21335,-0.2 -1.64,-0.6 -0.40001,-0.42667 -0.60001,-1 -0.6,-1.72 l 0,-22.4 -4.76,0 c -0.69334,2e-5 -1.25334,-0.21331 -1.68,-0.64 -0.42667,-0.42664 -0.64,-0.98664 -0.64,-1.68 0,-0.69331 0.21333,-1.23997 0.64,-1.64 0.42666,-0.42664 0.98666,-0.63997 1.68,-0.64 l 14.04,0"
         style="font-variant:normal;font-weight:600;font-stretch:normal;font-family:Rimouski;-inkscape-font-specification:Rimouski Semi-Bold"
         id="path3123" />
      <path
         d="m 363.95344,419.50363 c 0.66666,-0.69331 1.47999,-1.23998 2.44,-1.64 0.95999,-0.42664 2.02666,-0.63998 3.2,-0.64 1.43999,2e-5 2.74665,0.26669 3.92,0.8 1.17332,0.50669 2.17332,1.21335 3,2.12 0.82665,0.90668 1.45331,1.98668 1.88,3.24 0.45331,1.22668 0.67998,2.56001 0.68,4 l 0,10.56 c -2e-5,0.72 -0.21335,1.29333 -0.64,1.72 -0.40002,0.4 -0.94669,0.6 -1.64,0.6 -0.66668,0 -1.21335,-0.2 -1.64,-0.6 -0.42668,-0.42667 -0.64002,-1 -0.64,-1.72 l 0,-10.56 c -2e-5,-0.79999 -0.12002,-1.53332 -0.36,-2.2 -0.21335,-0.69332 -0.54668,-1.27998 -1,-1.76 -0.42668,-0.50665 -0.96001,-0.90665 -1.6,-1.2 -0.64001,-0.29332 -1.37334,-0.43998 -2.2,-0.44 -0.80001,2e-5 -1.53334,0.14668 -2.2,0.44 -0.66667,0.29335 -1.24001,0.69335 -1.72,1.2 -0.48001,0.48002 -0.85334,1.06668 -1.12,1.76 -0.24001,0.66668 -0.36001,1.40001 -0.36,2.2 l 0,10.56 c -10e-6,0.72 -0.21334,1.29333 -0.64,1.72 -0.4,0.4 -0.96,0.6 -1.68,0.6 -0.64,0 -1.18667,-0.2 -1.64,-0.6 -0.42667,-0.42667 -0.64,-1 -0.64,-1.72 l 0,-26.76 c 0,-0.6933 0.21333,-1.23997 0.64,-1.64 0.45333,-0.42664 1,-0.63997 1.64,-0.64 0.72,3e-5 1.28,0.21336 1.68,0.64 0.42666,0.40003 0.63999,0.9467 0.64,1.64 l 0,8.32"
         style="font-variant:normal;font-weight:600;font-stretch:normal;font-family:Rimouski;-inkscape-font-specification:Rimouski Semi-Bold"
         id="path3125" />
      <path
         d="m 387.62532,414.38363 c -10e-6,0.69336 -0.21334,1.25336 -0.64,1.68 -0.40001,0.40002 -0.96001,0.60002 -1.68,0.6 -0.64001,2e-5 -1.18667,-0.19998 -1.64,-0.6 -0.42667,-0.42664 -0.64001,-0.98664 -0.64,-1.68 l 0,-3.2 c -1e-5,-0.6933 0.21333,-1.23997 0.64,-1.64 0.45333,-0.42664 0.99999,-0.63997 1.64,-0.64 0.71999,3e-5 1.27999,0.21336 1.68,0.64 0.42666,0.40003 0.63999,0.9467 0.64,1.64 l 0,3.2 m 0,23.56 c -10e-6,0.72 -0.21334,1.29333 -0.64,1.72 -0.40001,0.4 -0.96001,0.6 -1.68,0.6 -0.64001,0 -1.18667,-0.2 -1.64,-0.6 -0.42667,-0.42667 -0.64001,-1 -0.64,-1.72 l 0,-17.12 c -1e-5,-0.66665 0.21333,-1.21331 0.64,-1.64 0.45333,-0.42665 0.99999,-0.63998 1.64,-0.64 0.71999,2e-5 1.27999,0.21335 1.68,0.64 0.42666,0.42669 0.63999,0.97335 0.64,1.64 l 0,17.12"
         style="font-variant:normal;font-weight:600;font-stretch:normal;font-family:Rimouski;-inkscape-font-specification:Rimouski Semi-Bold"
         id="path3127" />
      <path
         d="m 397.74094,426.18363 c 1.01333,0.40001 1.86666,0.80001 2.56,1.2 0.71999,0.40001 1.31999,0.82668 1.8,1.28 0.61332,0.61334 1.05332,1.32001 1.32,2.12 0.26665,0.77334 0.39999,1.73334 0.4,2.88 -1e-5,0.85334 -0.16001,1.68 -0.48,2.48 -0.32001,0.8 -0.78668,1.52 -1.4,2.16 -0.58668,0.61333 -1.30668,1.12 -2.16,1.52 -0.82667,0.37333 -1.77334,0.56 -2.84,0.56 -0.93334,0 -1.85334,-0.14667 -2.76,-0.44 -0.88,-0.32 -1.62667,-0.72 -2.24,-1.2 -0.37333,-0.29333 -0.69333,-0.62667 -0.96,-1 -0.24,-0.37333 -0.36,-0.8 -0.36,-1.28 0,-0.53333 0.18667,-1.02666 0.56,-1.48 0.4,-0.48 0.88,-0.72 1.44,-0.72 0.48,0 0.98666,0.16 1.52,0.48 0.4,0.24 0.82666,0.44 1.28,0.6 0.45333,0.16 0.95999,0.24 1.52,0.24 0.79999,0 1.38666,-0.2 1.76,-0.6 0.37333,-0.42666 0.55999,-0.94666 0.56,-1.56 -1e-5,-0.58666 -0.10668,-1.02666 -0.32,-1.32 -0.18667,-0.31999 -0.42667,-0.58666 -0.72,-0.8 -0.61334,-0.45332 -1.29334,-0.79999 -2.04,-1.04 -0.72,-0.23999 -1.42667,-0.55999 -2.12,-0.96 -0.93334,-0.53332 -1.66667,-1.21332 -2.2,-2.04 -0.53333,-0.82665 -0.8,-1.89332 -0.8,-3.2 0,-0.95998 0.16,-1.82665 0.48,-2.6 0.32,-0.79998 0.76,-1.47998 1.32,-2.04 0.58666,-0.55998 1.26666,-0.98665 2.04,-1.28 0.77333,-0.31998 1.62666,-0.47998 2.56,-0.48 0.93333,2e-5 1.85332,0.17335 2.76,0.52 0.90666,0.34669 1.59999,0.86669 2.08,1.56 0.31999,0.45335 0.47999,1.02669 0.48,1.72 -10e-6,0.56002 -0.17335,1.05335 -0.52,1.48 -0.32001,0.40002 -0.82668,0.60002 -1.52,0.6 -0.26668,2e-5 -0.56001,-0.0533 -0.88,-0.16 -0.29334,-0.13332 -0.52001,-0.30665 -0.68,-0.52 -0.45334,-0.58665 -1.10667,-0.87998 -1.96,-0.88 -0.42667,2e-5 -0.81334,0.16002 -1.16,0.48 -0.32,0.32002 -0.48,0.78668 -0.48,1.4 0,0.56001 0.12,1.00001 0.36,1.32 0.26666,0.29335 0.86666,0.62668 1.8,1"
         style="font-variant:normal;font-weight:600;font-stretch:normal;font-family:Rimouski;-inkscape-font-specification:Rimouski Semi-Bold"
         id="path3129" />
      <path
         d="m 420.59407,414.38363 c -10e-6,0.69336 -0.21334,1.25336 -0.64,1.68 -0.40001,0.40002 -0.96001,0.60002 -1.68,0.6 -0.64001,2e-5 -1.18667,-0.19998 -1.64,-0.6 -0.42667,-0.42664 -0.64001,-0.98664 -0.64,-1.68 l 0,-3.2 c -1e-5,-0.6933 0.21333,-1.23997 0.64,-1.64 0.45333,-0.42664 0.99999,-0.63997 1.64,-0.64 0.71999,3e-5 1.27999,0.21336 1.68,0.64 0.42666,0.40003 0.63999,0.9467 0.64,1.64 l 0,3.2 m 0,23.56 c -10e-6,0.72 -0.21334,1.29333 -0.64,1.72 -0.40001,0.4 -0.96001,0.6 -1.68,0.6 -0.64001,0 -1.18667,-0.2 -1.64,-0.6 -0.42667,-0.42667 -0.64001,-1 -0.64,-1.72 l 0,-17.12 c -1e-5,-0.66665 0.21333,-1.21331 0.64,-1.64 0.45333,-0.42665 0.99999,-0.63998 1.64,-0.64 0.71999,2e-5 1.27999,0.21335 1.68,0.64 0.42666,0.42669 0.63999,0.97335 0.64,1.64 l 0,17.12"
         style="font-variant:normal;font-weight:600;font-stretch:normal;font-family:Rimouski;-inkscape-font-specification:Rimouski Semi-Bold"
         id="path3131" />
      <path
         d="m 426.46969,417.74363 c 1.30666,2e-5 2.08,0.66669 2.32,2 0.69333,-0.77331 1.54666,-1.38665 2.56,-1.84 1.01332,-0.45331 2.14666,-0.67998 3.4,-0.68 1.43999,2e-5 2.74665,0.26669 3.92,0.8 1.17332,0.50669 2.17332,1.21335 3,2.12 0.82665,0.90668 1.45331,1.98668 1.88,3.24 0.45331,1.22668 0.67998,2.56001 0.68,4 l 0,10.6 c -2e-5,0.72 -0.21335,1.28 -0.64,1.68 -0.40002,0.4 -0.94669,0.6 -1.64,0.6 -0.66668,0 -1.21335,-0.2 -1.64,-0.6 -0.42668,-0.4 -0.64002,-0.96 -0.64,-1.68 l 0,-10.6 c -2e-5,-0.77332 -0.12002,-1.49332 -0.36,-2.16 -0.24002,-0.69332 -0.58668,-1.29332 -1.04,-1.8 -0.42668,-0.50665 -0.96001,-0.90665 -1.6,-1.2 -0.64001,-0.29332 -1.36001,-0.43998 -2.16,-0.44 -0.80001,2e-5 -1.53334,0.14668 -2.2,0.44 -0.66667,0.29335 -1.24001,0.69335 -1.72,1.2 -0.48001,0.48002 -0.85334,1.06668 -1.12,1.76 -0.24001,0.66668 -0.36001,1.40001 -0.36,2.2 l 0,10.6 c -10e-6,0.72 -0.21334,1.28 -0.64,1.68 -0.4,0.4 -0.96,0.6 -1.68,0.6 -0.64,0 -1.18667,-0.2 -1.64,-0.6 -0.42667,-0.4 -0.64,-0.96 -0.64,-1.68 l 0,-18.24 c 0,-0.61331 0.18667,-1.09331 0.56,-1.44 0.4,-0.37331 0.86666,-0.55998 1.4,-0.56"
         style="font-variant:normal;font-weight:600;font-stretch:normal;font-family:Rimouski;-inkscape-font-specification:Rimouski Semi-Bold"
         id="path3133" />
      <path
         d="m 454.38157,426.18363 c 1.01332,0.40001 1.86665,0.80001 2.56,1.2 0.71998,0.40001 1.31998,0.82668 1.8,1.28 0.61332,0.61334 1.05332,1.32001 1.32,2.12 0.26665,0.77334 0.39998,1.73334 0.4,2.88 -2e-5,0.85334 -0.16002,1.68 -0.48,2.48 -0.32002,0.8 -0.78668,1.52 -1.4,2.16 -0.58668,0.61333 -1.30668,1.12 -2.16,1.52 -0.82668,0.37333 -1.77335,0.56 -2.84,0.56 -0.93334,0 -1.85334,-0.14667 -2.76,-0.44 -0.88001,-0.32 -1.62667,-0.72 -2.24,-1.2 -0.37334,-0.29333 -0.69334,-0.62667 -0.96,-1 -0.24,-0.37333 -0.36,-0.8 -0.36,-1.28 0,-0.53333 0.18666,-1.02666 0.56,-1.48 0.39999,-0.48 0.87999,-0.72 1.44,-0.72 0.47999,0 0.98666,0.16 1.52,0.48 0.39999,0.24 0.82666,0.44 1.28,0.6 0.45332,0.16 0.95999,0.24 1.52,0.24 0.79999,0 1.38665,-0.2 1.76,-0.6 0.37332,-0.42666 0.55999,-0.94666 0.56,-1.56 -10e-6,-0.58666 -0.10668,-1.02666 -0.32,-1.32 -0.18668,-0.31999 -0.42668,-0.58666 -0.72,-0.8 -0.61335,-0.45332 -1.29334,-0.79999 -2.04,-1.04 -0.72001,-0.23999 -1.42668,-0.55999 -2.12,-0.96 -0.93334,-0.53332 -1.66667,-1.21332 -2.2,-2.04 -0.53334,-0.82665 -0.80001,-1.89332 -0.8,-3.2 -1e-5,-0.95998 0.15999,-1.82665 0.48,-2.6 0.31999,-0.79998 0.75999,-1.47998 1.32,-2.04 0.58666,-0.55998 1.26666,-0.98665 2.04,-1.28 0.77332,-0.31998 1.62666,-0.47998 2.56,-0.48 0.93332,2e-5 1.85332,0.17335 2.76,0.52 0.90665,0.34669 1.59998,0.86669 2.08,1.56 0.31998,0.45335 0.47998,1.02669 0.48,1.72 -2e-5,0.56002 -0.17335,1.05335 -0.52,1.48 -0.32002,0.40002 -0.82668,0.60002 -1.52,0.6 -0.26668,2e-5 -0.56001,-0.0533 -0.88,-0.16 -0.29335,-0.13332 -0.52001,-0.30665 -0.68,-0.52 -0.45335,-0.58665 -1.10668,-0.87998 -1.96,-0.88 -0.42668,2e-5 -0.81334,0.16002 -1.16,0.48 -0.32001,0.32002 -0.48001,0.78668 -0.48,1.4 -10e-6,0.56001 0.11999,1.00001 0.36,1.32 0.26666,0.29335 0.86666,0.62668 1.8,1"
         style="font-variant:normal;font-weight:600;font-stretch:normal;font-family:Rimouski;-inkscape-font-specification:Rimouski Semi-Bold"
         id="path3135" />
      <path
         d="m 468.05969,417.94363 1.44,0 c 0.69333,2e-5 1.23999,0.21335 1.64,0.64 0.42666,0.40002 0.63999,0.96002 0.64,1.68 -1e-5,0.64002 -0.21334,1.18668 -0.64,1.64 -0.40001,0.42668 -0.94667,0.64002 -1.64,0.64 l -1.44,0 0,10.64 c -10e-6,0.53334 0.0667,0.96001 0.2,1.28 0.15999,0.32 0.37333,0.57334 0.64,0.76 0.26666,0.18667 0.55999,0.32 0.88,0.4 0.31999,0.08 0.66666,0.13334 1.04,0.16 0.61332,0.0533 1.07999,0.29334 1.4,0.72 0.34666,0.4 0.51999,0.94667 0.52,1.64 -10e-6,0.64 -0.22668,1.16 -0.68,1.56 -0.45334,0.37333 -1.12001,0.56 -2,0.56 -0.93334,0 -1.80001,-0.13333 -2.6,-0.4 -0.8,-0.26667 -1.50667,-0.68 -2.12,-1.24 -0.58667,-0.58667 -1.05334,-1.32 -1.4,-2.2 -0.32,-0.90666 -0.48,-1.97333 -0.48,-3.2 l 0,-10.68 c -0.61333,-0.08 -1.09333,-0.33332 -1.44,-0.76 -0.32,-0.42665 -0.48,-0.93331 -0.48,-1.52 0,-0.63998 0.16,-1.15998 0.48,-1.56 0.34667,-0.42665 0.82667,-0.66665 1.44,-0.72 l 0,-6.76 c 0,-0.71997 0.21333,-1.27997 0.64,-1.68 0.45333,-0.42664 1,-0.63997 1.64,-0.64 0.72,3e-5 1.28,0.21336 1.68,0.64 0.42666,0.40003 0.63999,0.96003 0.64,1.68 l 0,6.72"
         style="font-variant:normal;font-weight:600;font-stretch:normal;font-family:Rimouski;-inkscape-font-specification:Rimouski Semi-Bold"
         id="path3137" />
      <path
         d="m 496.16844,437.94363 c -2e-5,0.72 -0.21336,1.29333 -0.64,1.72 -0.40002,0.4 -0.96002,0.6 -1.68,0.6 -0.64002,0 -1.18669,-0.2 -1.64,-0.6 -0.42669,-0.42667 -0.64002,-1 -0.64,-1.72 l 0,-0.12 c -0.37335,0.37333 -0.81335,0.74667 -1.32,1.12 -0.48002,0.34667 -1.02668,0.65333 -1.64,0.92 -0.58668,0.26667 -1.21335,0.48 -1.88,0.64 -0.66668,0.16 -1.33335,0.24 -2,0.24 -1.70668,0 -3.28001,-0.30667 -4.72,-0.92 -1.44001,-0.61333 -2.68,-1.44 -3.72,-2.48 -1.04,-1.06666 -1.85333,-2.30666 -2.44,-3.72 -0.58667,-1.43999 -0.88,-2.97332 -0.88,-4.6 0,-1.62665 0.29333,-3.14665 0.88,-4.56 0.58667,-1.43998 1.4,-2.69332 2.44,-3.76 1.06666,-1.06665 2.31999,-1.90665 3.76,-2.52 1.43999,-0.63998 2.99999,-0.95998 4.68,-0.96 1.49332,2e-5 2.81332,0.25336 3.96,0.76 1.14665,0.50669 2.10665,1.18669 2.88,2.04 -2e-5,-0.69331 0.21331,-1.23998 0.64,-1.64 0.45331,-0.42665 0.99998,-0.63998 1.64,-0.64 0.71998,2e-5 1.27998,0.21335 1.68,0.64 0.42664,0.40002 0.63998,0.94669 0.64,1.64 l 0,17.92 m -11.44,-16.12 c -1.01334,2e-5 -1.96001,0.18668 -2.84,0.56 -0.85334,0.37335 -1.60001,0.89335 -2.24,1.56 -0.64001,0.64001 -1.14667,1.40001 -1.52,2.28 -0.37334,0.88001 -0.56,1.81334 -0.56,2.8 0,0.98668 0.18666,1.92001 0.56,2.8 0.37333,0.85334 0.87999,1.60001 1.52,2.24 0.63999,0.64 1.38666,1.14667 2.24,1.52 0.87999,0.37334 1.82666,0.56 2.84,0.56 0.95999,0 1.85332,-0.18666 2.68,-0.56 0.85332,-0.37333 1.57332,-0.88 2.16,-1.52 0.61332,-0.63999 1.09332,-1.38666 1.44,-2.24 0.34665,-0.87999 0.51998,-1.81332 0.52,-2.8 -2e-5,-0.98666 -0.17335,-1.91999 -0.52,-2.8 -0.34668,-0.87999 -0.82668,-1.63999 -1.44,-2.28 -0.58668,-0.66665 -1.30668,-1.18665 -2.16,-1.56 -0.82668,-0.37332 -1.72001,-0.55998 -2.68,-0.56"
         style="font-variant:normal;font-weight:600;font-stretch:normal;font-family:Rimouski;-inkscape-font-specification:Rimouski Semi-Bold"
         id="path3139" />
      <path
         d="m 504.57844,437.94363 c -10e-6,0.72 -0.21334,1.29333 -0.64,1.72 -0.4,0.4 -0.96,0.6 -1.68,0.6 -0.64,0 -1.18667,-0.2 -1.64,-0.6 -0.42667,-0.42667 -0.64,-1 -0.64,-1.72 l 0,-26.76 c 0,-0.6933 0.21333,-1.23997 0.64,-1.64 0.45333,-0.42664 1,-0.63997 1.64,-0.64 0.72,3e-5 1.28,0.21336 1.68,0.64 0.42666,0.40003 0.63999,0.9467 0.64,1.64 l 0,26.76"
         style="font-variant:normal;font-weight:600;font-stretch:normal;font-family:Rimouski;-inkscape-font-specification:Rimouski Semi-Bold"
         id="path3141" />
      <path
         d="m 513.09407,437.94363 c -10e-6,0.72 -0.21334,1.29333 -0.64,1.72 -0.40001,0.4 -0.96001,0.6 -1.68,0.6 -0.64001,0 -1.18667,-0.2 -1.64,-0.6 -0.42667,-0.42667 -0.64001,-1 -0.64,-1.72 l 0,-26.76 c -1e-5,-0.6933 0.21333,-1.23997 0.64,-1.64 0.45333,-0.42664 0.99999,-0.63997 1.64,-0.64 0.71999,3e-5 1.27999,0.21336 1.68,0.64 0.42666,0.40003 0.63999,0.9467 0.64,1.64 l 0,26.76"
         style="font-variant:normal;font-weight:600;font-stretch:normal;font-family:Rimouski;-inkscape-font-specification:Rimouski Semi-Bold"
         id="path3143" />
      <path
         d="m 539.44969,437.94363 c -2e-5,0.72 -0.21336,1.29333 -0.64,1.72 -0.40002,0.4 -0.96002,0.6 -1.68,0.6 -0.64002,0 -1.18669,-0.2 -1.64,-0.6 -0.42669,-0.42667 -0.64002,-1 -0.64,-1.72 l 0,-0.12 c -0.37335,0.37333 -0.81335,0.74667 -1.32,1.12 -0.48002,0.34667 -1.02668,0.65333 -1.64,0.92 -0.58668,0.26667 -1.21335,0.48 -1.88,0.64 -0.66668,0.16 -1.33335,0.24 -2,0.24 -1.70668,0 -3.28001,-0.30667 -4.72,-0.92 -1.44001,-0.61333 -2.68,-1.44 -3.72,-2.48 -1.04,-1.06666 -1.85333,-2.30666 -2.44,-3.72 -0.58667,-1.43999 -0.88,-2.97332 -0.88,-4.6 0,-1.62665 0.29333,-3.14665 0.88,-4.56 0.58667,-1.43998 1.4,-2.69332 2.44,-3.76 1.06666,-1.06665 2.31999,-1.90665 3.76,-2.52 1.43999,-0.63998 2.99999,-0.95998 4.68,-0.96 1.49332,2e-5 2.81332,0.25336 3.96,0.76 1.14665,0.50669 2.10665,1.18669 2.88,2.04 -2e-5,-0.69331 0.21331,-1.23998 0.64,-1.64 0.45331,-0.42665 0.99998,-0.63998 1.64,-0.64 0.71998,2e-5 1.27998,0.21335 1.68,0.64 0.42664,0.40002 0.63998,0.94669 0.64,1.64 l 0,17.92 m -11.44,-16.12 c -1.01334,2e-5 -1.96001,0.18668 -2.84,0.56 -0.85334,0.37335 -1.60001,0.89335 -2.24,1.56 -0.64001,0.64001 -1.14667,1.40001 -1.52,2.28 -0.37334,0.88001 -0.56,1.81334 -0.56,2.8 0,0.98668 0.18666,1.92001 0.56,2.8 0.37333,0.85334 0.87999,1.60001 1.52,2.24 0.63999,0.64 1.38666,1.14667 2.24,1.52 0.87999,0.37334 1.82666,0.56 2.84,0.56 0.95999,0 1.85332,-0.18666 2.68,-0.56 0.85332,-0.37333 1.57332,-0.88 2.16,-1.52 0.61332,-0.63999 1.09332,-1.38666 1.44,-2.24 0.34665,-0.87999 0.51998,-1.81332 0.52,-2.8 -2e-5,-0.98666 -0.17335,-1.91999 -0.52,-2.8 -0.34668,-0.87999 -0.82668,-1.63999 -1.44,-2.28 -0.58668,-0.66665 -1.30668,-1.18665 -2.16,-1.56 -0.82668,-0.37332 -1.72001,-0.55998 -2.68,-0.56"
         style="font-variant:normal;font-weight:600;font-stretch:normal;font-family:Rimouski;-inkscape-font-specification:Rimouski Semi-Bold"
         id="path3145" />
      <path
         d="m 548.05969,417.94363 1.44,0 c 0.69333,2e-5 1.23999,0.21335 1.64,0.64 0.42666,0.40002 0.63999,0.96002 0.64,1.68 -10e-6,0.64002 -0.21334,1.18668 -0.64,1.64 -0.40001,0.42668 -0.94667,0.64002 -1.64,0.64 l -1.44,0 0,10.64 c -1e-5,0.53334 0.0667,0.96001 0.2,1.28 0.15999,0.32 0.37333,0.57334 0.64,0.76 0.26666,0.18667 0.55999,0.32 0.88,0.4 0.31999,0.08 0.66666,0.13334 1.04,0.16 0.61332,0.0533 1.07999,0.29334 1.4,0.72 0.34666,0.4 0.51999,0.94667 0.52,1.64 -10e-6,0.64 -0.22668,1.16 -0.68,1.56 -0.45334,0.37333 -1.12001,0.56 -2,0.56 -0.93334,0 -1.80001,-0.13333 -2.6,-0.4 -0.8,-0.26667 -1.50667,-0.68 -2.12,-1.24 -0.58667,-0.58667 -1.05334,-1.32 -1.4,-2.2 -0.32,-0.90666 -0.48,-1.97333 -0.48,-3.2 l 0,-10.68 c -0.61333,-0.08 -1.09333,-0.33332 -1.44,-0.76 -0.32,-0.42665 -0.48,-0.93331 -0.48,-1.52 0,-0.63998 0.16,-1.15998 0.48,-1.56 0.34667,-0.42665 0.82667,-0.66665 1.44,-0.72 l 0,-6.76 c 0,-0.71997 0.21333,-1.27997 0.64,-1.68 0.45333,-0.42664 1,-0.63997 1.64,-0.64 0.72,3e-5 1.28,0.21336 1.68,0.64 0.42666,0.40003 0.63999,0.96003 0.64,1.68 l 0,6.72"
         style="font-variant:normal;font-weight:600;font-stretch:normal;font-family:Rimouski;-inkscape-font-specification:Rimouski Semi-Bold"
         id="path3147" />
      <path
         d="m 559.81282,414.38363 c -10e-6,0.69336 -0.21334,1.25336 -0.64,1.68 -0.40001,0.40002 -0.96001,0.60002 -1.68,0.6 -0.64001,2e-5 -1.18667,-0.19998 -1.64,-0.6 -0.42667,-0.42664 -0.64001,-0.98664 -0.64,-1.68 l 0,-3.2 c -10e-6,-0.6933 0.21333,-1.23997 0.64,-1.64 0.45333,-0.42664 0.99999,-0.63997 1.64,-0.64 0.71999,3e-5 1.27999,0.21336 1.68,0.64 0.42666,0.40003 0.63999,0.9467 0.64,1.64 l 0,3.2 m 0,23.56 c -10e-6,0.72 -0.21334,1.29333 -0.64,1.72 -0.40001,0.4 -0.96001,0.6 -1.68,0.6 -0.64001,0 -1.18667,-0.2 -1.64,-0.6 -0.42667,-0.42667 -0.64001,-1 -0.64,-1.72 l 0,-17.12 c -10e-6,-0.66665 0.21333,-1.21331 0.64,-1.64 0.45333,-0.42665 0.99999,-0.63998 1.64,-0.64 0.71999,2e-5 1.27999,0.21335 1.68,0.64 0.42666,0.42669 0.63999,0.97335 0.64,1.64 l 0,17.12"
         style="font-variant:normal;font-weight:600;font-stretch:normal;font-family:Rimouski;-inkscape-font-specification:Rimouski Semi-Bold"
         id="path3149" />
      <path
         d="m 574.72844,421.82363 c -1.01334,2e-5 -1.96001,0.18668 -2.84,0.56 -0.85334,0.37335 -1.60001,0.89335 -2.24,1.56 -0.64001,0.64001 -1.14667,1.40001 -1.52,2.28 -0.37334,0.88001 -0.56,1.81334 -0.56,2.8 0,0.98668 0.18666,1.92001 0.56,2.8 0.37333,0.85334 0.87999,1.60001 1.52,2.24 0.63999,0.64 1.38666,1.14667 2.24,1.52 0.87999,0.37334 1.82666,0.56 2.84,0.56 0.98665,0 1.90665,-0.18666 2.76,-0.56 0.87998,-0.37333 1.63998,-0.88 2.28,-1.52 0.66665,-0.63999 1.18665,-1.38666 1.56,-2.24 0.37331,-0.87999 0.55998,-1.81332 0.56,-2.8 -2e-5,-0.98666 -0.18669,-1.91999 -0.56,-2.8 -0.37335,-0.87999 -0.89335,-1.63999 -1.56,-2.28 -0.64002,-0.66665 -1.40002,-1.18665 -2.28,-1.56 -0.85335,-0.37332 -1.77335,-0.55998 -2.76,-0.56 m 0,-4.6 c 1.62665,2e-5 3.14665,0.32002 4.56,0.96 1.43998,0.61335 2.69331,1.45335 3.76,2.52 1.06665,1.06668 1.90664,2.32002 2.52,3.76 0.61331,1.41335 0.91998,2.93335 0.92,4.56 -2e-5,1.62668 -0.30669,3.16001 -0.92,4.6 -0.61336,1.41334 -1.45335,2.65334 -2.52,3.72 -1.06669,1.04 -2.32002,1.86667 -3.76,2.48 -1.41335,0.61333 -2.93335,0.92 -4.56,0.92 -1.62668,0 -3.16001,-0.30667 -4.6,-0.92 -1.41334,-0.61333 -2.65334,-1.44 -3.72,-2.48 -1.06667,-1.06666 -1.90667,-2.30666 -2.52,-3.72 -0.61333,-1.43999 -0.92,-2.97332 -0.92,-4.6 0,-1.62665 0.30667,-3.14665 0.92,-4.56 0.61333,-1.43998 1.45333,-2.69332 2.52,-3.76 1.06666,-1.06665 2.30666,-1.90665 3.72,-2.52 1.43999,-0.63998 2.97332,-0.95998 4.6,-0.96"
         style="font-variant:normal;font-weight:600;font-stretch:normal;font-family:Rimouski;-inkscape-font-specification:Rimouski Semi-Bold"
         id="path3151" />
      <path
         d="m 591.54782,417.74363 c 1.30666,2e-5 2.07999,0.66669 2.32,2 0.69332,-0.77331 1.54666,-1.38665 2.56,-1.84 1.01332,-0.45331 2.14665,-0.67998 3.4,-0.68 1.43998,2e-5 2.74665,0.26669 3.92,0.8 1.17331,0.50669 2.17331,1.21335 3,2.12 0.82664,0.90668 1.45331,1.98668 1.88,3.24 0.45331,1.22668 0.67997,2.56001 0.68,4 l 0,10.6 c -3e-5,0.72 -0.21336,1.28 -0.64,1.68 -0.40002,0.4 -0.94669,0.6 -1.64,0.6 -0.66669,0 -1.21336,-0.2 -1.64,-0.6 -0.42669,-0.4 -0.64002,-0.96 -0.64,-1.68 l 0,-10.6 c -2e-5,-0.77332 -0.12002,-1.49332 -0.36,-2.16 -0.24002,-0.69332 -0.58669,-1.29332 -1.04,-1.8 -0.42669,-0.50665 -0.96002,-0.90665 -1.6,-1.2 -0.64002,-0.29332 -1.36002,-0.43998 -2.16,-0.44 -0.80001,2e-5 -1.53335,0.14668 -2.2,0.44 -0.66668,0.29335 -1.24001,0.69335 -1.72,1.2 -0.48001,0.48002 -0.85334,1.06668 -1.12,1.76 -0.24001,0.66668 -0.36001,1.40001 -0.36,2.2 l 0,10.6 c -10e-6,0.72 -0.21334,1.28 -0.64,1.68 -0.40001,0.4 -0.96001,0.6 -1.68,0.6 -0.64001,0 -1.18667,-0.2 -1.64,-0.6 -0.42667,-0.4 -0.64001,-0.96 -0.64,-1.68 l 0,-18.24 c -10e-6,-0.61331 0.18666,-1.09331 0.56,-1.44 0.39999,-0.37331 0.86666,-0.55998 1.4,-0.56"
         style="font-variant:normal;font-weight:600;font-stretch:normal;font-family:Rimouski;-inkscape-font-specification:Rimouski Semi-Bold"
         id="path3153" />
      <path
         d="m 639.63469,440.26363 c -1.30668,0 -2.08002,-0.66667 -2.32,-2 -0.53335,0.77333 -1.25335,1.38667 -2.16,1.84 -0.90668,0.45333 -1.98668,0.68 -3.24,0.68 -1.44001,0 -2.73334,-0.24 -3.88,-0.72 -1.14667,-0.48 -2.12,-1.14667 -2.92,-2 -0.8,-0.85333 -1.41334,-1.88 -1.84,-3.08 -0.42667,-1.19999 -0.64,-2.51999 -0.64,-3.96 l 0,-11 c 0,-0.71998 0.2,-1.27998 0.6,-1.68 0.42666,-0.39998 0.98666,-0.59998 1.68,-0.6 0.66666,2e-5 1.21333,0.20002 1.64,0.6 0.42666,0.40002 0.63999,0.96002 0.64,1.68 l 0,11 c -1e-5,1.57334 0.41333,2.84001 1.24,3.8 0.85333,0.93334 2.09332,1.4 3.72,1.4 1.62665,0 2.83999,-0.46666 3.64,-1.4 0.79999,-0.93333 1.19998,-2.19999 1.2,-3.8 l 0,-11 c -2e-5,-0.71998 0.19998,-1.27998 0.6,-1.68 0.42665,-0.39998 0.99998,-0.59998 1.72,-0.6 0.63998,2e-5 1.17331,0.20002 1.6,0.6 0.45331,0.40002 0.67998,0.96002 0.68,1.68 l 0,18.24 c -2e-5,0.61333 -0.20002,1.10667 -0.6,1.48 -0.37335,0.34667 -0.82668,0.52 -1.36,0.52"
         style="font-variant:normal;font-weight:600;font-stretch:normal;font-family:Rimouski;-inkscape-font-specification:Rimouski Semi-Bold"
         id="path3155" />
      <path
         d="m 651.64719,426.18363 c 1.01333,0.40001 1.86666,0.80001 2.56,1.2 0.71999,0.40001 1.31999,0.82668 1.8,1.28 0.61332,0.61334 1.05332,1.32001 1.32,2.12 0.26665,0.77334 0.39999,1.73334 0.4,2.88 -10e-6,0.85334 -0.16001,1.68 -0.48,2.48 -0.32001,0.8 -0.78668,1.52 -1.4,2.16 -0.58668,0.61333 -1.30668,1.12 -2.16,1.52 -0.82667,0.37333 -1.77334,0.56 -2.84,0.56 -0.93334,0 -1.85334,-0.14667 -2.76,-0.44 -0.88,-0.32 -1.62667,-0.72 -2.24,-1.2 -0.37333,-0.29333 -0.69333,-0.62667 -0.96,-1 -0.24,-0.37333 -0.36,-0.8 -0.36,-1.28 0,-0.53333 0.18667,-1.02666 0.56,-1.48 0.4,-0.48 0.88,-0.72 1.44,-0.72 0.48,0 0.98666,0.16 1.52,0.48 0.4,0.24 0.82666,0.44 1.28,0.6 0.45333,0.16 0.95999,0.24 1.52,0.24 0.79999,0 1.38666,-0.2 1.76,-0.6 0.37333,-0.42666 0.55999,-0.94666 0.56,-1.56 -10e-6,-0.58666 -0.10668,-1.02666 -0.32,-1.32 -0.18667,-0.31999 -0.42667,-0.58666 -0.72,-0.8 -0.61334,-0.45332 -1.29334,-0.79999 -2.04,-1.04 -0.72,-0.23999 -1.42667,-0.55999 -2.12,-0.96 -0.93334,-0.53332 -1.66667,-1.21332 -2.2,-2.04 -0.53333,-0.82665 -0.8,-1.89332 -0.8,-3.2 0,-0.95998 0.16,-1.82665 0.48,-2.6 0.32,-0.79998 0.76,-1.47998 1.32,-2.04 0.58666,-0.55998 1.26666,-0.98665 2.04,-1.28 0.77333,-0.31998 1.62666,-0.47998 2.56,-0.48 0.93333,2e-5 1.85332,0.17335 2.76,0.52 0.90666,0.34669 1.59999,0.86669 2.08,1.56 0.31999,0.45335 0.47999,1.02669 0.48,1.72 -10e-6,0.56002 -0.17335,1.05335 -0.52,1.48 -0.32001,0.40002 -0.82668,0.60002 -1.52,0.6 -0.26668,2e-5 -0.56001,-0.0533 -0.88,-0.16 -0.29334,-0.13332 -0.52001,-0.30665 -0.68,-0.52 -0.45334,-0.58665 -1.10667,-0.87998 -1.96,-0.88 -0.42667,2e-5 -0.81334,0.16002 -1.16,0.48 -0.32,0.32002 -0.48,0.78668 -0.48,1.4 0,0.56001 0.12,1.00001 0.36,1.32 0.26666,0.29335 0.86666,0.62668 1.8,1"
         style="font-variant:normal;font-weight:600;font-stretch:normal;font-family:Rimouski;-inkscape-font-specification:Rimouski Semi-Bold"
         id="path3157" />
      <path
         d="m 671.52532,417.22363 c 1.59998,2e-5 3.10665,0.30669 4.52,0.92 1.43998,0.61335 2.69331,1.44002 3.76,2.48 1.06664,1.01335 1.90664,2.21335 2.52,3.6 0.63997,1.36001 0.95997,2.80001 0.96,4.32 -3e-5,0.77334 -0.20003,1.36001 -0.6,1.76 -0.40003,0.40001 -0.96003,0.60001 -1.68,0.6 l -16.24,0 c 0.13332,0.74667 0.41332,1.44001 0.84,2.08 0.42666,0.64001 0.94665,1.20001 1.56,1.68 0.63999,0.45334 1.33332,0.81334 2.08,1.08 0.74665,0.26667 1.50665,0.4 2.28,0.4 0.98665,0 1.89331,-0.17333 2.72,-0.52 0.82665,-0.34666 1.55998,-0.84 2.2,-1.48 0.26664,-0.23999 0.55998,-0.42666 0.88,-0.56 0.31998,-0.15999 0.62664,-0.23999 0.92,-0.24 0.61331,10e-6 1.11998,0.22667 1.52,0.68 0.42664,0.45334 0.63997,0.98667 0.64,1.6 -3e-5,0.32 -0.04,0.62667 -0.12,0.92 -0.08,0.29334 -0.24003,0.56 -0.48,0.8 -1.04002,1.14667 -2.26669,2 -3.68,2.56 -1.41335,0.56 -2.94669,0.84 -4.6,0.84 -1.62668,0 -3.16001,-0.30667 -4.6,-0.92 -1.41334,-0.61333 -2.65334,-1.44 -3.72,-2.48 -1.06667,-1.06666 -1.90667,-2.30666 -2.52,-3.72 -0.61334,-1.43999 -0.92,-2.97332 -0.92,-4.6 0,-1.62665 0.30666,-3.14665 0.92,-4.56 0.61333,-1.43998 1.45333,-2.69332 2.52,-3.76 1.06666,-1.06665 2.30666,-1.90665 3.72,-2.52 1.43999,-0.63998 2.97332,-0.95998 4.6,-0.96 m 0,4.6 c -0.77335,2e-5 -1.53335,0.13335 -2.28,0.4 -0.74668,0.26668 -1.42668,0.64002 -2.04,1.12 -0.58668,0.48002 -1.09334,1.04001 -1.52,1.68 -0.42668,0.64001 -0.72001,1.33335 -0.88,2.08 l 13.44,0 c -0.13336,-0.74665 -0.41336,-1.43999 -0.84,-2.08 -0.42669,-0.63999 -0.94669,-1.19998 -1.56,-1.68 -0.61335,-0.47998 -1.29335,-0.85332 -2.04,-1.12 -0.74668,-0.26665 -1.50668,-0.39998 -2.28,-0.4"
         style="font-variant:normal;font-weight:600;font-stretch:normal;font-family:Rimouski;-inkscape-font-specification:Rimouski Semi-Bold"
         id="path3159" />
      <path
         d="m 692.58469,426.18363 c 1.01333,0.40001 1.86666,0.80001 2.56,1.2 0.71999,0.40001 1.31999,0.82668 1.8,1.28 0.61332,0.61334 1.05332,1.32001 1.32,2.12 0.26665,0.77334 0.39999,1.73334 0.4,2.88 -10e-6,0.85334 -0.16001,1.68 -0.48,2.48 -0.32001,0.8 -0.78668,1.52 -1.4,2.16 -0.58668,0.61333 -1.30668,1.12 -2.16,1.52 -0.82667,0.37333 -1.77334,0.56 -2.84,0.56 -0.93334,0 -1.85334,-0.14667 -2.76,-0.44 -0.88,-0.32 -1.62667,-0.72 -2.24,-1.2 -0.37333,-0.29333 -0.69333,-0.62667 -0.96,-1 -0.24,-0.37333 -0.36,-0.8 -0.36,-1.28 0,-0.53333 0.18667,-1.02666 0.56,-1.48 0.4,-0.48 0.88,-0.72 1.44,-0.72 0.48,0 0.98666,0.16 1.52,0.48 0.4,0.24 0.82666,0.44 1.28,0.6 0.45333,0.16 0.95999,0.24 1.52,0.24 0.79999,0 1.38666,-0.2 1.76,-0.6 0.37333,-0.42666 0.55999,-0.94666 0.56,-1.56 -10e-6,-0.58666 -0.10668,-1.02666 -0.32,-1.32 -0.18667,-0.31999 -0.42667,-0.58666 -0.72,-0.8 -0.61334,-0.45332 -1.29334,-0.79999 -2.04,-1.04 -0.72,-0.23999 -1.42667,-0.55999 -2.12,-0.96 -0.93334,-0.53332 -1.66667,-1.21332 -2.2,-2.04 -0.53333,-0.82665 -0.8,-1.89332 -0.8,-3.2 0,-0.95998 0.16,-1.82665 0.48,-2.6 0.32,-0.79998 0.76,-1.47998 1.32,-2.04 0.58666,-0.55998 1.26666,-0.98665 2.04,-1.28 0.77333,-0.31998 1.62666,-0.47998 2.56,-0.48 0.93333,2e-5 1.85332,0.17335 2.76,0.52 0.90666,0.34669 1.59999,0.86669 2.08,1.56 0.31999,0.45335 0.47999,1.02669 0.48,1.72 -10e-6,0.56002 -0.17335,1.05335 -0.52,1.48 -0.32001,0.40002 -0.82668,0.60002 -1.52,0.6 -0.26668,2e-5 -0.56001,-0.0533 -0.88,-0.16 -0.29334,-0.13332 -0.52001,-0.30665 -0.68,-0.52 -0.45334,-0.58665 -1.10667,-0.87998 -1.96,-0.88 -0.42667,2e-5 -0.81334,0.16002 -1.16,0.48 -0.32,0.32002 -0.48,0.78668 -0.48,1.4 0,0.56001 0.12,1.00001 0.36,1.32 0.26666,0.29335 0.86666,0.62668 1.8,1"
         style="font-variant:normal;font-weight:600;font-stretch:normal;font-family:Rimouski;-inkscape-font-specification:Rimouski Semi-Bold"
         id="path3161" />
      <path
         d="m 733.27782,437.94363 c -3e-5,0.72 -0.21336,1.29333 -0.64,1.72 -0.40003,0.4 -0.96003,0.6 -1.68,0.6 -0.64003,0 -1.18669,-0.2 -1.64,-0.6 -0.42669,-0.42667 -0.64002,-1 -0.64,-1.72 l 0,-0.12 c -0.37336,0.37333 -0.81336,0.74667 -1.32,1.12 -0.48002,0.34667 -1.02669,0.65333 -1.64,0.92 -0.58669,0.26667 -1.21335,0.48 -1.88,0.64 -0.66668,0.16 -1.33335,0.24 -2,0.24 -1.70668,0 -3.28001,-0.30667 -4.72,-0.92 -1.44001,-0.61333 -2.68001,-1.44 -3.72,-2.48 -1.04001,-1.06666 -1.85334,-2.30666 -2.44,-3.72 -0.58667,-1.43999 -0.88,-2.97332 -0.88,-4.6 0,-1.62665 0.29333,-3.14665 0.88,-4.56 0.58666,-1.43998 1.39999,-2.69332 2.44,-3.76 1.06666,-1.06665 2.31999,-1.90665 3.76,-2.52 1.43999,-0.63998 2.99998,-0.95998 4.68,-0.96 1.49332,2e-5 2.81331,0.25336 3.96,0.76 1.14664,0.50669 2.10664,1.18669 2.88,2.04 -2e-5,-0.69331 0.21331,-1.23998 0.64,-1.64 0.45331,-0.42665 0.99997,-0.63998 1.64,-0.64 0.71997,2e-5 1.27997,0.21335 1.68,0.64 0.42664,0.40002 0.63997,0.94669 0.64,1.64 l 0,17.92 m -11.44,-16.12 c -1.01335,2e-5 -1.96001,0.18668 -2.84,0.56 -0.85335,0.37335 -1.60001,0.89335 -2.24,1.56 -0.64001,0.64001 -1.14668,1.40001 -1.52,2.28 -0.37334,0.88001 -0.56001,1.81334 -0.56,2.8 -10e-6,0.98668 0.18666,1.92001 0.56,2.8 0.37332,0.85334 0.87999,1.60001 1.52,2.24 0.63999,0.64 1.38665,1.14667 2.24,1.52 0.87999,0.37334 1.82665,0.56 2.84,0.56 0.95998,0 1.85331,-0.18666 2.68,-0.56 0.85331,-0.37333 1.57331,-0.88 2.16,-1.52 0.61331,-0.63999 1.09331,-1.38666 1.44,-2.24 0.34664,-0.87999 0.51998,-1.81332 0.52,-2.8 -2e-5,-0.98666 -0.17336,-1.91999 -0.52,-2.8 -0.34669,-0.87999 -0.82669,-1.63999 -1.44,-2.28 -0.58669,-0.66665 -1.30669,-1.18665 -2.16,-1.56 -0.82669,-0.37332 -1.72002,-0.55998 -2.68,-0.56"
         style="font-variant:normal;font-weight:600;font-stretch:normal;font-family:Rimouski;-inkscape-font-specification:Rimouski Semi-Bold"
         id="path3163" />
      <path
         d="m 760.06282,438.70363 c -0.21335,0.53333 -0.52002,0.93333 -0.92,1.2 -0.37335,0.24 -0.78668,0.36 -1.24,0.36 -1.09335,0 -1.81335,-0.52 -2.16,-1.56 l -4.68,-13.2 0,12.44 c -10e-6,0.72 -0.21334,1.29333 -0.64,1.72 -0.40001,0.4 -0.96001,0.6 -1.68,0.6 -0.64001,0 -1.18667,-0.2 -1.64,-0.6 -0.42667,-0.42667 -0.64001,-1 -0.64,-1.72 l 0,-24.92 c -10e-6,-0.77331 0.22666,-1.34664 0.68,-1.72 0.47999,-0.37331 0.99999,-0.55997 1.56,-0.56 0.37332,3e-5 0.78666,0.13336 1.24,0.4 0.45332,0.24003 0.78666,0.64003 1,1.2 l 6.96,19.36 7,-19.36 c 0.21331,-0.53331 0.51998,-0.93331 0.92,-1.2 0.39997,-0.26664 0.83997,-0.39997 1.32,-0.4 0.61331,3e-5 1.13331,0.18669 1.56,0.56 0.4533,0.37336 0.67997,0.94669 0.68,1.72 l 0,24.92 c -3e-5,0.72 -0.21336,1.29333 -0.64,1.72 -0.40003,0.4 -0.96003,0.6 -1.68,0.6 -0.66669,0 -1.21336,-0.2 -1.64,-0.6 -0.42669,-0.42667 -0.64002,-1 -0.64,-1.72 l 0,-12.48 -4.72,13.24"
         style="font-variant:normal;font-weight:600;font-stretch:normal;font-family:Rimouski;-inkscape-font-specification:Rimouski Semi-Bold"
         id="path3165" />
      <path
         d="m 777.93782,414.38363 c -10e-6,0.69336 -0.21334,1.25336 -0.64,1.68 -0.40001,0.40002 -0.96001,0.60002 -1.68,0.6 -0.64001,2e-5 -1.18667,-0.19998 -1.64,-0.6 -0.42667,-0.42664 -0.64001,-0.98664 -0.64,-1.68 l 0,-3.2 c -10e-6,-0.6933 0.21333,-1.23997 0.64,-1.64 0.45333,-0.42664 0.99999,-0.63997 1.64,-0.64 0.71999,3e-5 1.27999,0.21336 1.68,0.64 0.42666,0.40003 0.63999,0.9467 0.64,1.64 l 0,3.2 m 0,23.56 c -10e-6,0.72 -0.21334,1.29333 -0.64,1.72 -0.40001,0.4 -0.96001,0.6 -1.68,0.6 -0.64001,0 -1.18667,-0.2 -1.64,-0.6 -0.42667,-0.42667 -0.64001,-1 -0.64,-1.72 l 0,-17.12 c -10e-6,-0.66665 0.21333,-1.21331 0.64,-1.64 0.45333,-0.42665 0.99999,-0.63998 1.64,-0.64 0.71999,2e-5 1.27999,0.21335 1.68,0.64 0.42666,0.42669 0.63999,0.97335 0.64,1.64 l 0,17.12"
         style="font-variant:normal;font-weight:600;font-stretch:normal;font-family:Rimouski;-inkscape-font-specification:Rimouski Semi-Bold"
         id="path3167" />
      <path
         d="m 792.85344,417.22363 c 1.67999,2e-5 3.26665,0.32002 4.76,0.96 1.51998,0.61335 2.77331,1.52002 3.76,2.72 0.18665,0.24002 0.31998,0.49335 0.4,0.76 0.08,0.26668 0.11998,0.50668 0.12,0.72 -2e-5,0.64002 -0.24002,1.20002 -0.72,1.68 -0.48002,0.48001 -1.02669,0.72001 -1.64,0.72 -0.56002,10e-6 -1.06668,-0.22665 -1.52,-0.68 -0.69335,-0.69332 -1.48002,-1.23998 -2.36,-1.64 -0.88001,-0.42665 -1.81335,-0.63998 -2.8,-0.64 -1.01334,2e-5 -1.96001,0.18668 -2.84,0.56 -0.85334,0.37335 -1.60001,0.89335 -2.24,1.56 -0.64001,0.64001 -1.14667,1.40001 -1.52,2.28 -0.37334,0.88001 -0.56,1.81334 -0.56,2.8 0,0.98668 0.18666,1.92001 0.56,2.8 0.37333,0.85334 0.87999,1.60001 1.52,2.24 0.63999,0.64 1.38666,1.14667 2.24,1.52 0.87999,0.37334 1.82666,0.56 2.84,0.56 0.98665,0 1.91999,-0.17333 2.8,-0.52 0.87998,-0.37333 1.63998,-0.90666 2.28,-1.6 0.26665,-0.26666 0.51998,-0.43999 0.76,-0.52 0.26665,-0.10666 0.54665,-0.15999 0.84,-0.16 0.61331,10e-6 1.17331,0.22667 1.68,0.68 0.50665,0.45334 0.75998,1 0.76,1.64 -2e-5,0.53334 -0.24002,1.06667 -0.72,1.6 -1.09335,1.12 -2.37335,1.98667 -3.84,2.6 -1.44001,0.58667 -2.96001,0.88 -4.56,0.88 -1.62668,0 -3.16001,-0.30667 -4.6,-0.92 -1.41334,-0.61333 -2.65334,-1.44 -3.72,-2.48 -1.06667,-1.06666 -1.90667,-2.30666 -2.52,-3.72 -0.61333,-1.43999 -0.92,-2.97332 -0.92,-4.6 0,-1.62665 0.30667,-3.14665 0.92,-4.56 0.61333,-1.43998 1.45333,-2.69332 2.52,-3.76 1.06666,-1.06665 2.30666,-1.90665 3.72,-2.52 1.43999,-0.63998 2.97332,-0.95998 4.6,-0.96"
         style="font-variant:normal;font-weight:600;font-stretch:normal;font-family:Rimouski;-inkscape-font-specification:Rimouski Semi-Bold"
         id="path3169" />
      <path
         d="m 807.33657,417.74363 c 0.66666,2e-5 1.15999,0.21335 1.48,0.64 0.31999,0.40002 0.50666,0.96002 0.56,1.68 0.77332,-0.85331 1.61332,-1.46665 2.52,-1.84 0.90665,-0.37331 1.95999,-0.55998 3.16,-0.56 0.66665,2e-5 1.21332,0.18669 1.64,0.56 0.45332,0.34669 0.67998,0.92002 0.68,1.72 -2e-5,0.64002 -0.16002,1.16002 -0.48,1.56 -0.32002,0.37335 -0.82668,0.58668 -1.52,0.64 -1.14668,0.08 -2.09335,0.25335 -2.84,0.52 -0.74668,0.26668 -1.33335,0.64002 -1.76,1.12 -0.42668,0.45335 -0.72001,1.01335 -0.88,1.68 -0.16001,0.64001 -0.24001,1.36001 -0.24,2.16 l 0,10.52 c -10e-6,0.58667 -0.21334,1.09333 -0.64,1.52 -0.40001,0.4 -0.94668,0.6 -1.64,0.6 -0.69334,0 -1.25334,-0.2 -1.68,-0.6 -0.42667,-0.42667 -0.64001,-0.94667 -0.64,-1.56 l 0,-17.84 c -10e-6,-0.69331 0.15999,-1.27998 0.48,-1.76 0.34666,-0.50665 0.94666,-0.75998 1.8,-0.76"
         style="font-variant:normal;font-weight:600;font-stretch:normal;font-family:Rimouski;-inkscape-font-specification:Rimouski Semi-Bold"
         id="path3171" />
      <path
         d="m 828.79094,421.82363 c -1.01334,2e-5 -1.96001,0.18668 -2.84,0.56 -0.85334,0.37335 -1.60001,0.89335 -2.24,1.56 -0.64001,0.64001 -1.14667,1.40001 -1.52,2.28 -0.37334,0.88001 -0.56,1.81334 -0.56,2.8 0,0.98668 0.18666,1.92001 0.56,2.8 0.37333,0.85334 0.87999,1.60001 1.52,2.24 0.63999,0.64 1.38666,1.14667 2.24,1.52 0.87999,0.37334 1.82666,0.56 2.84,0.56 0.98665,0 1.90665,-0.18666 2.76,-0.56 0.87998,-0.37333 1.63998,-0.88 2.28,-1.52 0.66665,-0.63999 1.18665,-1.38666 1.56,-2.24 0.37331,-0.87999 0.55998,-1.81332 0.56,-2.8 -2e-5,-0.98666 -0.18669,-1.91999 -0.56,-2.8 -0.37335,-0.87999 -0.89335,-1.63999 -1.56,-2.28 -0.64002,-0.66665 -1.40002,-1.18665 -2.28,-1.56 -0.85335,-0.37332 -1.77335,-0.55998 -2.76,-0.56 m 0,-4.6 c 1.62665,2e-5 3.14665,0.32002 4.56,0.96 1.43998,0.61335 2.69331,1.45335 3.76,2.52 1.06665,1.06668 1.90664,2.32002 2.52,3.76 0.61331,1.41335 0.91998,2.93335 0.92,4.56 -2e-5,1.62668 -0.30669,3.16001 -0.92,4.6 -0.61336,1.41334 -1.45335,2.65334 -2.52,3.72 -1.06669,1.04 -2.32002,1.86667 -3.76,2.48 -1.41335,0.61333 -2.93335,0.92 -4.56,0.92 -1.62668,0 -3.16001,-0.30667 -4.6,-0.92 -1.41334,-0.61333 -2.65334,-1.44 -3.72,-2.48 -1.06667,-1.06666 -1.90667,-2.30666 -2.52,-3.72 -0.61333,-1.43999 -0.92,-2.97332 -0.92,-4.6 0,-1.62665 0.30667,-3.14665 0.92,-4.56 0.61333,-1.43998 1.45333,-2.69332 2.52,-3.76 1.06666,-1.06665 2.30666,-1.90665 3.72,-2.52 1.43999,-0.63998 2.97332,-0.95998 4.6,-0.96"
         style="font-variant:normal;font-weight:600;font-stretch:normal;font-family:Rimouski;-inkscape-font-specification:Rimouski Semi-Bold"
         id="path3173" />
      <path
         d="m 849.85032,426.18363 c 1.01332,0.40001 1.86665,0.80001 2.56,1.2 0.71998,0.40001 1.31998,0.82668 1.8,1.28 0.61332,0.61334 1.05332,1.32001 1.32,2.12 0.26665,0.77334 0.39998,1.73334 0.4,2.88 -2e-5,0.85334 -0.16002,1.68 -0.48,2.48 -0.32002,0.8 -0.78668,1.52 -1.4,2.16 -0.58668,0.61333 -1.30668,1.12 -2.16,1.52 -0.82668,0.37333 -1.77335,0.56 -2.84,0.56 -0.93334,0 -1.85334,-0.14667 -2.76,-0.44 -0.88001,-0.32 -1.62667,-0.72 -2.24,-1.2 -0.37334,-0.29333 -0.69334,-0.62667 -0.96,-1 -0.24,-0.37333 -0.36,-0.8 -0.36,-1.28 0,-0.53333 0.18666,-1.02666 0.56,-1.48 0.39999,-0.48 0.87999,-0.72 1.44,-0.72 0.47999,0 0.98666,0.16 1.52,0.48 0.39999,0.24 0.82666,0.44 1.28,0.6 0.45332,0.16 0.95999,0.24 1.52,0.24 0.79999,0 1.38665,-0.2 1.76,-0.6 0.37332,-0.42666 0.55999,-0.94666 0.56,-1.56 -10e-6,-0.58666 -0.10668,-1.02666 -0.32,-1.32 -0.18668,-0.31999 -0.42668,-0.58666 -0.72,-0.8 -0.61335,-0.45332 -1.29334,-0.79999 -2.04,-1.04 -0.72001,-0.23999 -1.42668,-0.55999 -2.12,-0.96 -0.93334,-0.53332 -1.66667,-1.21332 -2.2,-2.04 -0.53334,-0.82665 -0.80001,-1.89332 -0.8,-3.2 -10e-6,-0.95998 0.15999,-1.82665 0.48,-2.6 0.31999,-0.79998 0.75999,-1.47998 1.32,-2.04 0.58666,-0.55998 1.26666,-0.98665 2.04,-1.28 0.77332,-0.31998 1.62666,-0.47998 2.56,-0.48 0.93332,2e-5 1.85332,0.17335 2.76,0.52 0.90665,0.34669 1.59998,0.86669 2.08,1.56 0.31998,0.45335 0.47998,1.02669 0.48,1.72 -2e-5,0.56002 -0.17335,1.05335 -0.52,1.48 -0.32002,0.40002 -0.82668,0.60002 -1.52,0.6 -0.26668,2e-5 -0.56001,-0.0533 -0.88,-0.16 -0.29335,-0.13332 -0.52001,-0.30665 -0.68,-0.52 -0.45335,-0.58665 -1.10668,-0.87998 -1.96,-0.88 -0.42668,2e-5 -0.81334,0.16002 -1.16,0.48 -0.32001,0.32002 -0.48001,0.78668 -0.48,1.4 -1e-5,0.56001 0.11999,1.00001 0.36,1.32 0.26666,0.29335 0.86666,0.62668 1.8,1"
         style="font-variant:normal;font-weight:600;font-stretch:normal;font-family:Rimouski;-inkscape-font-specification:Rimouski Semi-Bold"
         id="path3175" />
      <path
         d="m 869.72844,421.82363 c -1.01334,2e-5 -1.96001,0.18668 -2.84,0.56 -0.85334,0.37335 -1.60001,0.89335 -2.24,1.56 -0.64001,0.64001 -1.14667,1.40001 -1.52,2.28 -0.37334,0.88001 -0.56,1.81334 -0.56,2.8 0,0.98668 0.18666,1.92001 0.56,2.8 0.37333,0.85334 0.87999,1.60001 1.52,2.24 0.63999,0.64 1.38666,1.14667 2.24,1.52 0.87999,0.37334 1.82666,0.56 2.84,0.56 0.98665,0 1.90665,-0.18666 2.76,-0.56 0.87998,-0.37333 1.63998,-0.88 2.28,-1.52 0.66665,-0.63999 1.18665,-1.38666 1.56,-2.24 0.37331,-0.87999 0.55998,-1.81332 0.56,-2.8 -2e-5,-0.98666 -0.18669,-1.91999 -0.56,-2.8 -0.37335,-0.87999 -0.89335,-1.63999 -1.56,-2.28 -0.64002,-0.66665 -1.40002,-1.18665 -2.28,-1.56 -0.85335,-0.37332 -1.77335,-0.55998 -2.76,-0.56 m 0,-4.6 c 1.62665,2e-5 3.14665,0.32002 4.56,0.96 1.43998,0.61335 2.69331,1.45335 3.76,2.52 1.06665,1.06668 1.90664,2.32002 2.52,3.76 0.61331,1.41335 0.91998,2.93335 0.92,4.56 -2e-5,1.62668 -0.30669,3.16001 -0.92,4.6 -0.61336,1.41334 -1.45335,2.65334 -2.52,3.72 -1.06669,1.04 -2.32002,1.86667 -3.76,2.48 -1.41335,0.61333 -2.93335,0.92 -4.56,0.92 -1.62668,0 -3.16001,-0.30667 -4.6,-0.92 -1.41334,-0.61333 -2.65334,-1.44 -3.72,-2.48 -1.06667,-1.06666 -1.90667,-2.30666 -2.52,-3.72 -0.61333,-1.43999 -0.92,-2.97332 -0.92,-4.6 0,-1.62665 0.30667,-3.14665 0.92,-4.56 0.61333,-1.43998 1.45333,-2.69332 2.52,-3.76 1.06666,-1.06665 2.30666,-1.90665 3.72,-2.52 1.43999,-0.63998 2.97332,-0.95998 4.6,-0.96"
         style="font-variant:normal;font-weight:600;font-stretch:normal;font-family:Rimouski;-inkscape-font-specification:Rimouski Semi-Bold"
         id="path3177" />
      <path
         d="m 889.38782,422.54363 0,15.4 c -1e-5,0.72 -0.21334,1.29333 -0.64,1.72 -0.40001,0.4 -0.96001,0.6 -1.68,0.6 -0.64001,0 -1.18667,-0.2 -1.64,-0.6 -0.42667,-0.42667 -0.64001,-1 -0.64,-1.72 l 0,-15.4 c -0.61334,-0.08 -1.09334,-0.31998 -1.44,-0.72 -0.32,-0.39998 -0.48,-0.93332 -0.48,-1.6 0,-0.58665 0.16,-1.07998 0.48,-1.48 0.34666,-0.42665 0.82666,-0.67998 1.44,-0.76 l 0,-2.04 c -10e-6,-1.22664 0.15999,-2.27997 0.48,-3.16 0.34666,-0.90664 0.81333,-1.63997 1.4,-2.2 0.61332,-0.58664 1.31999,-1.0133 2.12,-1.28 0.79999,-0.26664 1.66666,-0.39997 2.6,-0.4 0.87999,3e-5 1.54665,0.20003 2,0.6 0.45332,0.37336 0.67998,0.88003 0.68,1.52 -2e-5,0.69336 -0.17335,1.25336 -0.52,1.68 -0.32001,0.40003 -0.78668,0.62669 -1.4,0.68 -0.37335,0.0267 -0.72001,0.08 -1.04,0.16 -0.32001,0.08 -0.61334,0.21336 -0.88,0.4 -0.26668,0.18669 -0.48001,0.44002 -0.64,0.76 -0.13334,0.32002 -0.20001,0.74669 -0.2,1.28 l 0,1.96 1.44,0 c 0.69332,2e-5 1.23999,0.22669 1.64,0.68 0.42665,0.42669 0.63999,0.96002 0.64,1.6 -10e-6,0.72002 -0.21335,1.29335 -0.64,1.72 -0.40001,0.40002 -0.94668,0.60002 -1.64,0.6 l -1.44,0"
         style="font-variant:normal;font-weight:600;font-stretch:normal;font-family:Rimouski;-inkscape-font-specification:Rimouski Semi-Bold"
         id="path3179" />
      <path
         d="m 901.18469,417.94363 1.44,0 c 0.69333,2e-5 1.23999,0.21335 1.64,0.64 0.42666,0.40002 0.63999,0.96002 0.64,1.68 -10e-6,0.64002 -0.21334,1.18668 -0.64,1.64 -0.40001,0.42668 -0.94667,0.64002 -1.64,0.64 l -1.44,0 0,10.64 c -1e-5,0.53334 0.0667,0.96001 0.2,1.28 0.15999,0.32 0.37333,0.57334 0.64,0.76 0.26666,0.18667 0.55999,0.32 0.88,0.4 0.31999,0.08 0.66666,0.13334 1.04,0.16 0.61332,0.0533 1.07999,0.29334 1.4,0.72 0.34666,0.4 0.51999,0.94667 0.52,1.64 -10e-6,0.64 -0.22668,1.16 -0.68,1.56 -0.45334,0.37333 -1.12001,0.56 -2,0.56 -0.93334,0 -1.80001,-0.13333 -2.6,-0.4 -0.8,-0.26667 -1.50667,-0.68 -2.12,-1.24 -0.58667,-0.58667 -1.05334,-1.32 -1.4,-2.2 -0.32,-0.90666 -0.48,-1.97333 -0.48,-3.2 l 0,-10.68 c -0.61333,-0.08 -1.09333,-0.33332 -1.44,-0.76 -0.32,-0.42665 -0.48,-0.93331 -0.48,-1.52 0,-0.63998 0.16,-1.15998 0.48,-1.56 0.34667,-0.42665 0.82667,-0.66665 1.44,-0.72 l 0,-6.76 c 0,-0.71997 0.21333,-1.27997 0.64,-1.68 0.45333,-0.42664 1,-0.63997 1.64,-0.64 0.72,3e-5 1.28,0.21336 1.68,0.64 0.42666,0.40003 0.63999,0.96003 0.64,1.68 l 0,6.72"
         style="font-variant:normal;font-weight:600;font-stretch:normal;font-family:Rimouski;-inkscape-font-specification:Rimouski Semi-Bold"
         id="path3181" />
      <path
         d="m 924.19282,422.26363 5.76,-10.32 c 0.23998,-0.45331 0.53331,-0.75997 0.88,-0.92 0.37331,-0.18664 0.74665,-0.27997 1.12,-0.28 0.61331,3e-5 1.15998,0.21336 1.64,0.64 0.47998,0.42669 0.71998,0.97336 0.72,1.64 -2e-5,0.40003 -0.12002,0.81336 -0.36,1.24 l -5.92,10.36 5.96,12.2 c 0.21331,0.48 0.31998,0.89333 0.32,1.24 -2e-5,0.69333 -0.24002,1.24 -0.72,1.64 -0.45335,0.37333 -0.98669,0.56 -1.6,0.56 -0.40002,0 -0.80002,-0.10667 -1.2,-0.32 -0.40002,-0.24 -0.70668,-0.58667 -0.92,-1.04 l -5.8,-12.08 -1.76,0 0,11.12 c -10e-6,0.72 -0.21334,1.29333 -0.64,1.72 -0.40001,0.4 -0.96001,0.6 -1.68,0.6 -0.64001,0 -1.18667,-0.2 -1.64,-0.6 -0.42667,-0.42667 -0.64001,-1 -0.64,-1.72 l 0,-24.92 c -10e-6,-0.69331 0.21333,-1.23997 0.64,-1.64 0.45333,-0.42664 0.99999,-0.63997 1.64,-0.64 0.71999,3e-5 1.27999,0.21336 1.68,0.64 0.42666,0.40003 0.63999,0.94669 0.64,1.64 l 0,9.24 1.88,0"
         style="font-variant:normal;font-weight:600;font-stretch:normal;font-family:Rimouski;-inkscape-font-specification:Rimouski Semi-Bold"
         id="path3183" />
      <path
         d="m 941.45344,414.38363 c -10e-6,0.69336 -0.21334,1.25336 -0.64,1.68 -0.4,0.40002 -0.96,0.60002 -1.68,0.6 -0.64,2e-5 -1.18667,-0.19998 -1.64,-0.6 -0.42667,-0.42664 -0.64,-0.98664 -0.64,-1.68 l 0,-3.2 c 0,-0.6933 0.21333,-1.23997 0.64,-1.64 0.45333,-0.42664 1,-0.63997 1.64,-0.64 0.72,3e-5 1.28,0.21336 1.68,0.64 0.42666,0.40003 0.63999,0.9467 0.64,1.64 l 0,3.2 m 0,23.56 c -10e-6,0.72 -0.21334,1.29333 -0.64,1.72 -0.4,0.4 -0.96,0.6 -1.68,0.6 -0.64,0 -1.18667,-0.2 -1.64,-0.6 -0.42667,-0.42667 -0.64,-1 -0.64,-1.72 l 0,-17.12 c 0,-0.66665 0.21333,-1.21331 0.64,-1.64 0.45333,-0.42665 1,-0.63998 1.64,-0.64 0.72,2e-5 1.28,0.21335 1.68,0.64 0.42666,0.42669 0.63999,0.97335 0.64,1.64 l 0,17.12"
         style="font-variant:normal;font-weight:600;font-stretch:normal;font-family:Rimouski;-inkscape-font-specification:Rimouski Semi-Bold"
         id="path3185" />
      <path
         d="m 947.32907,417.74363 c 1.30666,2e-5 2.07999,0.66669 2.32,2 0.69332,-0.77331 1.54666,-1.38665 2.56,-1.84 1.01332,-0.45331 2.14665,-0.67998 3.4,-0.68 1.43998,2e-5 2.74665,0.26669 3.92,0.8 1.17331,0.50669 2.17331,1.21335 3,2.12 0.82664,0.90668 1.45331,1.98668 1.88,3.24 0.45331,1.22668 0.67997,2.56001 0.68,4 l 0,10.6 c -3e-5,0.72 -0.21336,1.28 -0.64,1.68 -0.40002,0.4 -0.94669,0.6 -1.64,0.6 -0.66669,0 -1.21336,-0.2 -1.64,-0.6 -0.42669,-0.4 -0.64002,-0.96 -0.64,-1.68 l 0,-10.6 c -2e-5,-0.77332 -0.12002,-1.49332 -0.36,-2.16 -0.24002,-0.69332 -0.58669,-1.29332 -1.04,-1.8 -0.42669,-0.50665 -0.96002,-0.90665 -1.6,-1.2 -0.64002,-0.29332 -1.36002,-0.43998 -2.16,-0.44 -0.80001,2e-5 -1.53335,0.14668 -2.2,0.44 -0.66668,0.29335 -1.24001,0.69335 -1.72,1.2 -0.48001,0.48002 -0.85334,1.06668 -1.12,1.76 -0.24001,0.66668 -0.36001,1.40001 -0.36,2.2 l 0,10.6 c -10e-6,0.72 -0.21334,1.28 -0.64,1.68 -0.40001,0.4 -0.96001,0.6 -1.68,0.6 -0.64001,0 -1.18667,-0.2 -1.64,-0.6 -0.42667,-0.4 -0.64001,-0.96 -0.64,-1.68 l 0,-18.24 c -10e-6,-0.61331 0.18666,-1.09331 0.56,-1.44 0.39999,-0.37331 0.86666,-0.55998 1.4,-0.56"
         style="font-variant:normal;font-weight:600;font-stretch:normal;font-family:Rimouski;-inkscape-font-specification:Rimouski Semi-Bold"
         id="path3187" />
      <path
         d="m 980.04094,417.22363 c 1.59999,2e-5 3.10665,0.30669 4.52,0.92 1.43998,0.61335 2.69331,1.44002 3.76,2.48 1.06665,1.01335 1.90664,2.21335 2.52,3.6 0.63998,1.36001 0.95998,2.80001 0.96,4.32 -2e-5,0.77334 -0.20002,1.36001 -0.6,1.76 -0.40002,0.40001 -0.96002,0.60001 -1.68,0.6 l -16.24,0 c 0.13333,0.74667 0.41333,1.44001 0.84,2.08 0.42666,0.64001 0.94666,1.20001 1.56,1.68 0.63999,0.45334 1.33332,0.81334 2.08,1.08 0.74666,0.26667 1.50666,0.4 2.28,0.4 0.98665,0 1.89332,-0.17333 2.72,-0.52 0.82665,-0.34666 1.55998,-0.84 2.2,-1.48 0.26665,-0.23999 0.55998,-0.42666 0.88,-0.56 0.31998,-0.15999 0.62665,-0.23999 0.92,-0.24 0.61331,10e-6 1.11998,0.22667 1.52,0.68 0.42665,0.45334 0.63998,0.98667 0.64,1.6 -2e-5,0.32 -0.04,0.62667 -0.12,0.92 -0.08,0.29334 -0.24002,0.56 -0.48,0.8 -1.04002,1.14667 -2.26668,2 -3.68,2.56 -1.41335,0.56 -2.94668,0.84 -4.6,0.84 -1.62668,0 -3.16001,-0.30667 -4.6,-0.92 -1.41334,-0.61333 -2.65334,-1.44 -3.72,-2.48 -1.06667,-1.06666 -1.90667,-2.30666 -2.52,-3.72 -0.61333,-1.43999 -0.92,-2.97332 -0.92,-4.6 0,-1.62665 0.30667,-3.14665 0.92,-4.56 0.61333,-1.43998 1.45333,-2.69332 2.52,-3.76 1.06666,-1.06665 2.30666,-1.90665 3.72,-2.52 1.43999,-0.63998 2.97332,-0.95998 4.6,-0.96 m 0,4.6 c -0.77334,2e-5 -1.53334,0.13335 -2.28,0.4 -0.74668,0.26668 -1.42667,0.64002 -2.04,1.12 -0.58667,0.48002 -1.09334,1.04001 -1.52,1.68 -0.42667,0.64001 -0.72001,1.33335 -0.88,2.08 l 13.44,0 c -0.13335,-0.74665 -0.41335,-1.43999 -0.84,-2.08 -0.42668,-0.63999 -0.94668,-1.19998 -1.56,-1.68 -0.61335,-0.47998 -1.29335,-0.85332 -2.04,-1.12 -0.74668,-0.26665 -1.50668,-0.39998 -2.28,-0.4"
         style="font-variant:normal;font-weight:600;font-stretch:normal;font-family:Rimouski;-inkscape-font-specification:Rimouski Semi-Bold"
         id="path3189" />
      <path
         d="m 1005.9003,417.22363 c 1.68,2e-5 3.2667,0.32002 4.76,0.96 1.52,0.61335 2.7733,1.52002 3.76,2.72 0.1867,0.24002 0.32,0.49335 0.4,0.76 0.08,0.26668 0.12,0.50668 0.12,0.72 0,0.64002 -0.24,1.20002 -0.72,1.68 -0.48,0.48001 -1.0267,0.72001 -1.64,0.72 -0.56,10e-6 -1.0667,-0.22665 -1.52,-0.68 -0.6933,-0.69332 -1.48,-1.23998 -2.36,-1.64 -0.88,-0.42665 -1.8133,-0.63998 -2.8,-0.64 -1.0133,2e-5 -1.96,0.18668 -2.84,0.56 -0.8533,0.37335 -1.6,0.89335 -2.24,1.56 -0.64,0.64001 -1.14666,1.40001 -1.51998,2.28 -0.37334,0.88001 -0.56001,1.81334 -0.56,2.8 -10e-6,0.98668 0.18666,1.92001 0.56,2.8 0.37332,0.85334 0.87998,1.60001 1.51998,2.24 0.64,0.64 1.3867,1.14667 2.24,1.52 0.88,0.37334 1.8267,0.56 2.84,0.56 0.9867,0 1.92,-0.17333 2.8,-0.52 0.88,-0.37333 1.64,-0.90666 2.28,-1.6 0.2667,-0.26666 0.52,-0.43999 0.76,-0.52 0.2667,-0.10666 0.5467,-0.15999 0.84,-0.16 0.6133,10e-6 1.1733,0.22667 1.68,0.68 0.5067,0.45334 0.76,1 0.76,1.64 0,0.53334 -0.24,1.06667 -0.72,1.6 -1.0933,1.12 -2.3733,1.98667 -3.84,2.6 -1.44,0.58667 -2.96,0.88 -4.56,0.88 -1.6267,0 -3.16,-0.30667 -4.6,-0.92 -1.41332,-0.61333 -2.65332,-1.44 -3.71998,-2.48 -1.06667,-1.06666 -1.90667,-2.30666 -2.52,-3.72 -0.61334,-1.43999 -0.92,-2.97332 -0.92,-4.6 0,-1.62665 0.30666,-3.14665 0.92,-4.56 0.61333,-1.43998 1.45333,-2.69332 2.52,-3.76 1.06666,-1.06665 2.30666,-1.90665 3.71998,-2.52 1.44,-0.63998 2.9733,-0.95998 4.6,-0.96"
         style="font-variant:normal;font-weight:600;font-stretch:normal;font-family:Rimouski;-inkscape-font-specification:Rimouski Semi-Bold"
         id="path3191" />
      <path
         d="m 1022.9034,417.94363 1.44,0 c 0.6934,2e-5 1.24,0.21335 1.64,0.64 0.4267,0.40002 0.64,0.96002 0.64,1.68 0,0.64002 -0.2133,1.18668 -0.64,1.64 -0.4,0.42668 -0.9466,0.64002 -1.64,0.64 l -1.44,0 0,10.64 c 0,0.53334 0.067,0.96001 0.2,1.28 0.16,0.32 0.3734,0.57334 0.64,0.76 0.2667,0.18667 0.56,0.32 0.88,0.4 0.32,0.08 0.6667,0.13334 1.04,0.16 0.6134,0.0533 1.08,0.29334 1.4,0.72 0.3467,0.4 0.52,0.94667 0.52,1.64 0,0.64 -0.2266,1.16 -0.68,1.56 -0.4533,0.37333 -1.12,0.56 -2,0.56 -0.9333,0 -1.8,-0.13333 -2.6,-0.4 -0.8,-0.26667 -1.5066,-0.68 -2.12,-1.24 -0.5866,-0.58667 -1.0533,-1.32 -1.4,-2.2 -0.32,-0.90666 -0.48,-1.97333 -0.48,-3.2 l 0,-10.68 c -0.6133,-0.08 -1.0933,-0.33332 -1.44,-0.76 -0.32,-0.42665 -0.48,-0.93331 -0.48,-1.52 0,-0.63998 0.16,-1.15998 0.48,-1.56 0.3467,-0.42665 0.8267,-0.66665 1.44,-0.72 l 0,-6.76 c 0,-0.71997 0.2134,-1.27997 0.64,-1.68 0.4534,-0.42664 1,-0.63997 1.64,-0.64 0.72,3e-5 1.28,0.21336 1.68,0.64 0.4267,0.40003 0.64,0.96003 0.64,1.68 l 0,6.72"
         style="font-variant:normal;font-weight:600;font-stretch:normal;font-family:Rimouski;-inkscape-font-specification:Rimouski Semi-Bold"
         id="path3193" />
    </g>
  </g>
</svg>
