<?xml version="1.0" encoding="UTF-8" standalone="no"?>
<!-- Created with Inkscape (http://www.inkscape.org/) -->

<svg
   xmlns:dc="http://purl.org/dc/elements/1.1/"
   xmlns:cc="http://creativecommons.org/ns#"
   xmlns:rdf="http://www.w3.org/1999/02/22-rdf-syntax-ns#"
   xmlns:svg="http://www.w3.org/2000/svg"
   xmlns="http://www.w3.org/2000/svg"
   xmlns:sodipodi="http://sodipodi.sourceforge.net/DTD/sodipodi-0.dtd"
   xmlns:inkscape="http://www.inkscape.org/namespaces/inkscape"
   width="1366"
   height="768"
   id="svg2"
   version="1.1"
   inkscape:version="0.48.5 r10040"
   sodipodi:docname="EVENT2_thisinstallation.svg">
  <defs
     id="defs4" />
  <sodipodi:namedview
     id="base"
     pagecolor="#ffffff"
     bordercolor="#666666"
     borderopacity="1.0"
     inkscape:pageopacity="0.0"
     inkscape:pageshadow="2"
     inkscape:zoom="0.7"
     inkscape:cx="810.29741"
     inkscape:cy="506.51043"
     inkscape:document-units="px"
     inkscape:current-layer="layer1"
     showgrid="false"
     inkscape:window-width="1680"
     inkscape:window-height="1001"
     inkscape:window-x="25"
     inkscape:window-y="0"
     inkscape:window-maximized="0" />
  <metadata
     id="metadata7">
    <rdf:RDF>
      <cc:Work
         rdf:about="">
        <dc:format>image/svg+xml</dc:format>
        <dc:type
           rdf:resource="http://purl.org/dc/dcmitype/StillImage" />
        <dc:title></dc:title>
      </cc:Work>
    </rdf:RDF>
  </metadata>
  <g
     inkscape:label="Layer 1"
     inkscape:groupmode="layer"
     id="layer1"
     transform="translate(0,-284.36218)">
    <g
       id="g3069">
      <path
         id="rect4032"
         d="m 658.05341,676.2132 46.21448,0 0,40.91117 -46.21448,0 z"
         style="fill:#f9f9f9;fill-opacity:1;stroke:none"
         inkscape:connector-curvature="0" />
      <path
         id="rect4034"
         d="m 667.65729,676.2132 27.00671,0 0,40.91117 -27.00671,0 z"
         style="fill:#333333;fill-opacity:1;stroke:none"
         inkscape:connector-curvature="0" />
      <path
         id="rect3187"
         d="m 314.42857,563.9754 737.14283,0 c 17.4115,0 31.4286,14.01715 31.4286,31.42857 l 0,51.42857 c 0,17.41143 -14.0171,31.42858 -31.4286,31.42858 l -737.14283,0 C 297.01714,678.26112 283,664.24397 283,646.83254 l 0,-51.42857 c 0,-17.41142 14.01714,-31.42857 31.42857,-31.42857 z"
         style="fill:#1a1a1a;fill-opacity:1;stroke:none"
         inkscape:connector-curvature="0" />
      <path
         id="path3205"
         d="m 532.64291,621.11823 c 0,16.17405 -13.11163,29.28571 -29.28569,29.28571 -16.17407,0 -29.28574,-13.11166 -29.28574,-29.28571 0,-16.17406 13.11167,-29.28572 29.28574,-29.28572 16.17406,0 29.28569,13.11166 29.28569,29.28572 z"
         style="fill:#333333;fill-opacity:1;stroke:none"
         inkscape:connector-curvature="0" />
      <path
         id="path3207"
         d="m 514.42863,621.11822 c 0,6.11459 -4.95683,11.07143 -11.07142,11.07143 -6.11458,0 -11.07144,-4.95684 -11.07144,-11.07143 0,-6.11458 4.95686,-11.07143 11.07144,-11.07143 6.11459,0 11.07142,4.95685 11.07142,11.07143 z"
         style="fill:#000000;fill-opacity:1;stroke:none"
         inkscape:connector-curvature="0" />
      <path
         id="path3209"
         d="m 506.92863,621.11822 c 0,1.97244 -1.59898,3.57143 -3.57143,3.57143 -1.97245,0 -3.57143,-1.59899 -3.57143,-3.57143 0,-1.97245 1.59898,-3.57143 3.57143,-3.57143 1.97245,0 3.57143,1.59898 3.57143,3.57143 z"
         style="fill:#ffffff;fill-opacity:1;stroke:none"
         inkscape:connector-curvature="0" />
      <path
         id="path3211"
         d="m 506.92863,621.11822 c 0,1.97244 -1.59898,3.57143 -3.57143,3.57143 -1.97245,0 -3.57143,-1.59899 -3.57143,-3.57143 0,0 0,0 0,0 l 3.57143,0 z"
         style="fill:#9669b4;fill-opacity:1;stroke:none"
         inkscape:connector-curvature="0" />
      <path
         id="path3215"
         d="m 675.07442,621.11823 c 0,16.17405 -13.11163,29.28571 -29.28569,29.28571 -16.17407,0 -29.28574,-13.11166 -29.28574,-29.28571 0,-16.17406 13.11167,-29.28572 29.28574,-29.28572 16.17406,0 29.28569,13.11166 29.28569,29.28572 z"
         style="fill:#333333;fill-opacity:1;stroke:none"
         inkscape:connector-curvature="0" />
      <path
         id="path3217"
         d="m 660.90076,621.11822 c 0,8.34615 -6.76587,15.11204 -15.11203,15.11204 -8.34615,0 -15.11205,-6.76589 -15.11205,-15.11204 0,-8.34615 6.7659,-15.11204 15.11205,-15.11204 8.34616,0 15.11203,6.76589 15.11203,15.11204 z"
         style="fill:#000000;fill-opacity:1;stroke:none"
         inkscape:connector-curvature="0" />
      <path
         id="path3219"
         d="m 649.36014,621.11822 c 0,1.97244 -1.59898,3.57143 -3.57143,3.57143 -1.97245,0 -3.57143,-1.59899 -3.57143,-3.57143 0,-1.97245 1.59898,-3.57143 3.57143,-3.57143 1.97245,0 3.57143,1.59898 3.57143,3.57143 z"
         style="fill:#ffffff;fill-opacity:1;stroke:none"
         inkscape:connector-curvature="0" />
      <path
         id="path3221"
         d="m 649.36014,621.11822 c 0,1.97244 -1.59898,3.57143 -3.57143,3.57143 -1.97245,0 -3.57143,-1.59899 -3.57143,-3.57143 0,0 0,0 0,0 l 3.57143,0 z"
         style="fill:#9669b4;fill-opacity:1;stroke:none"
         inkscape:connector-curvature="0" />
      <path
         id="path4003"
         d="m 747.30033,621.11823 c 0,16.17405 -13.11163,29.28571 -29.28569,29.28571 -16.17407,0 -29.28574,-13.11166 -29.28574,-29.28571 0,-16.17406 13.11167,-29.28572 29.28574,-29.28572 16.17406,0 29.28569,13.11166 29.28569,29.28572 z"
         style="fill:#333333;fill-opacity:1;stroke:none"
         inkscape:connector-curvature="0" />
      <path
         id="path4005"
         d="m 733.12667,621.11822 c 0,8.34615 -6.76587,15.11204 -15.11203,15.11204 -8.34615,0 -15.11205,-6.76589 -15.11205,-15.11204 0,-8.34615 6.7659,-15.11204 15.11205,-15.11204 8.34616,0 15.11203,6.76589 15.11203,15.11204 z"
         style="fill:#000000;fill-opacity:1;stroke:none"
         inkscape:connector-curvature="0" />
      <path
         id="path4007"
         d="m 721.58605,621.11822 c 0,1.97244 -1.59898,3.57143 -3.57143,3.57143 -1.97245,0 -3.57143,-1.59899 -3.57143,-3.57143 0,-1.97245 1.59898,-3.57143 3.57143,-3.57143 1.97245,0 3.57143,1.59898 3.57143,3.57143 z"
         style="fill:#ffffff;fill-opacity:1;stroke:none"
         inkscape:connector-curvature="0" />
      <path
         id="path4009"
         d="m 721.58605,621.11822 c 0,1.97244 -1.59898,3.57143 -3.57143,3.57143 -1.97245,0 -3.57143,-1.59899 -3.57143,-3.57143 0,0 0,0 0,0 l 3.57143,0 z"
         style="fill:#9669b4;fill-opacity:1;stroke:none"
         inkscape:connector-curvature="0" />
      <path
         id="path4015"
         d="m 578.14438,621.11824 c 0,1.97244 -1.59898,3.57143 -3.57143,3.57143 -1.97245,0 -3.57143,-1.59899 -3.57143,-3.57143 0,-1.97245 1.59898,-3.57143 3.57143,-3.57143 1.97245,0 3.57143,1.59898 3.57143,3.57143 z"
         style="fill:#ffff00;fill-opacity:1;stroke:none"
         inkscape:connector-curvature="0" />
      <path
         inkscape:connector-curvature="0"
         d="m 838.71955,613.02225 c 0.19066,2e-5 0.38133,0.044 0.572,0.132 0.20533,0.088 0.36666,0.23469 0.484,0.44 l 2.552,4.752 2.618,-4.752 c 0.11732,-0.20531 0.26399,-0.35198 0.44,-0.44 0.17599,-0.088 0.35932,-0.13198 0.55,-0.132 0.32266,2e-5 0.61599,0.11002 0.88,0.33 0.26399,0.20535 0.39599,0.49869 0.396,0.88 -10e-6,0.10269 -0.0147,0.21269 -0.044,0.33 -0.0147,0.10269 -0.0587,0.21269 -0.132,0.33 l -3.322,5.852 3.784,6.6 c 0.0733,0.11734 0.11732,0.22734 0.132,0.33 0.0146,0.10267 0.022,0.21267 0.022,0.33 -1e-5,0.36667 -0.13935,0.66734 -0.418,0.902 -0.26401,0.23467 -0.55734,0.352 -0.88,0.352 -0.20534,0 -0.40334,-0.0513 -0.594,-0.154 -0.19068,-0.10266 -0.35201,-0.27866 -0.484,-0.528 l -2.948,-5.434 -2.948,5.434 c -0.24934,0.45467 -0.60867,0.682 -1.078,0.682 -0.32267,0 -0.62334,-0.11733 -0.902,-0.352 -0.264,-0.23466 -0.396,-0.53533 -0.396,-0.902 0,-0.21999 0.0587,-0.43999 0.176,-0.66 l 3.74,-6.534 -3.3,-5.918 c -0.11734,-0.20531 -0.176,-0.41065 -0.176,-0.616 0,-0.38131 0.12466,-0.68198 0.374,-0.902 0.264,-0.23465 0.56466,-0.35198 0.902,-0.352"
         style="font-size:22px;font-style:normal;font-variant:normal;font-weight:600;font-stretch:normal;line-height:125%;letter-spacing:0px;word-spacing:0px;fill:#999999;fill-opacity:1;stroke:none;font-family:Rimouski;-inkscape-font-specification:Rimouski Semi-Bold"
         id="path4148" />
      <path
         inkscape:connector-curvature="0"
         d="m 853.68058,613.13225 c 0.65999,2e-5 1.25399,0.11002 1.782,0.33 0.54266,0.20535 1.00466,0.49135 1.386,0.858 0.39599,0.35202 0.69666,0.77735 0.902,1.276 0.21999,0.48402 0.32999,0.99735 0.33,1.54 -1e-5,1.61335 -0.60134,2.73535 -1.804,3.366 0.67466,0.29335 1.23199,0.78468 1.672,1.474 0.43999,0.68934 0.65999,1.47401 0.66,2.354 -10e-6,0.60134 -0.11001,1.19534 -0.33,1.782 -0.22001,0.57201 -0.55001,1.08534 -0.99,1.54 -0.42534,0.44001 -0.95334,0.79934 -1.584,1.078 -0.63067,0.27867 -1.35667,0.418 -2.178,0.418 l -3.41,0 c -0.352,0 -0.65267,-0.11 -0.902,-0.33 -0.23467,-0.23466 -0.352,-0.54999 -0.352,-0.946 l 0,-13.486 c 0,-0.38131 0.11733,-0.68198 0.352,-0.902 0.24933,-0.23465 0.55,-0.35198 0.902,-0.352 l 3.564,0 m -2.288,13.486 2.134,0 c 0.36666,10e-6 0.70399,-0.066 1.012,-0.198 0.30799,-0.14666 0.57199,-0.32999 0.792,-0.55 0.23466,-0.23466 0.41799,-0.49866 0.55,-0.792 0.13199,-0.29332 0.19799,-0.59399 0.198,-0.902 -10e-6,-0.30799 -0.0587,-0.60866 -0.176,-0.902 -0.11734,-0.29332 -0.28601,-0.54999 -0.506,-0.77 -0.22001,-0.23466 -0.49134,-0.41799 -0.814,-0.55 -0.30801,-0.13199 -0.66001,-0.19799 -1.056,-0.198 l -2.134,0 0,4.862 m 0,-7.392 2.288,0 c 0.58666,10e-6 1.04133,-0.16865 1.364,-0.506 0.32266,-0.33732 0.48399,-0.76998 0.484,-1.298 -1e-5,-0.51332 -0.16867,-0.93132 -0.506,-1.254 -0.33734,-0.33732 -0.78467,-0.50598 -1.342,-0.506 l -2.288,0 0,3.564"
         style="font-size:22px;font-style:normal;font-variant:normal;font-weight:600;font-stretch:normal;line-height:125%;letter-spacing:0px;word-spacing:0px;fill:#999999;fill-opacity:1;stroke:none;font-family:Rimouski;-inkscape-font-specification:Rimouski Semi-Bold"
         id="path4150" />
      <path
         inkscape:connector-curvature="0"
         d="m 862.06052,621.14025 c -10e-6,0.80668 0.14666,1.56201 0.44,2.266 0.30799,0.70401 0.72599,1.32001 1.254,1.848 0.52799,0.52801 1.14399,0.94601 1.848,1.254 0.71866,0.30801 1.48866,0.46201 2.31,0.462 0.80665,1e-5 1.56932,-0.15399 2.288,-0.462 0.71865,-0.30799 1.34198,-0.72599 1.87,-1.254 0.54265,-0.52799 0.96798,-1.14399 1.276,-1.848 0.30798,-0.70399 0.46198,-1.45932 0.462,-2.266 -2e-5,-0.80665 -0.15402,-1.56199 -0.462,-2.266 -0.30802,-0.71865 -0.73335,-1.34198 -1.276,-1.87 -0.52802,-0.54265 -1.15135,-0.96798 -1.87,-1.276 -0.71868,-0.30798 -1.48135,-0.46198 -2.288,-0.462 -0.82134,2e-5 -1.59134,0.15402 -2.31,0.462 -0.70401,0.30802 -1.32001,0.73335 -1.848,1.276 -0.52801,0.52802 -0.94601,1.15135 -1.254,1.87 -0.29334,0.70401 -0.44001,1.45935 -0.44,2.266 m -2.53,0 c 0,-1.15865 0.22,-2.24399 0.66,-3.256 0.44,-1.02665 1.03399,-1.92132 1.782,-2.684 0.76266,-0.76265 1.64999,-1.36398 2.662,-1.804 1.02666,-0.43998 2.11932,-0.65998 3.278,-0.66 1.15865,2e-5 2.24399,0.22002 3.256,0.66 1.02665,0.44002 1.92132,1.04135 2.684,1.804 0.76265,0.76268 1.36398,1.65735 1.804,2.684 0.43998,1.01201 0.65998,2.09735 0.66,3.256 -2e-5,1.17334 -0.22002,2.26601 -0.66,3.278 -0.44002,1.01201 -1.04135,1.89934 -1.804,2.662 -0.76268,0.74801 -1.65735,1.34201 -2.684,1.782 -1.01201,0.42534 -2.09735,0.638 -3.256,0.638 -1.15868,0 -2.25134,-0.21266 -3.278,-0.638 -1.01201,-0.43999 -1.89934,-1.03399 -2.662,-1.782 -0.74801,-0.76266 -1.342,-1.64999 -1.782,-2.662 -0.44,-1.01199 -0.66,-2.10466 -0.66,-3.278"
         style="font-size:22px;font-style:normal;font-variant:normal;font-weight:600;font-stretch:normal;line-height:125%;letter-spacing:0px;word-spacing:0px;fill:#999999;fill-opacity:1;stroke:none;font-family:Rimouski;-inkscape-font-specification:Rimouski Semi-Bold"
         id="path4152" />
      <path
         inkscape:connector-curvature="0"
         d="m 877.60627,613.02225 c 0.19066,2e-5 0.38133,0.044 0.572,0.132 0.20533,0.088 0.36666,0.23469 0.484,0.44 l 2.552,4.752 2.618,-4.752 c 0.11732,-0.20531 0.26399,-0.35198 0.44,-0.44 0.17599,-0.088 0.35932,-0.13198 0.55,-0.132 0.32265,2e-5 0.61599,0.11002 0.88,0.33 0.26399,0.20535 0.39599,0.49869 0.396,0.88 -10e-6,0.10269 -0.0147,0.21269 -0.044,0.33 -0.0147,0.10269 -0.0587,0.21269 -0.132,0.33 l -3.322,5.852 3.784,6.6 c 0.0733,0.11734 0.11732,0.22734 0.132,0.33 0.0147,0.10267 0.022,0.21267 0.022,0.33 -10e-6,0.36667 -0.13935,0.66734 -0.418,0.902 -0.26401,0.23467 -0.55735,0.352 -0.88,0.352 -0.20535,0 -0.40335,-0.0513 -0.594,-0.154 -0.19068,-0.10266 -0.35201,-0.27866 -0.484,-0.528 l -2.948,-5.434 -2.948,5.434 c -0.24934,0.45467 -0.60867,0.682 -1.078,0.682 -0.32267,0 -0.62334,-0.11733 -0.902,-0.352 -0.264,-0.23466 -0.396,-0.53533 -0.396,-0.902 0,-0.21999 0.0587,-0.43999 0.176,-0.66 l 3.74,-6.534 -3.3,-5.918 c -0.11734,-0.20531 -0.176,-0.41065 -0.176,-0.616 0,-0.38131 0.12466,-0.68198 0.374,-0.902 0.264,-0.23465 0.56466,-0.35198 0.902,-0.352"
         style="font-size:22px;font-style:normal;font-variant:normal;font-weight:600;font-stretch:normal;line-height:125%;letter-spacing:0px;word-spacing:0px;fill:#999999;fill-opacity:1;stroke:none;font-family:Rimouski;-inkscape-font-specification:Rimouski Semi-Bold"
         id="path4154" />
      <path
         inkscape:connector-curvature="0"
         d="m 892.81755,627.80625 c -0.16134,-0.14666 -0.27134,-0.29333 -0.33,-0.44 -0.0587,-0.14666 -0.088,-0.30066 -0.088,-0.462 0,-0.39599 0.11733,-0.70399 0.352,-0.924 0.23466,-0.21999 0.53533,-0.32999 0.902,-0.33 0.132,10e-6 0.27133,0.0293 0.418,0.088 0.14666,0.044 0.31533,0.14667 0.506,0.308 0.41066,0.33734 0.76266,0.55734 1.056,0.66 0.29333,0.088 0.62333,0.13201 0.99,0.132 0.43999,10e-6 0.83599,-0.0733 1.188,-0.22 0.36666,-0.16133 0.68199,-0.37399 0.946,-0.638 0.26399,-0.26399 0.46199,-0.57199 0.594,-0.924 0.14666,-0.36666 0.21999,-0.75532 0.22,-1.166 -10e-6,-0.87999 -0.25668,-1.59132 -0.77,-2.134 -0.49867,-0.55732 -1.22467,-0.83599 -2.178,-0.836 -0.36667,10e-6 -0.67467,-0.11732 -0.924,-0.352 -0.23467,-0.24932 -0.35201,-0.54265 -0.352,-0.88 -10e-6,-0.11732 0.022,-0.24932 0.066,-0.396 0.0587,-0.14665 0.13933,-0.27865 0.242,-0.396 0.11733,-0.13199 0.25666,-0.23465 0.418,-0.308 0.16133,-0.088 0.34466,-0.13198 0.55,-0.132 0.45466,2e-5 0.82133,-0.13932 1.1,-0.418 0.29333,-0.29332 0.43999,-0.66732 0.44,-1.122 -10e-6,-0.43998 -0.13934,-0.79198 -0.418,-1.056 -0.26401,-0.27865 -0.60134,-0.41798 -1.012,-0.418 -0.24934,2e-5 -0.47667,0.044 -0.682,0.132 -0.19067,0.088 -0.34467,0.19068 -0.462,0.308 -0.20534,0.20535 -0.36667,0.32268 -0.484,0.352 -0.11734,0.0294 -0.264,0.044 -0.44,0.044 -0.352,2e-5 -0.65267,-0.13198 -0.902,-0.396 -0.23467,-0.27865 -0.352,-0.55732 -0.352,-0.836 0,-0.27865 0.0953,-0.54265 0.286,-0.792 0.20533,-0.26398 0.462,-0.49131 0.77,-0.682 0.308,-0.20531 0.65266,-0.35931 1.034,-0.462 0.38133,-0.11731 0.75533,-0.17598 1.122,-0.176 0.58666,2e-5 1.12933,0.10269 1.628,0.308 0.49866,0.20535 0.92399,0.48402 1.276,0.836 0.36666,0.35202 0.64532,0.75535 0.836,1.21 0.20532,0.45468 0.30799,0.92402 0.308,1.408 -10e-6,0.64535 -0.11001,1.18068 -0.33,1.606 -0.22001,0.42535 -0.52068,0.78468 -0.902,1.078 0.42532,0.17601 0.79932,0.41801 1.122,0.726 0.33732,0.29335 0.61599,0.63801 0.836,1.034 0.23466,0.39601 0.41066,0.82868 0.528,1.298 0.11732,0.46934 0.17599,0.95334 0.176,1.452 -10e-6,0.76268 -0.14668,1.47401 -0.44,2.134 -0.27868,0.66001 -0.66734,1.23934 -1.166,1.738 -0.48401,0.48401 -1.06334,0.86534 -1.738,1.144 -0.66001,0.27867 -1.37134,0.418 -2.134,0.418 -0.86534,0 -1.59867,-0.14666 -2.2,-0.44 -0.60134,-0.29333 -1.13667,-0.65266 -1.606,-1.078"
         style="font-size:22px;font-style:normal;font-variant:normal;font-weight:600;font-stretch:normal;line-height:125%;letter-spacing:0px;word-spacing:0px;fill:#999999;fill-opacity:1;stroke:none;font-family:Rimouski;-inkscape-font-specification:Rimouski Semi-Bold"
         id="path4156" />
      <path
         inkscape:connector-curvature="0"
         d="m 909.27458,613.57225 c 0.11733,-0.19065 0.26399,-0.32998 0.44,-0.418 0.17599,-0.088 0.35199,-0.13198 0.528,-0.132 0.38133,2e-5 0.69666,0.12469 0.946,0.374 0.24932,0.24935 0.37399,0.55002 0.374,0.902 -10e-6,0.22002 -0.0807,0.44735 -0.242,0.682 l -2.486,3.696 c 0.77733,10e-6 1.50333,0.11735 2.178,0.352 0.67466,0.23468 1.26132,0.57935 1.76,1.034 0.51332,0.45468 0.90932,1.00468 1.188,1.65 0.29332,0.64534 0.43999,1.37134 0.44,2.178 -10e-6,0.76268 -0.14668,1.47401 -0.44,2.134 -0.27868,0.66001 -0.66734,1.23934 -1.166,1.738 -0.49868,0.48401 -1.08534,0.86534 -1.76,1.144 -0.66001,0.27867 -1.36401,0.418 -2.112,0.418 -0.76267,0 -1.48134,-0.13933 -2.156,-0.418 -0.66,-0.27866 -1.23934,-0.65999 -1.738,-1.144 -0.484,-0.49866 -0.87267,-1.07799 -1.166,-1.738 -0.27867,-0.65999 -0.418,-1.37132 -0.418,-2.134 0,-0.57199 0.11733,-1.16599 0.352,-1.782 0.23467,-0.63065 0.528,-1.20999 0.88,-1.738 l 4.598,-6.798 m -3.3,10.318 c 0,0.41068 0.0733,0.79934 0.22,1.166 0.16133,0.35201 0.374,0.66001 0.638,0.924 0.264,0.26401 0.57199,0.47667 0.924,0.638 0.36666,0.14667 0.75533,0.22001 1.166,0.22 0.41066,10e-6 0.79199,-0.0733 1.144,-0.22 0.35199,-0.16133 0.65999,-0.37399 0.924,-0.638 0.26399,-0.26399 0.46932,-0.57199 0.616,-0.924 0.16132,-0.36666 0.24199,-0.75532 0.242,-1.166 -10e-6,-0.41066 -0.0807,-0.79199 -0.242,-1.144 -0.14668,-0.36666 -0.35201,-0.68199 -0.616,-0.946 -0.26401,-0.26399 -0.57201,-0.46932 -0.924,-0.616 -0.35201,-0.16132 -0.73334,-0.24199 -1.144,-0.242 -0.41067,1e-5 -0.79934,0.0807 -1.166,0.242 -0.35201,0.14668 -0.66,0.35201 -0.924,0.616 -0.264,0.26401 -0.47667,0.57934 -0.638,0.946 -0.14667,0.35201 -0.22,0.73334 -0.22,1.144"
         style="font-size:22px;font-style:normal;font-variant:normal;font-weight:600;font-stretch:normal;line-height:125%;letter-spacing:0px;word-spacing:0px;fill:#999999;fill-opacity:1;stroke:none;font-family:Rimouski;-inkscape-font-specification:Rimouski Semi-Bold"
         id="path4158" />
      <path
         inkscape:connector-curvature="0"
         d="m 918.22067,621.14025 c 0,0.80668 0.14667,1.56201 0.44,2.266 0.308,0.70401 0.726,1.32001 1.254,1.848 0.528,0.52801 1.144,0.94601 1.848,1.254 0.71866,0.30801 1.48866,0.46201 2.31,0.462 0.80666,1e-5 1.56933,-0.15399 2.288,-0.462 0.71866,-0.30799 1.34199,-0.72599 1.87,-1.254 0.54266,-0.52799 0.96799,-1.14399 1.276,-1.848 0.30799,-0.70399 0.46199,-1.45932 0.462,-2.266 -10e-6,-0.80665 -0.15401,-1.56199 -0.462,-2.266 -0.30801,-0.71865 -0.73334,-1.34198 -1.276,-1.87 -0.52801,-0.54265 -1.15134,-0.96798 -1.87,-1.276 -0.71867,-0.30798 -1.48134,-0.46198 -2.288,-0.462 -0.82134,2e-5 -1.59134,0.15402 -2.31,0.462 -0.704,0.30802 -1.32,0.73335 -1.848,1.276 -0.528,0.52802 -0.946,1.15135 -1.254,1.87 -0.29333,0.70401 -0.44,1.45935 -0.44,2.266 m -2.53,0 c 0,-1.15865 0.22,-2.24399 0.66,-3.256 0.44,-1.02665 1.034,-1.92132 1.782,-2.684 0.76267,-0.76265 1.65,-1.36398 2.662,-1.804 1.02666,-0.43998 2.11933,-0.65998 3.278,-0.66 1.15866,2e-5 2.24399,0.22002 3.256,0.66 1.02666,0.44002 1.92132,1.04135 2.684,1.804 0.76265,0.76268 1.36399,1.65735 1.804,2.684 0.43999,1.01201 0.65999,2.09735 0.66,3.256 -10e-6,1.17334 -0.22001,2.26601 -0.66,3.278 -0.44001,1.01201 -1.04135,1.89934 -1.804,2.662 -0.76268,0.74801 -1.65734,1.34201 -2.684,1.782 -1.01201,0.42534 -2.09734,0.638 -3.256,0.638 -1.15867,0 -2.25134,-0.21266 -3.278,-0.638 -1.012,-0.43999 -1.89933,-1.03399 -2.662,-1.782 -0.748,-0.76266 -1.342,-1.64999 -1.782,-2.662 -0.44,-1.01199 -0.66,-2.10466 -0.66,-3.278"
         style="font-size:22px;font-style:normal;font-variant:normal;font-weight:600;font-stretch:normal;line-height:125%;letter-spacing:0px;word-spacing:0px;fill:#999999;fill-opacity:1;stroke:none;font-family:Rimouski;-inkscape-font-specification:Rimouski Semi-Bold"
         id="path4160" />
      <path
         sodipodi:nodetypes="ccccccc"
         inkscape:connector-curvature="0"
         id="path4023"
         d="m 648.97321,691.3638 -87.5,40.34375 c 7.7949,35.31765 1.6039,41.30726 43.0313,40.46875 l 153.3124,0 c 41.4275,0.83851 35.2364,-5.1511 43.0313,-40.46875 l -87.4687,-40.34375 z"
         style="fill:#1a1a1a;stroke:none;fill-opacity:1" />
      <path
         inkscape:connector-curvature="0"
         d="m 653.45207,723.37962 3.16799,-4.22493 c 0.132,-0.18558 0.29333,-0.31112 0.484,-0.37664 0.20533,-0.0764 0.41066,-0.11462 0.616,-0.11463 0.33732,10e-6 0.63799,0.0874 0.902,0.26201 0.26399,0.17469 0.39599,0.39849 0.396,0.6714 -10e-6,0.16377 -0.066,0.33298 -0.19799,0.50765 l -3.25601,4.2413 3.27801,4.99459 c 0.11732,0.19651 0.17598,0.36573 0.17599,0.50765 -10e-6,0.28385 -0.13201,0.50765 -0.396,0.67141 -0.24934,0.15283 -0.54268,0.22926 -0.88,0.22926 -0.22001,0 -0.44001,-0.0437 -0.66,-0.131 -0.22001,-0.0983 -0.38867,-0.24019 -0.506,-0.42578 l -3.19,-4.94546 -0.968,0 0,4.55244 c 0,0.29477 -0.11734,0.52949 -0.352,0.70416 -0.22001,0.16376 -0.52799,0.24564 -0.92399,0.24564 -0.35201,0 -0.65268,-0.0819 -0.90201,-0.24564 -0.23466,-0.17467 -0.352,-0.40939 -0.352,-0.70416 l 0,-10.20206 c 0,-0.28383 0.11734,-0.50764 0.352,-0.6714 0.24933,-0.17466 0.55,-0.262 0.90201,-0.26201 0.396,10e-6 0.70398,0.0874 0.92399,0.26201 0.23466,0.16376 0.352,0.38757 0.352,0.6714 l 0,3.78279 1.03401,0"
         style="font-size:18.98065948px;font-style:normal;font-variant:normal;font-weight:600;font-stretch:normal;line-height:125%;letter-spacing:0px;word-spacing:0px;fill:#999999;fill-opacity:1;stroke:none;font-family:Rimouski;-inkscape-font-specification:Rimouski Semi-Bold"
         id="path4163" />
      <path
         inkscape:connector-curvature="0"
         d="m 661.66941,718.66342 c 0.396,10e-6 0.704,0.0874 0.924,0.26201 0.23466,0.16376 0.35199,0.38757 0.352,0.6714 l 0,10.20206 c -1e-5,0.29477 -0.11734,0.52949 -0.352,0.70416 -0.22,0.16376 -0.528,0.24564 -0.924,0.24564 -0.352,0 -0.65268,-0.0819 -0.90201,-0.24564 -0.23466,-0.17467 -0.35199,-0.40939 -0.35199,-0.70416 l 0,-10.20206 c 0,-0.28383 0.11733,-0.50764 0.35199,-0.6714 0.24933,-0.17466 0.55001,-0.262 0.90201,-0.26201"
         style="font-size:18.98065948px;font-style:normal;font-variant:normal;font-weight:600;font-stretch:normal;line-height:125%;letter-spacing:0px;word-spacing:0px;fill:#999999;fill-opacity:1;stroke:none;font-family:Rimouski;-inkscape-font-specification:Rimouski Semi-Bold"
         id="path4165" />
      <path
         inkscape:connector-curvature="0"
         d="m 667.629,729.79889 c 0,0.29477 -0.11733,0.52949 -0.352,0.70416 -0.22,0.16376 -0.52801,0.24564 -0.924,0.24564 -0.352,0 -0.65267,-0.0819 -0.902,-0.24564 -0.23467,-0.17467 -0.35201,-0.40939 -0.35201,-0.70416 l 0,-10.15293 c 0,-0.32751 0.13201,-0.57314 0.39601,-0.73691 0.27867,-0.16374 0.57933,-0.24562 0.90199,-0.24563 0.22001,10e-6 0.43268,0.0382 0.63801,0.11463 0.20533,0.0655 0.36666,0.18014 0.484,0.34389 l 5.368,7.1398 0,-6.66491 c -10e-6,-0.28383 0.11,-0.50764 0.33,-0.6714 0.23466,-0.17466 0.54999,-0.262 0.946,-0.26201 0.36665,10e-6 0.66732,0.0874 0.90199,0.26201 0.23466,0.16376 0.35199,0.38757 0.352,0.6714 l 0,10.26757 c -1e-5,0.28384 -0.132,0.50219 -0.39599,0.65503 -0.24934,0.15283 -0.52801,0.22926 -0.836,0.22926 -0.24935,0 -0.48402,-0.0437 -0.704,-0.131 -0.22001,-0.0983 -0.40334,-0.24564 -0.55,-0.44215 l -5.302,-7.07431 0,6.69766"
         style="font-size:18.98065948px;font-style:normal;font-variant:normal;font-weight:600;font-stretch:normal;line-height:125%;letter-spacing:0px;word-spacing:0px;fill:#999999;fill-opacity:1;stroke:none;font-family:Rimouski;-inkscape-font-specification:Rimouski Semi-Bold"
         id="path4167" />
      <path
         inkscape:connector-curvature="0"
         d="m 685.06296,718.7453 c 0.36666,10e-6 0.66,0.0873 0.88001,0.26201 0.23465,0.16377 0.35198,0.38757 0.352,0.67141 -2e-5,0.28385 -0.11735,0.5131 -0.352,0.68777 -0.22001,0.17469 -0.51335,0.26203 -0.88001,0.26201 l -5.016,0 0,2.75112 4.81801,0 c 0.38132,10e-6 0.68932,0.0873 0.924,0.26201 0.23466,0.17468 0.35199,0.39849 0.352,0.6714 -1e-5,0.29477 -0.11734,0.52403 -0.352,0.68779 -0.23468,0.16376 -0.54268,0.24564 -0.924,0.24563 l -4.81801,0 0,3.53715 5.10401,0 c 0.38132,0 0.68199,0.0873 0.90199,0.26201 0.23467,0.16376 0.352,0.38756 0.352,0.67141 0,0.29476 -0.11733,0.52948 -0.352,0.70416 -0.22,0.16375 -0.52067,0.24563 -0.90199,0.24563 l -6.38,0 c -0.35201,0 -0.65267,-0.0819 -0.902,-0.24563 -0.23467,-0.17468 -0.352,-0.4094 -0.352,-0.70416 l 0,-10.0383 c 0,-0.28384 0.11733,-0.50764 0.352,-0.67141 0.24933,-0.17467 0.54999,-0.262 0.902,-0.26201 l 6.29199,0"
         style="font-size:18.98065948px;font-style:normal;font-variant:normal;font-weight:600;font-stretch:normal;line-height:125%;letter-spacing:0px;word-spacing:0px;fill:#999999;fill-opacity:1;stroke:none;font-family:Rimouski;-inkscape-font-specification:Rimouski Semi-Bold"
         id="path4169" />
      <path
         inkscape:connector-curvature="0"
         d="m 695.79347,718.45054 c 1.23199,10e-6 2.38332,0.19106 3.45399,0.57315 1.08532,0.37119 2.00933,0.87337 2.77201,1.50656 0.088,0.0873 0.16864,0.17468 0.24199,0.26201 0.0734,0.0873 0.11,0.20743 0.11,0.36026 -3e-5,0.29478 -0.11736,0.52949 -0.352,0.70416 -0.23469,0.16377 -0.54269,0.24564 -0.92401,0.24563 -0.27868,10e-6 -0.48401,-0.0327 -0.616,-0.0983 -0.13202,-0.0764 -0.23467,-0.14737 -0.308,-0.21288 -0.55734,-0.45851 -1.21001,-0.81331 -1.958,-1.06442 -0.73335,-0.262 -1.54,-0.39301 -2.42,-0.39302 -0.82134,10e-6 -1.59134,0.11464 -2.31,0.34389 -0.70401,0.22927 -1.32,0.54587 -1.84799,0.94979 -0.52801,0.39303 -0.94601,0.857 -1.254,1.39194 -0.29334,0.52403 -0.44001,1.08626 -0.44001,1.68669 0,0.60045 0.14667,1.16268 0.44001,1.6867 0.30799,0.52403 0.72599,0.98255 1.254,1.37556 0.52799,0.39302 1.14398,0.70416 1.84799,0.93342 0.71866,0.22926 1.48866,0.34388 2.31,0.34388 0.88,0 1.67933,-0.11462 2.398,-0.34388 0.73332,-0.24018 1.37866,-0.58953 1.936,-1.04805 0.11733,-0.10917 0.24932,-0.19651 0.396,-0.26201 0.16132,-0.0764 0.34465,-0.11462 0.55001,-0.11463 0.38131,10e-6 0.68931,0.0819 0.924,0.24563 0.24932,0.16376 0.37397,0.37665 0.374,0.63866 -3e-5,0.29476 -0.13202,0.55131 -0.396,0.76966 -0.77736,0.62227 -1.69402,1.11354 -2.75001,1.47381 -1.04135,0.34935 -2.18534,0.52402 -3.432,0.52402 -1.15868,0 -2.25134,-0.1583 -3.278,-0.47489 -1.012,-0.32752 -1.89934,-0.76966 -2.662,-1.32643 -0.748,-0.5677 -1.342,-1.22818 -1.78199,-1.98146 -0.44001,-0.75329 -0.66,-1.56661 -0.66,-2.43999 0,-0.86244 0.21999,-1.67031 0.66,-2.4236 0.43999,-0.76419 1.03399,-1.43013 1.78199,-1.99784 0.76266,-0.56767 1.65,-1.01528 2.662,-1.3428 1.02666,-0.3275 2.11932,-0.49126 3.278,-0.49127"
         style="font-size:18.98065948px;font-style:normal;font-variant:normal;font-weight:600;font-stretch:normal;line-height:125%;letter-spacing:0px;word-spacing:0px;fill:#999999;fill-opacity:1;stroke:none;font-family:Rimouski;-inkscape-font-specification:Rimouski Semi-Bold"
         id="path4171" />
      <path
         inkscape:connector-curvature="0"
         d="m 711.17937,718.7453 c 0.36666,10e-6 0.66732,0.0873 0.902,0.26201 0.23466,0.16377 0.35199,0.38757 0.352,0.67141 -10e-6,0.28385 -0.11734,0.5131 -0.352,0.68777 -0.23468,0.17469 -0.53534,0.26203 -0.902,0.26201 l -2.59599,0 0,9.17039 c -1e-5,0.29477 -0.11735,0.52949 -0.35201,0.70416 -0.23467,0.16376 -0.54267,0.24564 -0.92399,0.24564 -0.36668,0 -0.66734,-0.0819 -0.90201,-0.24564 -0.22,-0.17467 -0.33,-0.40939 -0.33,-0.70416 l 0,-9.17039 -2.618,0 c -0.38134,2e-5 -0.68934,-0.0873 -0.924,-0.26201 -0.23467,-0.17467 -0.352,-0.40392 -0.352,-0.68777 0,-0.28384 0.11733,-0.50764 0.352,-0.67141 0.23466,-0.17467 0.54266,-0.262 0.924,-0.26201 l 7.722,0"
         style="font-size:18.98065948px;font-style:normal;font-variant:normal;font-weight:600;font-stretch:normal;line-height:125%;letter-spacing:0px;word-spacing:0px;fill:#999999;fill-opacity:1;stroke:none;font-family:Rimouski;-inkscape-font-specification:Rimouski Semi-Bold"
         id="path4173" />
      <path
         inkscape:connector-curvature="0"
         id="path4181"
         d="m 718.01062,590.83166 c -16.71447,0 -30.28652,13.57207 -30.28652,30.28657 0,16.71449 13.57205,30.28657 30.28652,30.28657 16.71457,0 30.28662,-13.57208 30.28662,-30.28657 0,-16.7145 -13.57205,-30.28657 -30.28662,-30.28657 z m 0,1.99002 c 15.63365,0 28.29663,12.66293 28.29663,28.29655 0,15.63361 -12.66298,28.29654 -28.29663,28.29654 -15.63356,0 -28.26923,-12.66293 -28.26923,-28.29654 0,-15.63362 12.63567,-28.29655 28.26923,-28.29655 z"
         style="font-size:medium;font-style:normal;font-variant:normal;font-weight:normal;font-stretch:normal;text-indent:0;text-align:start;text-decoration:none;line-height:normal;letter-spacing:normal;word-spacing:normal;text-transform:none;direction:ltr;block-progression:tb;writing-mode:lr-tb;text-anchor:start;baseline-shift:baseline;color:#000000;fill:#e6e6e6;fill-opacity:1;stroke:none;stroke-width:2.29268289;marker:none;visibility:visible;display:inline;overflow:visible;enable-background:accumulate;font-family:Sans;-inkscape-font-specification:Sans" />
      <path
         inkscape:connector-curvature="0"
         id="path4183"
         d="m 645.78471,590.83166 c -16.71447,0 -30.28652,13.57207 -30.28652,30.28657 0,16.71449 13.57205,30.28657 30.28652,30.28657 16.71457,0 30.28662,-13.57208 30.28662,-30.28657 0,-16.7145 -13.57205,-30.28657 -30.28662,-30.28657 z m 0,1.99002 c 15.63365,0 28.29663,12.66293 28.29663,28.29655 0,15.63361 -12.66298,28.29654 -28.29663,28.29654 -15.63356,0 -28.26923,-12.66293 -28.26923,-28.29654 0,-15.63362 12.63567,-28.29655 28.26923,-28.29655 z"
         style="font-size:medium;font-style:normal;font-variant:normal;font-weight:normal;font-stretch:normal;text-indent:0;text-align:start;text-decoration:none;line-height:normal;letter-spacing:normal;word-spacing:normal;text-transform:none;direction:ltr;block-progression:tb;writing-mode:lr-tb;text-anchor:start;baseline-shift:baseline;color:#000000;fill:#e6e6e6;fill-opacity:1;stroke:none;stroke-width:2.29268289;marker:none;visibility:visible;display:inline;overflow:visible;enable-background:accumulate;font-family:Sans;-inkscape-font-specification:Sans" />
    </g>
  </g>
</svg>
