<?xml version="1.0" encoding="UTF-8" standalone="no"?>
<!-- Created with Inkscape (http://www.inkscape.org/) -->

<svg
   xmlns:dc="http://purl.org/dc/elements/1.1/"
   xmlns:cc="http://creativecommons.org/ns#"
   xmlns:rdf="http://www.w3.org/1999/02/22-rdf-syntax-ns#"
   xmlns:svg="http://www.w3.org/2000/svg"
   xmlns="http://www.w3.org/2000/svg"
   xmlns:sodipodi="http://sodipodi.sourceforge.net/DTD/sodipodi-0.dtd"
   xmlns:inkscape="http://www.inkscape.org/namespaces/inkscape"
   width="1366"
   height="768"
   id="svg2"
   version="1.1"
   inkscape:version="0.48.5 r10040"
   sodipodi:docname="EVENT3.svg">
  <defs
     id="defs4" />
  <sodipodi:namedview
     id="base"
     pagecolor="#ffffff"
     bordercolor="#666666"
     borderopacity="1.0"
     inkscape:pageopacity="0.0"
     inkscape:pageshadow="2"
     inkscape:zoom="0.7"
     inkscape:cx="1142.9373"
     inkscape:cy="553.08624"
     inkscape:document-units="px"
     inkscape:current-layer="layer1"
     showgrid="false"
     inkscape:window-width="1680"
     inkscape:window-height="1001"
     inkscape:window-x="25"
     inkscape:window-y="0"
     inkscape:window-maximized="0" />
  <metadata
     id="metadata7">
    <rdf:RDF>
      <cc:Work
         rdf:about="">
        <dc:format>image/svg+xml</dc:format>
        <dc:type
           rdf:resource="http://purl.org/dc/dcmitype/StillImage" />
        <dc:title></dc:title>
      </cc:Work>
    </rdf:RDF>
  </metadata>
  <g
     inkscape:label="Layer 1"
     inkscape:groupmode="layer"
     id="layer1"
     transform="translate(0,-284.36218)">
    <g
       style="font-size:40px;font-style:normal;font-weight:normal;line-height:125%;letter-spacing:0px;word-spacing:0px;fill:#000000;fill-opacity:1;stroke:none;font-family:Sans"
       id="text3118">
      <path
         d="m 629.30799,411.58363 0,-14.784 c -3e-5,-1.10929 0.31997,-1.98396 0.96,-2.624 0.68263,-0.68262 1.59997,-1.02395 2.752,-1.024 1.1093,5e-5 1.98396,0.34138 2.624,1.024 0.68263,0.64004 1.02396,1.51471 1.024,2.624 l 0,39.872 c -4e-5,1.152 -0.34137,2.06933 -1.024,2.752 -0.64004,0.64 -1.5147,0.96 -2.624,0.96 -1.15203,0 -2.06937,-0.32 -2.752,-0.96 -0.64003,-0.68267 -0.96003,-1.6 -0.96,-2.752 l 0,-17.792 -16.128,0 0,17.792 c -10e-6,1.152 -0.34135,2.06933 -1.024,2.752 -0.64001,0.64 -1.53601,0.96 -2.688,0.96 -1.02401,0 -1.89868,-0.32 -2.624,-0.96 -0.68267,-0.68267 -1.02401,-1.6 -1.024,-2.752 l 0,-39.872 c -10e-6,-1.10929 0.34133,-1.98396 1.024,-2.624 0.72532,-0.68262 1.59999,-1.02395 2.624,-1.024 1.15199,5e-5 2.04799,0.34138 2.688,1.024 0.68265,0.64004 1.02399,1.51471 1.024,2.624 l 0,14.784 16.128,0"
         style="font-size:64px;font-variant:normal;font-weight:600;font-stretch:normal;fill:#000000;font-family:Rimouski;-inkscape-font-specification:Rimouski Semi-Bold"
         id="path5237" />
      <path
         d="m 660.41999,403.51963 c 2.55997,4e-5 4.97064,0.4907 7.232,1.472 2.30397,0.98137 4.3093,2.30403 6.016,3.968 1.70663,1.62136 3.05063,3.54136 4.032,5.76 1.02396,2.17602 1.53596,4.48002 1.536,6.912 -4e-5,1.23735 -0.32004,2.17602 -0.96,2.816 -0.64004,0.64001 -1.53604,0.96001 -2.688,0.96 l -25.984,0 c 0.21332,1.19468 0.66132,2.30401 1.344,3.328 0.68265,1.02401 1.51465,1.92001 2.496,2.688 1.02398,0.72534 2.13331,1.30134 3.328,1.728 1.19464,0.42667 2.41064,0.64001 3.648,0.64 1.57864,10e-6 3.02931,-0.27733 4.352,-0.832 1.32264,-0.55466 2.49597,-1.34399 3.52,-2.368 0.42663,-0.38399 0.89597,-0.68266 1.408,-0.896 0.51197,-0.25599 1.00263,-0.38399 1.472,-0.384 0.9813,1e-5 1.79196,0.36268 2.432,1.088 0.68263,0.72534 1.02396,1.57867 1.024,2.56 -4e-5,0.51201 -0.064,1.00267 -0.192,1.472 -0.12804,0.46934 -0.38404,0.896 -0.768,1.28 -1.66404,1.83467 -3.6267,3.2 -5.888,4.096 -2.26136,0.896 -4.71469,1.344 -7.36,1.344 -2.60269,0 -5.05602,-0.49067 -7.36,-1.472 -2.26135,-0.98133 -4.24535,-2.304 -5.952,-3.968 -1.70668,-1.70666 -3.05068,-3.69066 -4.032,-5.952 -0.98134,-2.30399 -1.47201,-4.75732 -1.472,-7.36 -10e-6,-2.60265 0.49066,-5.03464 1.472,-7.296 0.98132,-2.30397 2.32532,-4.3093 4.032,-6.016 1.70665,-1.70663 3.69065,-3.05063 5.952,-4.032 2.30398,-1.02396 4.75731,-1.53596 7.36,-1.536 m 0,7.36 c -1.23736,3e-5 -2.45336,0.21336 -3.648,0.64 -1.19469,0.42669 -2.28269,1.02403 -3.264,1.792 -0.93868,0.76803 -1.74935,1.66402 -2.432,2.688 -0.68268,1.02402 -1.15201,2.13335 -1.408,3.328 l 21.504,0 c -0.21337,-1.19465 -0.66137,-2.30398 -1.344,-3.328 -0.6827,-1.02398 -1.5147,-1.91997 -2.496,-2.688 -0.98136,-0.76797 -2.06936,-1.36531 -3.264,-1.792 -1.19469,-0.42664 -2.41069,-0.63997 -3.648,-0.64"
         style="font-size:64px;font-variant:normal;font-weight:600;font-stretch:normal;fill:#000000;font-family:Rimouski;-inkscape-font-specification:Rimouski Semi-Bold"
         id="path5239" />
      <path
         d="m 691.55499,436.67163 c -10e-6,1.152 -0.34135,2.06933 -1.024,2.752 -0.64001,0.64 -1.53601,0.96 -2.688,0.96 -1.02401,0 -1.89868,-0.32 -2.624,-0.96 -0.68267,-0.68267 -1.02401,-1.6 -1.024,-2.752 l 0,-42.816 c -10e-6,-1.10929 0.34133,-1.98395 1.024,-2.624 0.72532,-0.68262 1.59999,-1.02395 2.624,-1.024 1.15199,5e-5 2.04799,0.34138 2.688,1.024 0.68265,0.64005 1.02399,1.51471 1.024,2.624 l 0,42.816"
         style="font-size:64px;font-variant:normal;font-weight:600;font-stretch:normal;fill:#000000;font-family:Rimouski;-inkscape-font-specification:Rimouski Semi-Bold"
         id="path5241" />
      <path
         d="m 705.17999,436.67163 c -10e-6,1.152 -0.34135,2.06933 -1.024,2.752 -0.64001,0.64 -1.53601,0.96 -2.688,0.96 -1.02401,0 -1.89868,-0.32 -2.624,-0.96 -0.68267,-0.68267 -1.02401,-1.6 -1.024,-2.752 l 0,-42.816 c -10e-6,-1.10929 0.34133,-1.98395 1.024,-2.624 0.72532,-0.68262 1.59999,-1.02395 2.624,-1.024 1.15199,5e-5 2.04799,0.34138 2.688,1.024 0.68265,0.64005 1.02399,1.51471 1.024,2.624 l 0,42.816"
         style="font-size:64px;font-variant:normal;font-weight:600;font-stretch:normal;fill:#000000;font-family:Rimouski;-inkscape-font-specification:Rimouski Semi-Bold"
         id="path5243" />
      <path
         d="m 729.04499,410.87963 c -1.62136,3e-5 -3.13602,0.29869 -4.544,0.896 -1.36535,0.59736 -2.56002,1.42936 -3.584,2.496 -1.02402,1.02402 -1.83468,2.24002 -2.432,3.648 -0.59735,1.40802 -0.89601,2.90135 -0.896,4.48 -10e-6,1.57868 0.29865,3.07201 0.896,4.48 0.59732,1.36534 1.40798,2.56001 2.432,3.584 1.02398,1.02401 2.21865,1.83467 3.584,2.432 1.40798,0.59734 2.92264,0.89601 4.544,0.896 1.57864,10e-6 3.05064,-0.29866 4.416,-0.896 1.40797,-0.59733 2.62397,-1.40799 3.648,-2.432 1.06663,-1.02399 1.89863,-2.21866 2.496,-3.584 0.5973,-1.40799 0.89596,-2.90132 0.896,-4.48 -4e-5,-1.57865 -0.2987,-3.07198 -0.896,-4.48 -0.59737,-1.40798 -1.42937,-2.62398 -2.496,-3.648 -1.02403,-1.06664 -2.24003,-1.89864 -3.648,-2.496 -1.36536,-0.59731 -2.83736,-0.89597 -4.416,-0.896 m 0,-7.36 c 2.60264,4e-5 5.03464,0.51204 7.296,1.536 2.30397,0.98137 4.3093,2.32537 6.016,4.032 1.70663,1.7067 3.05063,3.71203 4.032,6.016 0.98129,2.26136 1.47196,4.69335 1.472,7.296 -4e-5,2.60268 -0.49071,5.05601 -1.472,7.36 -0.98137,2.26134 -2.32537,4.24534 -4.032,5.952 -1.7067,1.664 -3.71203,2.98667 -6.016,3.968 -2.26136,0.98133 -4.69336,1.472 -7.296,1.472 -2.60269,0 -5.05602,-0.49067 -7.36,-1.472 -2.26135,-0.98133 -4.24535,-2.304 -5.952,-3.968 -1.70668,-1.70666 -3.05068,-3.69066 -4.032,-5.952 -0.98134,-2.30399 -1.47201,-4.75732 -1.472,-7.36 -10e-6,-2.60265 0.49066,-5.03464 1.472,-7.296 0.98132,-2.30397 2.32532,-4.3093 4.032,-6.016 1.70665,-1.70663 3.69065,-3.05063 5.952,-4.032 2.30398,-1.02396 4.75731,-1.53596 7.36,-1.536"
         style="font-size:64px;font-variant:normal;font-weight:600;font-stretch:normal;fill:#000000;font-family:Rimouski;-inkscape-font-specification:Rimouski Semi-Bold"
         id="path5245" />
      <path
         d="m 760.17999,421.82363 c -10e-6,1.06668 -0.34135,1.94135 -1.024,2.624 -0.64001,0.68268 -1.53601,1.02401 -2.688,1.024 -1.02401,10e-6 -1.89868,-0.34132 -2.624,-1.024 -0.68267,-0.68265 -1.02401,-1.55732 -1.024,-2.624 l 0,-25.024 c -10e-6,-1.10929 0.34133,-1.98396 1.024,-2.624 0.72532,-0.68262 1.59999,-1.02395 2.624,-1.024 1.15199,5e-5 2.04799,0.34138 2.688,1.024 0.68265,0.64004 1.02399,1.51471 1.024,2.624 l 0,25.024 m 0,14.848 c -10e-6,1.152 -0.34135,2.06933 -1.024,2.752 -0.64001,0.64 -1.53601,0.96 -2.688,0.96 -1.02401,0 -1.89868,-0.32 -2.624,-0.96 -0.68267,-0.68267 -1.02401,-1.6 -1.024,-2.752 l 0,-3.904 c -10e-6,-1.06666 0.34133,-1.94132 1.024,-2.624 0.72532,-0.68266 1.59999,-1.02399 2.624,-1.024 1.15199,1e-5 2.04799,0.34134 2.688,1.024 0.68265,0.68268 1.02399,1.55734 1.024,2.624 l 0,3.904"
         style="font-size:64px;font-variant:normal;font-weight:600;font-stretch:normal;fill:#000000;font-family:Rimouski;-inkscape-font-specification:Rimouski Semi-Bold"
         id="path5247" />
    </g>
  </g>
</svg>
