<?xml version="1.0" encoding="UTF-8" standalone="no"?>
<!-- Created with Inkscape (http://www.inkscape.org/) -->

<svg
   xmlns:dc="http://purl.org/dc/elements/1.1/"
   xmlns:cc="http://creativecommons.org/ns#"
   xmlns:rdf="http://www.w3.org/1999/02/22-rdf-syntax-ns#"
   xmlns:svg="http://www.w3.org/2000/svg"
   xmlns="http://www.w3.org/2000/svg"
   xmlns:sodipodi="http://sodipodi.sourceforge.net/DTD/sodipodi-0.dtd"
   xmlns:inkscape="http://www.inkscape.org/namespaces/inkscape"
   width="1366"
   height="768"
   id="svg2"
   version="1.1"
   inkscape:version="0.48.5 r10040"
   sodipodi:docname="cratewall.svg">
  <defs
     id="defs4" />
  <sodipodi:namedview
     id="base"
     pagecolor="#ffffff"
     bordercolor="#666666"
     borderopacity="1.0"
     inkscape:pageopacity="0.0"
     inkscape:pageshadow="2"
     inkscape:zoom="0.7"
     inkscape:cx="783.65422"
     inkscape:cy="247.42455"
     inkscape:document-units="px"
     inkscape:current-layer="layer1"
     showgrid="false"
     inkscape:window-width="1680"
     inkscape:window-height="1001"
     inkscape:window-x="22"
     inkscape:window-y="0"
     inkscape:window-maximized="0" />
  <metadata
     id="metadata7">
    <rdf:RDF>
      <cc:Work
         rdf:about="">
        <dc:format>image/svg+xml</dc:format>
        <dc:type
           rdf:resource="http://purl.org/dc/dcmitype/StillImage" />
        <dc:title></dc:title>
      </cc:Work>
    </rdf:RDF>
  </metadata>
  <g
     inkscape:label="Layer 1"
     inkscape:groupmode="layer"
     id="layer1"
     transform="translate(0,-284.36218)">
    <path
       style="font-size:medium;font-style:normal;font-variant:normal;font-weight:normal;font-stretch:normal;text-indent:0;text-align:start;text-decoration:none;line-height:normal;letter-spacing:normal;word-spacing:normal;text-transform:none;direction:ltr;block-progression:tb;writing-mode:lr-tb;text-anchor:start;baseline-shift:baseline;color:#000000;fill:#000000;fill-opacity:1;stroke:none;stroke-width:8;marker:none;visibility:visible;display:inline;overflow:visible;enable-background:accumulate;font-family:Sans;-inkscape-font-specification:Sans"
       d="m 271.78125,355.96875 c -11.64396,0 -21.125,9.51229 -21.125,21.15625 l 0,102.65625 c 0,11.64396 9.48104,21.125 21.125,21.125 l 102.65625,0 c 11.64396,0 21.15625,-9.48104 21.15625,-21.125 l 0,-102.65625 c 0,-11.64396 -9.51229,-21.15625 -21.15625,-21.15625 l -102.65625,0 z m 0,8 102.65625,0 c 7.35034,0 13.15625,5.80591 13.15625,13.15625 l 0,102.65625 c 0,7.35034 -5.80591,13.125 -13.15625,13.125 l -102.65625,0 c -7.35034,0 -13.125,-5.77466 -13.125,-13.125 l 0,-102.65625 c 0,-7.35034 5.77466,-13.15625 13.125,-13.15625 z"
       id="rect2985"
       inkscape:connector-curvature="0" />
    <path
       style="font-size:medium;font-style:normal;font-variant:normal;font-weight:normal;font-stretch:normal;text-indent:0;text-align:start;text-decoration:none;line-height:normal;letter-spacing:normal;word-spacing:normal;text-transform:none;direction:ltr;block-progression:tb;writing-mode:lr-tb;text-anchor:start;baseline-shift:baseline;color:#000000;fill:#000000;fill-opacity:1;stroke:none;stroke-width:8;marker:none;visibility:visible;display:inline;overflow:visible;enable-background:accumulate;font-family:Sans;-inkscape-font-specification:Sans"
       d="m 451.71875,355.96875 c -11.64396,0 -21.125,9.51229 -21.125,21.15625 l 0,102.65625 c 0,11.64396 9.48104,21.125 21.125,21.125 l 102.65625,0 c 11.64396,0 21.15625,-9.48104 21.15625,-21.125 l 0,-102.65625 c 0,-11.64396 -9.51229,-21.15625 -21.15625,-21.15625 l -102.65625,0 z m 0,8 102.65625,0 c 7.35034,0 13.15625,5.80591 13.15625,13.15625 l 0,102.65625 c 0,7.35034 -5.80591,13.125 -13.15625,13.125 l -102.65625,0 c -7.35034,0 -13.125,-5.77466 -13.125,-13.125 l 0,-102.65625 c 0,-7.35034 5.77466,-13.15625 13.125,-13.15625 z"
       id="rect3755"
       inkscape:connector-curvature="0" />
    <path
       style="font-size:medium;font-style:normal;font-variant:normal;font-weight:normal;font-stretch:normal;text-indent:0;text-align:start;text-decoration:none;line-height:normal;letter-spacing:normal;word-spacing:normal;text-transform:none;direction:ltr;block-progression:tb;writing-mode:lr-tb;text-anchor:start;baseline-shift:baseline;color:#000000;fill:#000000;fill-opacity:1;stroke:none;stroke-width:8;marker:none;visibility:visible;display:inline;overflow:visible;enable-background:accumulate;font-family:Sans;-inkscape-font-specification:Sans"
       d="m 631.6875,355.96875 c -11.64396,0 -21.15625,9.51229 -21.15625,21.15625 l 0,102.65625 c 0,11.64396 9.51229,21.125 21.15625,21.125 l 102.625,0 c 11.64396,0 21.15625,-9.48104 21.15625,-21.125 l 0,-102.65625 c 0,-11.64396 -9.51229,-21.15625 -21.15625,-21.15625 l -102.625,0 z m 0,8 102.625,0 c 7.35034,0 13.15625,5.80591 13.15625,13.15625 l 0,102.65625 c 0,7.35034 -5.80591,13.125 -13.15625,13.125 l -102.625,0 c -7.35034,0 -13.15625,-5.77466 -13.15625,-13.125 l 0,-102.65625 c 0,-7.35034 5.80591,-13.15625 13.15625,-13.15625 z"
       id="rect3757"
       inkscape:connector-curvature="0" />
    <path
       style="font-size:medium;font-style:normal;font-variant:normal;font-weight:normal;font-stretch:normal;text-indent:0;text-align:start;text-decoration:none;line-height:normal;letter-spacing:normal;word-spacing:normal;text-transform:none;direction:ltr;block-progression:tb;writing-mode:lr-tb;text-anchor:start;baseline-shift:baseline;color:#000000;fill:#000000;fill-opacity:1;stroke:none;stroke-width:8;marker:none;visibility:visible;display:inline;overflow:visible;enable-background:accumulate;font-family:Sans;-inkscape-font-specification:Sans"
       d="m 811.625,355.96875 c -11.64396,0 -21.15625,9.51229 -21.15625,21.15625 l 0,102.65625 c 0,11.64396 9.51229,21.125 21.15625,21.125 l 102.65625,0 c 11.64396,0 21.125,-9.48104 21.125,-21.125 l 0,-102.65625 c 0,-11.64396 -9.48104,-21.15625 -21.125,-21.15625 l -102.65625,0 z m 0,8 102.65625,0 c 7.35034,0 13.125,5.80591 13.125,13.15625 l 0,102.65625 c 0,7.35034 -5.77466,13.125 -13.125,13.125 l -102.65625,0 c -7.35034,0 -13.15625,-5.77466 -13.15625,-13.125 l 0,-102.65625 c 0,-7.35034 5.80591,-13.15625 13.15625,-13.15625 z"
       id="rect3759"
       inkscape:connector-curvature="0" />
    <path
       style="font-size:medium;font-style:normal;font-variant:normal;font-weight:normal;font-stretch:normal;text-indent:0;text-align:start;text-decoration:none;line-height:normal;letter-spacing:normal;word-spacing:normal;text-transform:none;direction:ltr;block-progression:tb;writing-mode:lr-tb;text-anchor:start;baseline-shift:baseline;color:#000000;fill:#000000;fill-opacity:1;stroke:none;stroke-width:8;marker:none;visibility:visible;display:inline;overflow:visible;enable-background:accumulate;font-family:Sans;-inkscape-font-specification:Sans"
       d="m 991.5625,355.96875 c -11.64396,0 -21.15625,9.51229 -21.15625,21.15625 l 0,102.65625 c 0,11.64396 9.51229,21.125 21.15625,21.125 l 102.6563,0 c 11.6439,0 21.125,-9.48104 21.125,-21.125 l 0,-102.65625 c 0,-11.64396 -9.4811,-21.15625 -21.125,-21.15625 l -102.6563,0 z m 0,8 102.6563,0 c 7.3503,0 13.125,5.80591 13.125,13.15625 l 0,102.65625 c 0,7.35034 -5.7747,13.125 -13.125,13.125 l -102.6563,0 c -7.35034,0 -13.15625,-5.77466 -13.15625,-13.125 l 0,-102.65625 c 0,-7.35034 5.80591,-13.15625 13.15625,-13.15625 z"
       id="rect3761"
       inkscape:connector-curvature="0" />
    <path
       style="font-size:medium;font-style:normal;font-variant:normal;font-weight:normal;font-stretch:normal;text-indent:0;text-align:start;text-decoration:none;line-height:normal;letter-spacing:normal;word-spacing:normal;text-transform:none;direction:ltr;block-progression:tb;writing-mode:lr-tb;text-anchor:start;baseline-shift:baseline;color:#000000;fill:#000000;fill-opacity:1;stroke:none;stroke-width:8;marker:none;visibility:visible;display:inline;overflow:visible;enable-background:accumulate;font-family:Sans;-inkscape-font-specification:Sans"
       d="m 271.78125,515.90625 c -11.64396,0 -21.125,9.51229 -21.125,21.15625 l 0,102.65625 c 0,11.64396 9.48104,21.15625 21.125,21.15625 l 102.65625,0 c 11.64396,0 21.15625,-9.51229 21.15625,-21.15625 l 0,-102.65625 c 0,-11.64396 -9.51229,-21.15625 -21.15625,-21.15625 l -102.65625,0 z m 0,8 102.65625,0 c 7.35034,0 13.15625,5.80591 13.15625,13.15625 l 0,102.65625 c 0,7.35034 -5.80591,13.15625 -13.15625,13.15625 l -102.65625,0 c -7.35034,0 -13.125,-5.80591 -13.125,-13.15625 l 0,-102.65625 c 0,-7.35034 5.77466,-13.15625 13.125,-13.15625 z"
       id="rect3763"
       inkscape:connector-curvature="0" />
    <path
       style="font-size:medium;font-style:normal;font-variant:normal;font-weight:normal;font-stretch:normal;text-indent:0;text-align:start;text-decoration:none;line-height:normal;letter-spacing:normal;word-spacing:normal;text-transform:none;direction:ltr;block-progression:tb;writing-mode:lr-tb;text-anchor:start;baseline-shift:baseline;color:#000000;fill:#000000;fill-opacity:1;stroke:none;stroke-width:8;marker:none;visibility:visible;display:inline;overflow:visible;enable-background:accumulate;font-family:Sans;-inkscape-font-specification:Sans"
       d="m 451.71875,515.90625 c -11.64396,0 -21.125,9.51229 -21.125,21.15625 l 0,102.65625 c 0,11.64396 9.48104,21.15625 21.125,21.15625 l 102.65625,0 c 11.64396,0 21.15625,-9.51229 21.15625,-21.15625 l 0,-102.65625 c 0,-11.64396 -9.51229,-21.15625 -21.15625,-21.15625 l -102.65625,0 z m 0,8 102.65625,0 c 7.35034,0 13.15625,5.80591 13.15625,13.15625 l 0,102.65625 c 0,7.35034 -5.80591,13.15625 -13.15625,13.15625 l -102.65625,0 c -7.35034,0 -13.125,-5.80591 -13.125,-13.15625 l 0,-102.65625 c 0,-7.35034 5.77466,-13.15625 13.125,-13.15625 z"
       id="rect3765"
       inkscape:connector-curvature="0" />
    <path
       style="font-size:medium;font-style:normal;font-variant:normal;font-weight:normal;font-stretch:normal;text-indent:0;text-align:start;text-decoration:none;line-height:normal;letter-spacing:normal;word-spacing:normal;text-transform:none;direction:ltr;block-progression:tb;writing-mode:lr-tb;text-anchor:start;baseline-shift:baseline;color:#000000;fill:#000000;fill-opacity:1;stroke:none;stroke-width:8;marker:none;visibility:visible;display:inline;overflow:visible;enable-background:accumulate;font-family:Sans;-inkscape-font-specification:Sans"
       d="m 631.6875,515.90625 c -11.64396,0 -21.15625,9.51229 -21.15625,21.15625 l 0,102.65625 c 0,11.64396 9.51229,21.15625 21.15625,21.15625 l 102.625,0 c 11.64396,0 21.15625,-9.51229 21.15625,-21.15625 l 0,-102.65625 c 0,-11.64396 -9.51229,-21.15625 -21.15625,-21.15625 l -102.625,0 z m 0,8 102.625,0 c 7.35034,0 13.15625,5.80591 13.15625,13.15625 l 0,102.65625 c 0,7.35034 -5.80591,13.15625 -13.15625,13.15625 l -102.625,0 c -7.35034,0 -13.15625,-5.80591 -13.15625,-13.15625 l 0,-102.65625 c 0,-7.35034 5.80591,-13.15625 13.15625,-13.15625 z"
       id="rect3767"
       inkscape:connector-curvature="0" />
    <path
       style="font-size:medium;font-style:normal;font-variant:normal;font-weight:normal;font-stretch:normal;text-indent:0;text-align:start;text-decoration:none;line-height:normal;letter-spacing:normal;word-spacing:normal;text-transform:none;direction:ltr;block-progression:tb;writing-mode:lr-tb;text-anchor:start;baseline-shift:baseline;color:#000000;fill:#000000;fill-opacity:1;stroke:none;stroke-width:8;marker:none;visibility:visible;display:inline;overflow:visible;enable-background:accumulate;font-family:Sans;-inkscape-font-specification:Sans"
       d="m 811.625,515.90625 c -11.64396,0 -21.15625,9.51229 -21.15625,21.15625 l 0,102.65625 c 0,11.64396 9.51229,21.15625 21.15625,21.15625 l 102.65625,0 c 11.64396,0 21.125,-9.51229 21.125,-21.15625 l 0,-102.65625 c 0,-11.64396 -9.48104,-21.15625 -21.125,-21.15625 l -102.65625,0 z m 0,8 102.65625,0 c 7.35034,0 13.125,5.80591 13.125,13.15625 l 0,102.65625 c 0,7.35034 -5.77466,13.15625 -13.125,13.15625 l -102.65625,0 c -7.35034,0 -13.15625,-5.80591 -13.15625,-13.15625 l 0,-102.65625 c 0,-7.35034 5.80591,-13.15625 13.15625,-13.15625 z"
       id="rect3769"
       inkscape:connector-curvature="0" />
    <path
       style="font-size:medium;font-style:normal;font-variant:normal;font-weight:normal;font-stretch:normal;text-indent:0;text-align:start;text-decoration:none;line-height:normal;letter-spacing:normal;word-spacing:normal;text-transform:none;direction:ltr;block-progression:tb;writing-mode:lr-tb;text-anchor:start;baseline-shift:baseline;color:#000000;fill:#000000;fill-opacity:1;stroke:none;stroke-width:8;marker:none;visibility:visible;display:inline;overflow:visible;enable-background:accumulate;font-family:Sans;-inkscape-font-specification:Sans"
       d="m 991.5625,515.90625 c -11.64396,0 -21.15625,9.51229 -21.15625,21.15625 l 0,102.65625 c 0,11.64396 9.51229,21.15625 21.15625,21.15625 l 102.6563,0 c 11.6439,0 21.125,-9.51229 21.125,-21.15625 l 0,-102.65625 c 0,-11.64396 -9.4811,-21.15625 -21.125,-21.15625 l -102.6563,0 z m 0,8 102.6563,0 c 7.3503,0 13.125,5.80591 13.125,13.15625 l 0,102.65625 c 0,7.35034 -5.7747,13.15625 -13.125,13.15625 l -102.6563,0 c -7.35034,0 -13.15625,-5.80591 -13.15625,-13.15625 l 0,-102.65625 c 0,-7.35034 5.80591,-13.15625 13.15625,-13.15625 z"
       id="rect3771"
       inkscape:connector-curvature="0" />
    <path
       style="font-size:medium;font-style:normal;font-variant:normal;font-weight:normal;font-stretch:normal;text-indent:0;text-align:start;text-decoration:none;line-height:normal;letter-spacing:normal;word-spacing:normal;text-transform:none;direction:ltr;block-progression:tb;writing-mode:lr-tb;text-anchor:start;baseline-shift:baseline;color:#000000;fill:#000000;fill-opacity:1;stroke:none;stroke-width:8;marker:none;visibility:visible;display:inline;overflow:visible;enable-background:accumulate;font-family:Sans;-inkscape-font-specification:Sans"
       d="m 271.78125,675.875 c -11.64396,0 -21.125,9.48104 -21.125,21.125 l 0,102.65625 c 0,11.64396 9.48104,21.15625 21.125,21.15625 l 102.65625,0 c 11.64396,0 21.15625,-9.51229 21.15625,-21.15625 l 0,-102.65625 c 0,-11.64396 -9.51229,-21.125 -21.15625,-21.125 l -102.65625,0 z m 0,8 102.65625,0 c 7.35034,0 13.15625,5.77466 13.15625,13.125 l 0,102.65625 c 0,7.35034 -5.80591,13.15625 -13.15625,13.15625 l -102.65625,0 c -7.35034,0 -13.125,-5.80591 -13.125,-13.15625 l 0,-102.65625 c 0,-7.35034 5.77466,-13.125 13.125,-13.125 z"
       id="rect3773"
       inkscape:connector-curvature="0" />
    <path
       style="font-size:medium;font-style:normal;font-variant:normal;font-weight:normal;font-stretch:normal;text-indent:0;text-align:start;text-decoration:none;line-height:normal;letter-spacing:normal;word-spacing:normal;text-transform:none;direction:ltr;block-progression:tb;writing-mode:lr-tb;text-anchor:start;baseline-shift:baseline;color:#000000;fill:#000000;fill-opacity:1;stroke:none;stroke-width:8;marker:none;visibility:visible;display:inline;overflow:visible;enable-background:accumulate;font-family:Sans;-inkscape-font-specification:Sans"
       d="m 451.71875,675.875 c -11.64396,0 -21.125,9.48104 -21.125,21.125 l 0,102.65625 c 0,11.64396 9.48104,21.15625 21.125,21.15625 l 102.65625,0 c 11.64396,0 21.15625,-9.51229 21.15625,-21.15625 l 0,-102.65625 c 0,-11.64396 -9.51229,-21.125 -21.15625,-21.125 l -102.65625,0 z m 0,8 102.65625,0 c 7.35034,0 13.15625,5.77466 13.15625,13.125 l 0,102.65625 c 0,7.35034 -5.80591,13.15625 -13.15625,13.15625 l -102.65625,0 c -7.35034,0 -13.125,-5.80591 -13.125,-13.15625 l 0,-102.65625 c 0,-7.35034 5.77466,-13.125 13.125,-13.125 z"
       id="rect3775"
       inkscape:connector-curvature="0" />
    <path
       style="font-size:medium;font-style:normal;font-variant:normal;font-weight:normal;font-stretch:normal;text-indent:0;text-align:start;text-decoration:none;line-height:normal;letter-spacing:normal;word-spacing:normal;text-transform:none;direction:ltr;block-progression:tb;writing-mode:lr-tb;text-anchor:start;baseline-shift:baseline;color:#000000;fill:#000000;fill-opacity:1;stroke:none;stroke-width:8;marker:none;visibility:visible;display:inline;overflow:visible;enable-background:accumulate;font-family:Sans;-inkscape-font-specification:Sans"
       d="m 631.6875,675.875 c -11.64396,0 -21.15625,9.48104 -21.15625,21.125 l 0,102.65625 c 0,11.64396 9.51229,21.15625 21.15625,21.15625 l 102.625,0 c 11.64396,0 21.15625,-9.51229 21.15625,-21.15625 l 0,-102.65625 c 0,-11.64396 -9.51229,-21.125 -21.15625,-21.125 l -102.625,0 z m 0,8 102.625,0 c 7.35034,0 13.15625,5.77466 13.15625,13.125 l 0,102.65625 c 0,7.35034 -5.80591,13.15625 -13.15625,13.15625 l -102.625,0 c -7.35034,0 -13.15625,-5.80591 -13.15625,-13.15625 l 0,-102.65625 c 0,-7.35034 5.80591,-13.125 13.15625,-13.125 z"
       id="rect3777"
       inkscape:connector-curvature="0" />
    <path
       style="font-size:medium;font-style:normal;font-variant:normal;font-weight:normal;font-stretch:normal;text-indent:0;text-align:start;text-decoration:none;line-height:normal;letter-spacing:normal;word-spacing:normal;text-transform:none;direction:ltr;block-progression:tb;writing-mode:lr-tb;text-anchor:start;baseline-shift:baseline;color:#000000;fill:#000000;fill-opacity:1;stroke:none;stroke-width:8;marker:none;visibility:visible;display:inline;overflow:visible;enable-background:accumulate;font-family:Sans;-inkscape-font-specification:Sans"
       d="m 811.625,675.875 c -11.64396,0 -21.15625,9.48104 -21.15625,21.125 l 0,102.65625 c 0,11.64396 9.51229,21.15625 21.15625,21.15625 l 102.65625,0 c 11.64396,0 21.125,-9.51229 21.125,-21.15625 l 0,-102.65625 c 0,-11.64396 -9.48104,-21.125 -21.125,-21.125 l -102.65625,0 z m 0,8 102.65625,0 c 7.35034,0 13.125,5.77466 13.125,13.125 l 0,102.65625 c 0,7.35034 -5.77466,13.15625 -13.125,13.15625 l -102.65625,0 c -7.35034,0 -13.15625,-5.80591 -13.15625,-13.15625 l 0,-102.65625 c 0,-7.35034 5.80591,-13.125 13.15625,-13.125 z"
       id="rect3779"
       inkscape:connector-curvature="0" />
    <path
       style="font-size:medium;font-style:normal;font-variant:normal;font-weight:normal;font-stretch:normal;text-indent:0;text-align:start;text-decoration:none;line-height:normal;letter-spacing:normal;word-spacing:normal;text-transform:none;direction:ltr;block-progression:tb;writing-mode:lr-tb;text-anchor:start;baseline-shift:baseline;color:#000000;fill:#000000;fill-opacity:1;stroke:none;stroke-width:8;marker:none;visibility:visible;display:inline;overflow:visible;enable-background:accumulate;font-family:Sans;-inkscape-font-specification:Sans"
       d="m 991.5625,675.875 c -11.64396,0 -21.15625,9.48104 -21.15625,21.125 l 0,102.65625 c 0,11.64396 9.51229,21.15625 21.15625,21.15625 l 102.6563,0 c 11.6439,0 21.125,-9.51229 21.125,-21.15625 l 0,-102.65625 c 0,-11.64396 -9.4811,-21.125 -21.125,-21.125 l -102.6563,0 z m 0,8 102.6563,0 c 7.3503,0 13.125,5.77466 13.125,13.125 l 0,102.65625 c 0,7.35034 -5.7747,13.15625 -13.125,13.15625 l -102.6563,0 c -7.35034,0 -13.15625,-5.80591 -13.15625,-13.15625 l 0,-102.65625 c 0,-7.35034 5.80591,-13.125 13.15625,-13.125 z"
       id="rect3781"
       inkscape:connector-curvature="0" />
    <path
       style="font-size:medium;font-style:normal;font-variant:normal;font-weight:normal;font-stretch:normal;text-indent:0;text-align:start;text-decoration:none;line-height:normal;letter-spacing:normal;word-spacing:normal;text-transform:none;direction:ltr;block-progression:tb;writing-mode:lr-tb;text-anchor:start;baseline-shift:baseline;color:#000000;fill:#000000;fill-opacity:1;stroke:none;stroke-width:8;marker:none;visibility:visible;display:inline;overflow:visible;enable-background:accumulate;font-family:Sans;-inkscape-font-specification:Sans"
       d="m 271.78125,835.8125 c -11.64396,0 -21.125,9.48104 -21.125,21.125 l 0,102.65625 c 0,11.64396 9.48104,21.15625 21.125,21.15625 l 102.65625,0 c 11.64396,0 21.15625,-9.51229 21.15625,-21.15625 l 0,-102.65625 c 0,-11.64396 -9.51229,-21.125 -21.15625,-21.125 l -102.65625,0 z m 0,8 102.65625,0 c 7.35034,0 13.15625,5.77466 13.15625,13.125 l 0,102.65625 c 0,7.35034 -5.80591,13.15625 -13.15625,13.15625 l -102.65625,0 c -7.35034,0 -13.125,-5.80591 -13.125,-13.15625 l 0,-102.65625 c 0,-7.35034 5.77466,-13.125 13.125,-13.125 z"
       id="rect3783"
       inkscape:connector-curvature="0" />
    <path
       style="font-size:medium;font-style:normal;font-variant:normal;font-weight:normal;font-stretch:normal;text-indent:0;text-align:start;text-decoration:none;line-height:normal;letter-spacing:normal;word-spacing:normal;text-transform:none;direction:ltr;block-progression:tb;writing-mode:lr-tb;text-anchor:start;baseline-shift:baseline;color:#000000;fill:#000000;fill-opacity:1;stroke:none;stroke-width:8;marker:none;visibility:visible;display:inline;overflow:visible;enable-background:accumulate;font-family:Sans;-inkscape-font-specification:Sans"
       d="m 451.71875,835.8125 c -11.64396,0 -21.125,9.48104 -21.125,21.125 l 0,102.65625 c 0,11.64396 9.48104,21.15625 21.125,21.15625 l 102.65625,0 c 11.64396,0 21.15625,-9.51229 21.15625,-21.15625 l 0,-102.65625 c 0,-11.64396 -9.51229,-21.125 -21.15625,-21.125 l -102.65625,0 z m 0,8 102.65625,0 c 7.35034,0 13.15625,5.77466 13.15625,13.125 l 0,102.65625 c 0,7.35034 -5.80591,13.15625 -13.15625,13.15625 l -102.65625,0 c -7.35034,0 -13.125,-5.80591 -13.125,-13.15625 l 0,-102.65625 c 0,-7.35034 5.77466,-13.125 13.125,-13.125 z"
       id="rect3785"
       inkscape:connector-curvature="0" />
    <path
       style="font-size:medium;font-style:normal;font-variant:normal;font-weight:normal;font-stretch:normal;text-indent:0;text-align:start;text-decoration:none;line-height:normal;letter-spacing:normal;word-spacing:normal;text-transform:none;direction:ltr;block-progression:tb;writing-mode:lr-tb;text-anchor:start;baseline-shift:baseline;color:#000000;fill:#000000;fill-opacity:1;stroke:none;stroke-width:8;marker:none;visibility:visible;display:inline;overflow:visible;enable-background:accumulate;font-family:Sans;-inkscape-font-specification:Sans"
       d="m 631.6875,835.8125 c -11.64396,0 -21.15625,9.48104 -21.15625,21.125 l 0,102.65625 c 0,11.64396 9.51229,21.15625 21.15625,21.15625 l 102.625,0 c 11.64396,0 21.15625,-9.51229 21.15625,-21.15625 l 0,-102.65625 c 0,-11.64396 -9.51229,-21.125 -21.15625,-21.125 l -102.625,0 z m 0,8 102.625,0 c 7.35034,0 13.15625,5.77466 13.15625,13.125 l 0,102.65625 c 0,7.35034 -5.80591,13.15625 -13.15625,13.15625 l -102.625,0 c -7.35034,0 -13.15625,-5.80591 -13.15625,-13.15625 l 0,-102.65625 c 0,-7.35034 5.80591,-13.125 13.15625,-13.125 z"
       id="rect3787"
       inkscape:connector-curvature="0" />
    <path
       style="font-size:medium;font-style:normal;font-variant:normal;font-weight:normal;font-stretch:normal;text-indent:0;text-align:start;text-decoration:none;line-height:normal;letter-spacing:normal;word-spacing:normal;text-transform:none;direction:ltr;block-progression:tb;writing-mode:lr-tb;text-anchor:start;baseline-shift:baseline;color:#000000;fill:#000000;fill-opacity:1;stroke:none;stroke-width:8;marker:none;visibility:visible;display:inline;overflow:visible;enable-background:accumulate;font-family:Sans;-inkscape-font-specification:Sans"
       d="m 811.625,835.8125 c -11.64396,0 -21.15625,9.48104 -21.15625,21.125 l 0,102.65625 c 0,11.64396 9.51229,21.15625 21.15625,21.15625 l 102.65625,0 c 11.64396,0 21.125,-9.51229 21.125,-21.15625 l 0,-102.65625 c 0,-11.64396 -9.48104,-21.125 -21.125,-21.125 l -102.65625,0 z m 0,8 102.65625,0 c 7.35034,0 13.125,5.77466 13.125,13.125 l 0,102.65625 c 0,7.35034 -5.77466,13.15625 -13.125,13.15625 l -102.65625,0 c -7.35034,0 -13.15625,-5.80591 -13.15625,-13.15625 l 0,-102.65625 c 0,-7.35034 5.80591,-13.125 13.15625,-13.125 z"
       id="rect3789"
       inkscape:connector-curvature="0" />
    <path
       style="font-size:medium;font-style:normal;font-variant:normal;font-weight:normal;font-stretch:normal;text-indent:0;text-align:start;text-decoration:none;line-height:normal;letter-spacing:normal;word-spacing:normal;text-transform:none;direction:ltr;block-progression:tb;writing-mode:lr-tb;text-anchor:start;baseline-shift:baseline;color:#000000;fill:#000000;fill-opacity:1;stroke:none;stroke-width:8;marker:none;visibility:visible;display:inline;overflow:visible;enable-background:accumulate;font-family:Sans;-inkscape-font-specification:Sans"
       d="m 991.5625,835.8125 c -11.64396,0 -21.15625,9.48104 -21.15625,21.125 l 0,102.65625 c 0,11.64396 9.51229,21.15625 21.15625,21.15625 l 102.6563,0 c 11.6439,0 21.125,-9.51229 21.125,-21.15625 l 0,-102.65625 c 0,-11.64396 -9.4811,-21.125 -21.125,-21.125 l -102.6563,0 z m 0,8 102.6563,0 c 7.3503,0 13.125,5.77466 13.125,13.125 l 0,102.65625 c 0,7.35034 -5.7747,13.15625 -13.125,13.15625 l -102.6563,0 c -7.35034,0 -13.15625,-5.80591 -13.15625,-13.15625 l 0,-102.65625 c 0,-7.35034 5.80591,-13.125 13.15625,-13.125 z"
       id="rect3791"
       inkscape:connector-curvature="0" />
    <path
       style="fill:#ffff00;stroke:none"
       d="m 632.14752,545.93359 101.70499,0 0,62.85715 -101.70499,0 z"
       id="rect3961" />
    <path
       style="font-size:medium;font-style:normal;font-variant:normal;font-weight:normal;font-stretch:normal;text-indent:0;text-align:start;text-decoration:none;line-height:normal;letter-spacing:normal;word-spacing:normal;text-transform:none;direction:ltr;block-progression:tb;writing-mode:lr-tb;text-anchor:start;baseline-shift:baseline;color:#000000;fill:#000000;fill-opacity:1;fill-rule:nonzero;stroke:none;stroke-width:3;marker:none;visibility:visible;display:inline;overflow:visible;enable-background:accumulate;font-family:Sans;-inkscape-font-specification:Sans"
       d="m 630.65625,544.4375 0,1.5 0,62.84375 0,1.5 1.5,0 101.6875,0 1.5,0 0,-1.5 0,-62.84375 0,-1.5 -1.5,0 -101.6875,0 -1.5,0 z m 3,3 98.6875,0 0,59.84375 -98.6875,0 0,-59.84375 z"
       id="rect3877"
       inkscape:connector-curvature="0" />
    <path
       style="fill:#000000;fill-opacity:1;stroke:none"
       d="m 669.78571,610.93359 26.42858,0 c 2.37428,0 4.28571,1.91143 4.28571,4.28572 l 0,1.42857 c 0,2.37429 -1.91143,4.28571 -4.28571,4.28571 l -26.42858,0 c -2.37428,0 -4.28571,-1.91142 -4.28571,-4.28571 l 0,-1.42857 c 0,-2.37429 1.91143,-4.28572 4.28571,-4.28572 z"
       id="rect3879" />
  </g>
</svg>
