<?xml version="1.0" encoding="UTF-8" standalone="no"?>
<!-- Created with Inkscape (http://www.inkscape.org/) -->

<svg
   xmlns:dc="http://purl.org/dc/elements/1.1/"
   xmlns:cc="http://creativecommons.org/ns#"
   xmlns:rdf="http://www.w3.org/1999/02/22-rdf-syntax-ns#"
   xmlns:svg="http://www.w3.org/2000/svg"
   xmlns="http://www.w3.org/2000/svg"
   xmlns:sodipodi="http://sodipodi.sourceforge.net/DTD/sodipodi-0.dtd"
   xmlns:inkscape="http://www.inkscape.org/namespaces/inkscape"
   width="1366"
   height="768"
   id="svg2"
   version="1.1"
   inkscape:version="0.48.5 r10040"
   sodipodi:docname="EVENT1.svg">
  <defs
     id="defs4" />
  <sodipodi:namedview
     id="base"
     pagecolor="#ffffff"
     bordercolor="#666666"
     borderopacity="1.0"
     inkscape:pageopacity="0.0"
     inkscape:pageshadow="2"
     inkscape:zoom="0.49497475"
     inkscape:cx="909.88427"
     inkscape:cy="351.2186"
     inkscape:document-units="px"
     inkscape:current-layer="layer1"
     showgrid="false"
     inkscape:window-width="1680"
     inkscape:window-height="1001"
     inkscape:window-x="25"
     inkscape:window-y="0"
     inkscape:window-maximized="0" />
  <metadata
     id="metadata7">
    <rdf:RDF>
      <cc:Work
         rdf:about="">
        <dc:format>image/svg+xml</dc:format>
        <dc:type
           rdf:resource="http://purl.org/dc/dcmitype/StillImage" />
        <dc:title></dc:title>
      </cc:Work>
    </rdf:RDF>
  </metadata>
  <g
     inkscape:label="Layer 1"
     inkscape:groupmode="layer"
     id="layer1"
     transform="translate(0,-284.36218)">
    <g
       id="g3100"
       transform="translate(-15.483431,-62.681106)">
      <path
         d="m 102.85486,418.673 c 4.99196,1.1e-4 9.69596,0.81611 14.112,2.448 4.51195,1.63211 8.39994,3.9841 11.664,7.056 3.26394,2.9761 5.85593,6.62409 7.776,10.944 1.91993,4.32008 2.87993,9.16808 2.88,14.544 -7e-5,5.37607 -0.96007,10.22406 -2.88,14.544 -1.92007,4.22406 -4.51206,7.87205 -7.776,10.944 -3.26406,2.97605 -7.15205,5.28004 -11.664,6.912 -4.41604,1.63204 -9.12004,2.44804 -14.112,2.448 l -12.24,0 0,27.36 c -2.3e-5,2.59201 -0.768022,4.65601 -2.304,6.192 -1.440019,1.44 -3.456017,2.16 -6.048,2.16 -2.304012,0 -4.27201,-0.72 -5.904,-2.16 -1.536007,-1.53599 -2.304006,-3.59999 -2.304,-6.192 l 0,-88.992 c -6e-6,-2.4959 0.767993,-4.46389 2.304,-5.904 1.63199,-1.53589 3.599988,-2.30389 5.904,-2.304 l 20.592,0 m -12.24,53.28 12.24,0 c 2.68796,6e-5 5.23196,-0.38394 7.632,-1.152 2.49595,-0.86394 4.60795,-2.06394 6.336,-3.6 1.82395,-1.63194 3.26395,-3.55194 4.32,-5.76 1.05595,-2.30393 1.58394,-4.89593 1.584,-7.776 -6e-5,-2.87992 -0.52805,-5.42392 -1.584,-7.632 -1.05605,-2.30392 -2.49605,-4.22391 -4.32,-5.76 -1.72805,-1.63191 -3.84005,-2.87991 -6.336,-3.744 -2.40004,-0.86391 -4.94404,-1.29591 -7.632,-1.296 l -12.24,0 0,36.72"
         style="font-size:144px;font-style:normal;font-variant:normal;font-weight:600;font-stretch:normal;text-align:start;line-height:100%;letter-spacing:0px;word-spacing:0px;writing-mode:lr-tb;text-anchor:start;fill:#000000;fill-opacity:1;stroke:none;font-family:Rimouski;-inkscape-font-specification:Rimouski Semi-Bold"
         id="path2998"
         inkscape:connector-curvature="0" />
      <path
         d="m 165.14611,431.057 c -2e-5,2.49609 -0.76802,4.51209 -2.304,6.048 -1.44002,1.44009 -3.45602,2.16009 -6.048,2.16 -2.30401,9e-5 -4.27201,-0.71991 -5.904,-2.16 -1.53601,-1.53591 -2.30401,-3.55191 -2.304,-6.048 l 0,-11.52 c -1e-5,-2.49589 0.76799,-4.46389 2.304,-5.904 1.63199,-1.53588 3.59999,-2.30388 5.904,-2.304 2.59198,1.2e-4 4.60798,0.76812 6.048,2.304 1.53598,1.44011 2.30398,3.40811 2.304,5.904 l 0,11.52 m 0,84.816 c -2e-5,2.59201 -0.76802,4.65601 -2.304,6.192 -1.44002,1.44 -3.45602,2.16 -6.048,2.16 -2.30401,0 -4.27201,-0.72 -5.904,-2.16 -1.53601,-1.53599 -2.30401,-3.59999 -2.304,-6.192 l 0,-61.632 c -1e-5,-2.39992 0.76799,-4.36792 2.304,-5.904 1.63199,-1.53592 3.59999,-2.30392 5.904,-2.304 2.59198,8e-5 4.60798,0.76808 6.048,2.304 1.53598,1.53608 2.30398,3.50408 2.304,5.904 l 0,61.632"
         style="font-size:144px;font-style:normal;font-variant:normal;font-weight:600;font-stretch:normal;text-align:start;line-height:100%;letter-spacing:0px;word-spacing:0px;writing-mode:lr-tb;text-anchor:start;fill:#000000;fill-opacity:1;stroke:none;font-family:Rimouski;-inkscape-font-specification:Rimouski Semi-Bold"
         id="path3000"
         inkscape:connector-curvature="0" />
      <path
         d="m 218.84236,441.281 c 6.04795,9e-5 11.75994,1.15209 17.136,3.456 5.47193,2.20808 9.98393,5.47208 13.536,9.792 0.67192,0.86407 1.15192,1.77607 1.44,2.736 0.28792,0.96007 0.43192,1.82407 0.432,2.592 -8e-5,2.30407 -0.86408,4.32006 -2.592,6.048 -1.72807,1.72806 -3.69607,2.59206 -5.904,2.592 -2.01607,6e-5 -3.84007,-0.81594 -5.472,-2.448 -2.49606,-2.49594 -5.32806,-4.46393 -8.496,-5.904 -3.16805,-1.53593 -6.52805,-2.30393 -10.08,-2.304 -3.64804,7e-5 -7.05604,0.67207 -10.224,2.016 -3.07203,1.34407 -5.76003,3.21607 -8.064,5.616 -2.30403,2.30406 -4.12802,5.04006 -5.472,8.208 -1.34402,3.16805 -2.01602,6.52805 -2.016,10.08 -2e-5,3.55204 0.67198,6.91204 2.016,10.08 1.34398,3.07203 3.16797,5.76003 5.472,8.064 2.30397,2.30402 4.99197,4.12802 8.064,5.472 3.16796,1.34402 6.57596,2.01602 10.224,2.016 3.55195,2e-5 6.91195,-0.62398 10.08,-1.872 3.16794,-1.34398 5.90394,-3.26398 8.208,-5.76 0.95993,-0.95997 1.87193,-1.58397 2.736,-1.872 0.95993,-0.38397 1.96793,-0.57597 3.024,-0.576 2.20793,3e-5 4.22393,0.81603 6.048,2.448 1.82392,1.63202 2.73592,3.60002 2.736,5.904 -8e-5,1.92002 -0.86408,3.84002 -2.592,5.76 -3.93607,4.03201 -8.54407,7.15201 -13.824,9.36 -5.18406,2.112 -10.65605,3.168 -16.416,3.168 -5.85604,0 -11.37603,-1.104 -16.56,-3.312 -5.08802,-2.20799 -9.55202,-5.18399 -13.392,-8.928 -3.84001,-3.83998 -6.86401,-8.30398 -9.072,-13.392 -2.208,-5.18397 -3.312,-10.70396 -3.312,-16.56 0,-5.85595 1.104,-11.32794 3.312,-16.416 2.20799,-5.18393 5.23199,-9.69593 9.072,-13.536 3.83998,-3.83992 8.30398,-6.86392 13.392,-9.072 5.18397,-2.30391 10.70396,-3.45591 16.56,-3.456"
         style="font-size:144px;font-style:normal;font-variant:normal;font-weight:600;font-stretch:normal;text-align:start;line-height:100%;letter-spacing:0px;word-spacing:0px;writing-mode:lr-tb;text-anchor:start;fill:#000000;fill-opacity:1;stroke:none;font-family:Rimouski;-inkscape-font-specification:Rimouski Semi-Bold"
         id="path3002"
         inkscape:connector-curvature="0" />
      <path
         d="m 279.33361,473.249 6.192,0 13.536,-25.488 c 0.86396,-1.63192 1.96796,-2.78392 3.312,-3.456 1.34395,-0.76792 2.73595,-1.15191 4.176,-1.152 2.11195,9e-5 4.03195,0.76808 5.76,2.304 1.82394,1.44008 2.73594,3.31208 2.736,5.616 -6e-5,1.53608 -0.43206,3.07207 -1.296,4.608 l -14.832,25.632 15.408,30.24 c 0.67194,1.44002 1.00794,2.92801 1.008,4.464 -6e-5,2.49601 -0.86406,4.51201 -2.592,6.048 -1.72805,1.44 -3.64805,2.16 -5.76,2.16 -1.53605,0 -2.97605,-0.384 -4.32,-1.152 -1.24805,-0.76799 -2.25604,-2.01599 -3.024,-3.744 l -14.688,-30.96 -5.616,0 0,27.504 c -2e-5,2.59201 -0.76802,4.65601 -2.304,6.192 -1.44002,1.44 -3.45602,2.16 -6.048,2.16 -2.30401,0 -4.27201,-0.72 -5.904,-2.16 -1.53601,-1.53599 -2.30401,-3.59999 -2.304,-6.192 l 0,-96.336 c -1e-5,-2.49589 0.76799,-4.46389 2.304,-5.904 1.63199,-1.53588 3.59999,-2.30388 5.904,-2.304 2.59198,1.2e-4 4.60798,0.76812 6.048,2.304 1.53598,1.44011 2.30398,3.40811 2.304,5.904 l 0,53.712"
         style="font-size:144px;font-style:normal;font-variant:normal;font-weight:600;font-stretch:normal;text-align:start;line-height:100%;letter-spacing:0px;word-spacing:0px;writing-mode:lr-tb;text-anchor:start;fill:#000000;fill-opacity:1;stroke:none;font-family:Rimouski;-inkscape-font-specification:Rimouski Semi-Bold"
         id="path3004"
         inkscape:connector-curvature="0" />
    </g>
  </g>
</svg>
